<?xml version="1.0" encoding="UTF-8"?>
<svg id="Layer_1" data-name="Layer 1" xmlns="http://www.w3.org/2000/svg" viewBox="0 0 792 612">
  <defs>
    <style>
      .cls-1 {
        fill: #062626;
      }
    </style>
  </defs>
  <path class="cls-1" d="M529.33,309.95c.57,0,.96.38.96.57-1.15,1.72-2.87,3.25-4.59,4.4h-.57c-1.15,0-5.74,3.06-7.46,4.78v.77c0,1.15-1.53,2.87-2.87,2.87-.96,0-.96-.77-1.53-.77-3.06,0-.57,4.02-4.59,4.02h-.77c-.96.19-2.87,2.68-3.25,3.64h-1.34c-2.87,0-3.25,2.49-5.74,2.87h-2.1c-.57.57-1.34.76-2.3.76-4.02,0-9.18-2.87-10.33-4.78,0,.57-.19.57-.77.57,0-.19-8.03-5.55-8.03-10.9,0-.77,0-.96.19-1.34h.96l.19-1.91h-.77c-3.44,0-2.1-2.1-4.59-2.1,0-1.72,1.34-2.3,1.72-3.44.77.38,1.15.57,1.15.96,0,.57-.38.77-.57,1.15,1.91-.57,3.06-2.3,3.06-5.17h.96v-.57c-.57-.19-.57-.57-.57-1.15,0-1.15,1.72-2.49,1.72-4.21,0-.38,0-.96-.38-.96-1.72,0-.77,3.25-2.87,3.25,0,0-.19-.38-.57-.38.38.38.57,1.15.57,2.3,0,1.72-1.34,1.72-1.34,2.3s.19.57.57.57c-.57.77-.96,1.15-1.15,1.15-.57,0-.96-1.15-.96-2.87,0-4.02,2.68-4.59,2.68-6.31-.38-.77-.38-1.34-.38-1.91,0-2.3,1.15-3.06,2.68-5.74.57.38.77.57.77.96,0,1.15-1.72,3.06-1.91,4.78.77-.38,1.15-1.34,1.91-1.72l.38-1.34c.19-.96,1.15-.96,1.34-2.1,0-.57-1.15-1.15-1.15-1.91,0,.19,5.74-5.93,6.31-7.65-.19,0-.19-.38-.19-.38,0-.19.77-1.15,1.34-1.15h1.15l.38-1.91c.77-2.1,3.06-3.44,4.59-3.44h.57c2.3-.77,4.21-1.72,5.74-3.06v-.57c2.3-1.15,5.17-2.1,8.04-2.1,1.34,0,10.14,3.25,10.14,6.31,0,1.34-1.72,1.34-1.72,2.49s2.87,1.15,2.87,3.25c0,.57-.19.77-1.15,1.15.38.57.57,1.15,1.15,1.34,0,.38-.19.38-.19.38-.38,0-.57-.38-.96-.38,0,1.72-.77,1.91-1.15,2.87,0,.57.38,1.34.38,1.72,0,.77-.57,1.15-2.1,1.15h-.57c0,.57.38.77.38,1.34,0,0-8.61,8.61-11.09,8.61h-1.15c-1.15,0-1.53-.57-2.3-.96-2.1,0-.38,2.3-3.83,2.3-1.15,0-1.91-.19-1.91-.77q0-.38.19-.57c-2.87-.38-6.31-2.1-8.61-2.1-.19,0-.57,0-.57.57,0,.38.38.96.38,1.15,0,1.53-1.72.57-1.72,1.72s.19,2.3.19,3.44c0,4.21-1.91,8.61-1.91,13.39,0,2.49.77,5.74,3.64,6.31h13.01c1.34-1.15,3.44-1.53,5.74-1.53,5.36-1.15,10.52-5.36,15.11-6.51,5.55-.77,2.1-2.87,10.9-7.46h.57ZM486.47,292.73c-.38.57,4.21.96,5.55.57,14.54-3.44,14.54-8.8,15.5-11.1l.57-2.68c-1.15-1.15-2.3-2.49-4.02-2.49-.77,0-1.72.19-2.3.57h-1.91c0-.38-.38-.57-.57-.57-.57,0-1.72.57-1.72,1.34,0,1.15,1.34.96,1.34,2.1-.57.57-1.91.19-2.3,1.34h-1.15c-1.34,0-1.91.96-3.06,1.53-1.53,1.15-3.06,2.1-4.4,3.83.19-.19.38-.19.57-.19.38,0,.57.19.38.57l-2.49,5.17ZM490.11,286.99c0-1.15,1.91-3.44,3.06-3.44.38,0,.57,0,.57.38-.57,1.34-1.91,1.34-2.49,3.06-.57.19-.96.19-.96.19q-.19,0-.19-.19Z"/>
  <path class="cls-1" d="M578.75,289.1c0,.4.2.8.4,1.2-.2.6-1.2,2.21-1.81,2.61,0-.2-.2-.8-.4-1.2-.6,1.61-2.61,3.61-4.02,4.41-.8.2-1-.4-1.4-.8.6-4.22,1-6.22,1.4-10.44.2-.6.2-1.81.6-3.01-3.21,1.81-7.23,4.61-9.63,6.02l-4.61,3.21c-4.22,3.01-6.02,4.82-10.24,7.83-2.81,4.01-1.41,1.41-6.22,6.82-2.41,6.42-7.63,7.23-9.23,14.65-.6,2.21-2.21,3.21-5.22,10.64-.2-2.81-.4-3.61-1-3.41-1.41.6-3.81,6.42-6.83,6.42q-.6,0-.8-5.02c0-2.81,1.21-6.02,1.21-7.83,0-1.21,2.01-2.21,3.41-5.02l.2-.4c2.61-3.41,1.61-5.22,2.21-7.63,0-.6,0-1.21-.4-1.41,1.41-6.62,4.62-11.04,5.62-14.25l1.61-5.02c1.4-4.62,1.61-6.83,1.61-9.63-.2-2.41.4-4.62-1.01-6.22,0-1,.2-1.21.8-1.21s1.61-.2,2.61.4h.6c2.21,0,1.61,1,3.21,1.61h1.21c.8,0,1.2,3.01,1.4,6.02.4-.8,1.01-1.2,1.01-1.2.2,0,.2.4.2.6,0,1.81-.6,3.41-.6,4.01v2.41c0,1.41-.6,1.81-.6,3.21-.6,4.01-1.81,3.01-2.61,5.42-.6,1.61-1.61,3.61-2.41,4.82-1,1.81-4.01,7.63-4.01,9.43,0,.6.6,1.01.8,1.01,0-2.41,8.03-9.84,9.83-12.25,1.01-1.2,1.61,0,2.21-1.61-.2,0,.6,0,.6-.6s.6-1.01,1.61-1.81c2.41-1.81,3.81-2.61,6.82-3.61h1.41c.4-1.41,2.01-3.01,4.22-3.81.6-.2,1.4-2.01,2.01-1.81.8,0,1.21-.2,1.41-.8l-.2-.2c.4.2,2.01.2,3.41-.6l1.41-.6c1.4-.8,2.41-1,3.61-1.2.2-1.21.8-2.21,1.41-3.21,1,.8,2.81.4,5.22.4,3.41,6.22.6,7.23-2.01,12.65ZM521.54,317.6l-.6,1.41h-1.21l.8-2.21,1,.8ZM523.55,315.19l-.8,2.21-.2-2.41.2-2.41.8-1.41,1.61-1.81.2,2.41-.6,1.41-1.2,2.01ZM565.7,281.67v-.2.2ZM576.14,294.12c.2,0,1.01-.4,1.21-.4-.4,1.4-1.61,2.61-2.61,3.01,0-.8,1.4-2.01,1.4-2.61Z"/>
  <path class="cls-1" d="M579.67,334.13c-1.32-.19-2.45-.38-3.78-.76-2.08-.38-4.15-1.13-6.23-1.89-1.32-2.08-.94-6.61,2.27-10.57,1.7-.38.19-.57,1.89-1.13.56,2.08-.19-1.51,1.51-.57.94-.75,1.32-.75,2.64-1.32,0,2.08.76,1.51-.19,1.7-.76.19-5.1,3.96.38,5.1,1.51,1.13,5.47.76,8.12.76,3.96.57,10.2.57,12.84-3.21.76-.94.76-2.08.76-3.77-1.32-.57-3.02-1.32-4.53-2.08-3.02-4.72-1.51-.76-3.02-1.51-1.51-.94-2.08-4.15-5.66-3.4l-2.08-1.51c-.76-.76-1.7-1.51-2.27-2.27-1.7-1.89-2.64-3.96-2.83-6.04-4.34-5.85,2.27-11.14,5.47-14.91-.56-.57-.94-.95-1.32-1.51h2.64v-2.27c2.83-1.13,7.74-6.42,12.46-9.63,1.13-.95,2.46-1.7,3.4-2.08,1.51-.57,2.83-.76,3.78-.19,3.21.57,12.65,8.12,13.03,11.14-.57.75-.38.56-.76,1.89-3.78-2.08-7.36-2.45-12.27-1.13-.94.38-.76-1.51-2.08-.94-.94.57-1.89,2.45-3.02,3.02-1.13.94-2.08,0-3.21-.19-.94.94.76,1.32-.19,2.27-.38.38-1.32,1.13-2.27,2.27l-1.51-.76-1.13,3.21c-1.51,1.51-3.02,2.83-3.4,3.4-.76,1.13-1.51,2.27-2.08,3.4-.76,1.7-1.32,3.59-1.32,5.47.57.57.19.19.57,1.32,8.12,3.59,20.2,10.76,20.96,21.14-1.32,1.51-3.02,2.83-4.91,3.78-.94.57-1.89.94-2.83,1.32-.95.38-1.7.76-2.64.94-.57.19-1.13-.94-1.7.57-1.51-1.13-3.02.57-4.53.76-.95.19-2.08.19-3.02.38-1.13,0-2.27.19-3.4,0-3.59-1.51-5.1-1.51-4.53-.19ZM580.61,316.95c.95-.19,1.51-.38,1.89-.19-.94,1.13-3.21,2.45-3.96,1.32.76-.38,1.51-.76,2.08-1.13ZM582.69,324.69c0-.38-1.32-1.13-1.32-1.51.38.56,2.64.56,3.02,1.51h-1.7ZM595.15,308.27c.38-.57.38-.19.56-1.32,1.51-1.13,3.59-1.32,4.91-.38-2.27.76-4.15,1.51-5.47,2.27v-.57ZM596.47,309.59c1.51-.76,2.83-1.51,3.77-2.27-1.32,1.32-3.4,3.59-3.4,2.27h-.38ZM600.81,305.06c-.19.19-.76-.38-.57-.38.57,0,1.51-.57,1.32-.38l-.76.76ZM621.2,298.64c3.02-1.13,4.34-2.08,8.69-2.64-6.99,3.59-19.45,7.17-27.94,10.19,4.72-4.15,16.61-8.12,19.26-7.55ZM634.61,292.6c-.19.38-.57.76-.94,1.13.57-.76.94-1.32.94-1.13Z"/>
  <path class="cls-1" d="M284.15,224.68c.2-.61-.61,9.28-7.87,12.11h-.61c-2.02,0-2.42,6.26-4.84,7.27h-1.01c-3.43,1.21-4.64,6.86-9.28,6.86h-.61c-.81,1.61-1.41,3.43-3.03,4.03-5.65,2.02-3.03,2.02-6.26,3.23v1.01h-1.01c-.8-.4-1.21-1.82-1.41-1.82-.61,0,.81,2.42-3.63,2.42-1.61,0-3.43-.6-3.43-2.82-1.21-.2-1.61-.2-1.82-.81-.2-.61,1.61-1.61,2.02-1.82h-1.01c-2.42,0-1.82,3.63-4.64,3.63-.2.2-.61.2-.61.61l1.61.2c.2-.61,1.41-1.21,2.42-1.21.8,0,1.82.6,1.82,1.82-.61-.2-1.61-.2-2.22-.2-.81,0-1.41.2-2.02.6,0,1.41,2.02.81,2.22,2.02-1.41-.61-2.02-.81-2.62-.81s-.81.2-1.41.61c.61,0,1.41.2,1.41.81l-2.02-.81c-.81.61-2.22.81-4.04.81-.6,0-1.21-.2-1.82-.2l-.6.6v.81l.6.4c0-.61.61-1.01,1.21-1.01.81,0,2.02,1.01,2.02,1.61s-1.41.81-2.42.81c-.61,0-1.21-.2-1.82-.81l-.4.2-1.21,2.42c-1.01,0-1.82-.4-2.42-.4s-1.01.4-1.21.61c.2,0,.81.4.81.61,0,.4-.4.4-.61.4l-1.21-1.21c-1.01,1.82-2.22,2.82-4.04,2.82h-.6s-7.27-1.01-7.67.81c0,.81-2.22.2-2.83.2-1.21,0-2.62-.6-3.83-.6q-.61,0-.81.4l-1.61-.4c0,1.01-.61.81-.61,1.21,0,.2-.4.2-.61.2-2.62,0-4.04.6-4.24.2-.4-.81-.81-.81-1.82-1.21-1.82.61-1.21,4.84-2.83,5.85,0,2.02-1.82,1.21-1.82,2.42,0,.61.2.81.2,1.21,0,1.82-1.61,3.23-1.21,4.44l.2.6c-.81,0-3.63,2.22-5.25,7.06-.2.81,1.01,1.82,1.01,2.42,0,.2-2.02.61-2.02,2.62v.4c0,1.21-2.42,5.65-2.42,6.26s.2,1.01.81,1.21c-2.22,5.25-6.05,11.1-5.85,14.73.61,0,.61.2.61.61,0,.81-3.43,3.23-3.63,3.23l-1.21,5.45c-1.61.81-4.44,3.63-6.66,4.64-3.03,0-4.84-1.61-5.04-2.82-.2-1.41,1.82-3.23,2.42-3.84l1.61.2c3.23-.8.81-9.08,3.43-9.28.6-.4,1.21-1.21,1.82-2.22-.2-.2-.2-.81-.2-1.21,0,1.21,2.82-11.91,4.24-11.91,1.61,0,4.44-5.04,4.44-6.26-.6-.6-.81-1.01-.81-1.61,0-2.62.61-5.04,2.22-5.04.61,0,.81.2,1.61.81-.2-.2.2-.61.2-.61,0-1.21-1.82-2.42-1.82-3.03,0-.2.2-.6,1.21-.8h.8v-.61c0-1.01,2.02-11.51,2.63-11.51.4,0,4.64-15.13,5.45-15.13h1.01c1.41,0,3.43-7.06,4.64-10.7l-.81-.2c-.6-.4-.6-1.01-1.61-1.21-1.41,0-.8,3.03-1.82,3.23-.6-.2-.6-.61-.6-1.21,0-2.62,3.83-11.5,5.04-11.5,0,0,.4.4.6.4v1.82c.61.2.81.6.81,1.21s-.2.81-.2,1.41c1.21,0,1.21-2.02,1.21-3.23-1.01-.4-1.41-1.01-1.41-1.21,0-1.21,1.82-2.42,2.62-3.43l1.21.61c1.21-1.61,2.62-7.27,2.62-10.9,0-1.01-.2-1.82-.61-2.42-.6,0-.81.2-1.41.2-2.22,0-5.45,3.43-7.26,2.22l-3.43-.6v-.61c0-1.82-4.04-3.03-5.04-5.65v-.61c0-1.21-3.23-2.42-3.23-3.43,0-.81,1.61-1.41,2.82-1.41s2.02.61,2.42,1.41v1.01c.8.2,1.41.61,2.02.61,1.82,0,2.83-1.21,4.64-1.21h1.21c2.62-.61,4.24-1.01,6.26-2.42.61.2,1.21.2,1.82.2,2.22,0,5.85-3.23,5.85-3.23,0-1.21.81-2.22.2-2.62l.61-2.02c3.63-2.02,1.21-7.27,7.26-8.07,2.02,1.21,3.84,5.45,3.84,6.05,0,.81-2.02,2.02-2.02,3.23,0,.61.2.81.61,1.21l-1.41,2.83,4.44-.4c1.21,0,3.03-.81,3.63-1.41l5.85-.61c4.04-.2,8.48-1.01,12.51-1.01,4.84.4,6.86.2,12.31,1.21l6.66,1.21,1.21.2c.2-.6,1.21.81,2.42.81,2.02,0,3.84.6,4.44,1.82h.61c.2-.4,1.01-1.01,2.42-.61,1.41.4,6.66,1.82,6.66,3.63v.2c3.84,0,5.25,4.64,5.85,7.27v3.43ZM161.65,312.47c0-.81,1.61-2.02,2.22-2.02s.61.2.61.81v1.01c0,1.41-.4,2.02-1.01,2.02s-1.82-.81-1.82-1.82ZM165.28,306.61c.4-.6,1.01-.6,1.01-1.41l.2-1.01c0-1.41,1.01-1.41,1.01-2.63,1.01.2,1.41,1.21,1.41,2.02,0,1.82-1.21,4.04-2.42,4.04-.61,0-.81-.4-1.21-1.01ZM169.32,300.36c-.61-.61-.81-1.21-.81-1.61,0-1.41,1.61-3.03,2.22-4.44.61.61.81.81.81,1.41,0,1.21-2.22,2.42-2.22,4.24v.4ZM171.13,290.67c.2-.61.81-.61.81-1.61,1.01.4,1.01,1.01,1.82,1.01,0,.81-1.01.81-1.01,1.82-.61-.4-.81-1.21-1.61-1.21ZM182.03,269.08c-1.01,1.82-3.43,3.43-3.23,5.85l-.2,1.82c-1.01,3.83-2.82,7.47-4.44,10.9-.4-.61-.4-1.21-.4-2.22,0-4.84,5.45-13.93,5.45-15.94,0,.2.4.2.4.2.6-.2,1.21-.61,1.82-.61h.61ZM184.05,261.61c-1.01-.61-1.61-1.61-1.61-2.42,0-2.22,2.62-4.64,2.62-5.85.81,1.01,1.21,1.61,1.21,2.42,0,1.82-1.01,4.03-2.22,5.85ZM271.64,228.91c-1.01-1.01,1.82-2.42,1.82-3.23,0-2.22,1.01-4.04,1.01-5.45,0-1.21-3.03-3.63-10.09-4.64-5.25-.4-5.65,0-6.26,0-1.41,0-3.84-1.01-5.25-1.01-1.21,0-.81,1.01-2.63,1.01-.81-.81-1.82.2-3.23,0l-.2-1.01h-.61c-.4,1.01-1.41,1.61-2.62,1.61-1.82,0-1.61-.4-3.23-.4-.2.4-.61.4-.81.4-1.01,0-3.23-1.01-4.44-1.01-1.01,0-1.61.4-2.02,1.61h-1.21c-5.65,0-11.3,2.02-11.3,2.02h-.6c-.81,0-1.41.2-2.42.2-.81,0-1.61,1.01-1.82,1.01-3.03.4-6.66.61-6.46,1.21.2.4.4.61.81.61-.61,5.45-7.06,13.93-7.06,17.96,0,.6.2.81.81,1.21-.2.81-5.25,6.26-5.25,9.89,0,.2-1.41,2.42-.81,3.03l-.4,1.82c-.61.4-.61,1.61-1.82,1.61-.61,0-.61-1.01-1.01-1.01-.2,0-.6.4-.81.4h-.4c-.2.2-.2.61-.2.81,0,.6.61,1.21.61,1.82,0,.4-.4.61-.4,1.01,0,1.21-.61,2.42.4,2.42,1.82,0,3.84-1.61,5.05-2.22l3.03,1.21c1.21,0,4.04-.81,4.64-.81.2,0,1.21.2,2.62.2,1.01,0,.61-.81,1.82-.81s2.42,1.21,3.63,1.21c.4,0,.61,0,1.01-.4l.2-.81,4.24-1.21c.6-.4,3.03.2,3.43-.61l3.84-.81,5.04-1.61c.2.2.4.2.4.4,3.23-2.22,10.09-5.65,10.09-6.05,0-.2.4-.2.61-.2h.61c5.85-1.82,7.67-3.23,13.12-6.86h.4c2.63,0,3.03-3.03,4.44-4.24.6,0,3.23-3.43,3.83-3.43,2.42,0,2.42-6.86,5.85-6.86ZM215.33,216.4c.81,0,.81.81,1.82,1.21,0-1.01.61-1.21.81-1.82-.81,0-1.01-1.01-1.61-1.21,0,.81-.81,1.21-1.01,1.82ZM221.79,217.01c.81,0,1.82,0,2.42.4,1.21-.4,1.01-1.01,1.21-1.61-.8,0-1.01-.81-2.02-1.21.2,1.01-1.41,1.61-1.61,2.42ZM231.28,261.61q.2-.4.2-.61c-.61,0-1.01-.2-1.41-.4l-1.01,1.01h2.22ZM234.91,260.6c0,.4-.6-1.21-1.21-1.21v1.01q0,.2.2.61c.4,0,1.01,0,1.01-.4ZM247.02,260.4l.81,1.82-8.88,1.41c0-.4,2.02-2.42,2.02-3.03,0-.2.2-.61.81-.81,2.42,0,.81,2.02,3.03,2.02h.81l-.2-.81c0-.4,0-.61.61-.61h1.01ZM277.9,234.97c0-.61.4-1.21.2-1.82-.2-.81-.4-1.41-.81-2.02-2.02,0-4.84.61-4.84,2.02q0,.4.2.6c-.61,1.21-1.82,1.61-1.82,2.22,0,.2,0,.81.4,1.21,2.62-1.82,2.42-2.22,4.24-2.22h2.42Z"/>
  <path class="cls-1" d="M266.13,327.69c-.78,0-1.56.19-2.14.19-.97.78-.19,1.75-.58,3.89.58.78,0,0,.39,2.14-1.17,0-2.33.19-3.5.39-1.75-2.33-3.89-2.14-5.64-4.47-1.36-2.72-.78-4.67,0-8.17,1.17-4.86,2.33-8.17,4.28-13.42l.58-2.72c0-.19,0-.58.19-.58.97,0,5.06-12.45,5.64-11.67.19,0,.19-.58.19-.78v-.97c0-.78,2.72-2.33,2.72-5.84v-.2c0-.58,1.17-1.56,1.36-2.72v-.19c0-.58,1.56-3.5,1.56-5.06v-.58c0-.78,2.33-2.34,2.33-3.7q0-.39-.39-.58l.97-1.56c0-1.56,1.56-1.17,1.56-3.5,1.56-4.28,3.31-8.76,5.06-13.23,1.36-3.89,3.69-11.09,5.06-15.17,2.14-7,7-14.79,8.17-22.18.2-.78-1.56-1.17-1.17-2.72l2.53-3.11c1.95-5.06,3.7-10.89,5.45-15.17.58,0,1.36-.2,2.14-.2,1.94-.58,3.89.2,6.81,3.31,1.56,1.36-.39,2.53,0,5.44-1.36,5.06-4.67,11.67-8.17,16.54-7,15.17-16.73,40.85-22.37,58.36-.78,2.33-3.31,4.86-4.09,7-.97,2.92-.39,5.45-1.56,8.17-2.72,6.81-8.17,14.59-8.36,23.15.78-.19,1.75,1.17,2.33.97,3.89-4.28,5.25-5.25,6.81-7.98,11.28-12.26,22.37-20.82,33.85-30.35,3.11-2.53,10.89-9.14,13.81-9.73.97-.58,1.17-.39,3.11-.2,0,.97-.97.58-.97,1.56-1.56,1.17-2.14,1.75-3.11.58-1.17,2.14-1.36,2.33-2.53,3.11-2.92,1.94-6.23,2.14-9.14,4.08.39,1.56.58.39.19,1.95-.97-.39-.58-1.95-1.17-.58h-.58c.97,1.17-.19.39-2.53,3.31-6.42,6.81-17.51,16.15-27.24,26.26-4.28,5.45-7.2,10.31-12.26,14.79l.39,2.14ZM255.23,324.97l1.56.39v-2.72l1.56-3.31-1.75,1.75-1.36,3.7v.19ZM271.18,272.05l1.75-3.5-.58,2.53-.58.58-.58.39ZM273.32,267l-.19-1.95,1.17-1.75,1.75-1.75.19-3.5,1.17-1.17.2-.97.58.58-.97,2.53-.78,2.72-1.36,2.14-1.56,1.17-.19,1.95ZM278.19,255.91l-.78-2.14,1.17-1.56.19.78-.58,2.92ZM280.72,247.35l.58-2.53.97-2.53.39,1.56-.97,2.53-.97.97ZM283.25,242.29l-.2-1.95v-1.75l.78-2.14.78-2.34,1.36-2.33,2.72-6.03.78-1.95.39-1.56,1.75-4.47.97-.58-.39,2.53-1.17,2.14-.78,3.31-3.89,7.39-.2,1.95-1.17,2.92-.78,1.56-.97,3.31ZM302.12,217.97c.97-.19,0-2.53,0-3.89-.78,1.75-1.17,3.11-1.17,3.89v.58c0,1.36-1.75,1.17-1.75,1.75,0,.78.78,1.94,1.36,1.94s.58-3.7,1.56-4.28ZM303.28,212.72h.58c1.36-3.89,6.03-12.06,4.48-12.06-.39,1.56-3.7,7.59-5.64,12.25.19-.19.39-.19.58-.19Z"/>
  <path class="cls-1" d="M336.08,334.31c2.01,2.01,1.81,2.61,4.62,4.01,1.01.2,2.41.8,3.61,1-1.81.6-3.61,1-4.62.6-1.61-.6-5.02-2.61-5.02-2.81l-2.21-2.01c-1.41-1.61-3.21-4.42-3.81-8.43l.6.2c-.6-4.82-2.21-2.41-2.21-10.24,0-2.61.4-5.22.4-6.42v-1.01c0-1.2,1-2.01,1-3.21v-2.41c0-1.01,0-4.82,1.41-5.82v-1.41c-3.21,1.21-3.21,4.42-5.02,6.02v.6l-.6.8c0,.6.6.6.6,2.21h-.6c-.4.2-.6.6-1.61.6h-.8v2.01c0,1-.4,1.81-.6,2.21-.6-.4-1-.6-1.21-.6-.6,0-1.2.2-1.61.2-.2,0-.6,0-.8-.2,0,.8.2,1.41.8,1.41h3.41c-1,1.2-1.81,2.41-3.61,2.81.2.8.6,1.2.8,1.2.6,0,1.21-1,2.21-1.2h.6c-1.61,2.61-2.21,6.62-5.82,7.23h-1.41c0,2.01-2.81,1.21-2.81,3.01v1.2c0,3.21-9.03,7.03-12.65,8.23l-2.61-.2c-.4,0-.6.4-1,.4-.8,0-6.82-4.62-6.82-6.42,0-.6.6-.8.6-1.41,0-1-1.2-2.21-1.2-3.41.2-.8.8-1.81,2.01-2.01-.2-.6-.8-1.2-.8-2.41s1.41-.4,1.41-1.2v-.6c1-1,1.21-1.81,1.21-3.01,0-.6,0-1.61-.2-2.21.6-3.81,3.81-7.43,4.21-9.23-1.2,2.41,1.41-5.22,2.61-5.42v-1c0-2.41,1-3.81,2.21-5.02,1.21,0,.81-7.63,3.61-8.43v-1q-.4,0-.4-.2c0-2.21,1.81-3.81,2.41-5.42l.2-.6c.4-1.41-1.41-3.61-1.41-4.82l3.61-.4c2.81,0,6.83.6,7.83,1.61v.6h.8c.4,1.41.2.6.2,2.21,0,2.01-.81.4-1.01,2.01.6-.4-.6,2.21-3.61,8.43l-1.41,3.21s-3.41,4.82-3.61,5.82v.6c0,3.21-1.61,5.02-4.22,6.62,0,.2.4.81.6,1.41-.2.2-.6.2-1.2.4v.6c0,1.2-.6,1.4-.6,2.41h-1c-.2.6-.6.81-.6,1.41s.4,1.21.4,1.61c0,2.01-2.41,2.01-2.41,4.22v.6h-1c-.2.6-.8,3.01-.8,5.02,0,1.61.2,4.82,1.21,5.22,0-.4,1,1.2,1.81,1.2,1,0,2.01-1.2,2.41-1.2l2.61-2.61,4.01-3.81c3.81-2.01,4.82-6.62,8.43-10.84v-2.01h.6c3.81-4.01,6.62-10.04,13.85-16.26h.6c-.4,0,3.01-4.82,3.01-8.23,0-.8-.6-1.81-.6-2.01,0-.4.2-.4.6-.4.8,0,3.01,1.61,3.01,3.01v.4h.6c3.21.8,5.42,4.82,5.42,6.22,0,1.2-4.21,5.82-4.21,6.62,0,.6.2.6.6,1-.4.8-1.61,6.62-2.41,7.23h-1.01v1.21c0-.6-1.4,4.21-2.61,6.62v.6q.6.2.6.6c0,.6-1,1.21-1,1.81,0,.2,0,.6.4.6,0,1.41-.6,1.41-.6,2.01,0,.4.2.4.6,1v.8c0,2.41-.2,4.21-.2,6.62v7.03l1.2,3.01ZM304.57,303.19c0-.2,0-.4-.2-.6.8-.2.2-.2.2.6Z"/>
  <path class="cls-1" d="M399.83,294.04h-.6c.4,1.81.6,2.21.6,2.81l-.2,1.4c.2.6.2,1.21.2,1.61,0,2.41-2.21,6.02-2.21,6.63v1.61c-.6,2.21-1.21,5.62-2.81,5.62v.8c-.4.4-.4.6-.4.8,0,.6,1.21,1.41,1.21,1.41,0,.4-1.61,1.61-1.81,1.81-.4,0-2.61,10.24-2.61,10.44-.6,0-.6.4-.6.8v.6c0,1.21,0,4.02.6,6.83h-.6c-1-.4-5.22-9.83-5.42-12.85,0-.2-1.4-7.83-.2-9.03-.6-.6-1-1.81-1-3.01,0-1.81,2.21-3.01,2.21-5.02v-3.21c2.21-2.81.6-8.63,2.61-9.83l-.4-4.22q-.6,0-.6.6h-.6c-1,.4-8.03,5.22-8.43,6.42-3.41,3.61-7.63,9.03-11.04,11.64l-.8.6c-1.01,2.61-3.81,4.01-5.62,6.22h-.8l.2,1.61h-1.21c-1.2.2-1.61,1-2.01,2.21h-.8c-3.01,4.01-7.43,9.63-9.43,13.65-.2.2-.4-.2-.4-.6v-.8c0-.4,1.4-.6,1-.6h-2.21c-1.61,1-1,3.41-3.81,3.41v-.81c-1-.4-2.81-2.01-2.81-3.21,0-.4.2-.6.6-.8v-.2c0-7.43,5.22-11.24,5.22-15.66v-.4c.6-1,1.81-1.2,1.81-2.61v-1c.6-1.21,1.41-2.21,2.61-2.81v-.6c0-2.01,1-3.21,1.61-5.22,0-1,.4-1.21.4-2.01v-.6s2.81-6.63,4.01-8.63c-1-.4-1.2-1-1.2-1.41,0-.6,0-1.2.2-1.81.8-.4,1.61-6.42,2.01-6.42,0-4.21,0-8.43-2.81-8.43h-1c0-.2.2-.4.2-.6,5.22,0,9.43,1.4,10.03,3.41,4.42,2.41,3.61,4.41,3.61,7.23,0,.4,0,1.41.4,1.61,0,1-.2,1.61-.4,2.21-.4,2.01-1.81,7.03-3.41,8.23v.4c0-.4-1.61,1-2.01,1.61,0,0,.4,0,.4.4,0,3.21-4.62,8.63-4.62,10.84l-5.82,11.84c2.21-.2,7.63-7.63,8.43-9.43l3.21-4.01h.6c.8,0,.8-2.21,2.61-2.21q-.2-.6-.2-1c0-.81.4-1.21,1.61-1.21h1.81c.6,0,.8-.4.8-1v-1c0-.81,0-1.21.8-1.21h.2c0-2.61,6.42-7.03,7.23-8.03v-.6c0-1.4,3.01-.4,3.21-1.4h.4c0-1.21,1.61-1.61,2.81-1.61h1.61c.8,0,.8-.6,2.01-.6l-.4-.6c.4-.6,1.4-1.21,2.01-1.41.6,0,6.02.8,6.02,1.61q0,.2-.6.4c.4.6,1,.6,1.61.6h1.4l1.61,3.61s.6,2.01.6,3.21c0,.4-.4,1-.4,1Z"/>
  <g>
    <g>
      <path class="cls-1" d="M492.93,352.73c0-3.37,2.59-5.78,6.07-5.78,1.93,0,3.55.7,4.6,1.98l-1.66,1.53c-.75-.86-1.69-1.31-2.81-1.31-2.09,0-3.58,1.47-3.58,3.58s1.49,3.58,3.58,3.58c1.12,0,2.06-.45,2.81-1.33l1.66,1.53c-1.05,1.29-2.67,2-4.62,2-3.47,0-6.05-2.41-6.05-5.78Z"/>
      <path class="cls-1" d="M507.08,353.4v-6.26h2.59v6.17c0,2.12.93,3,2.49,3s2.49-.88,2.49-3v-6.17h2.56v6.26c0,3.29-1.89,5.11-5.06,5.11s-5.06-1.82-5.06-5.11Z"/>
      <path class="cls-1" d="M521.69,347.14h2.59v9.08h5.61v2.11h-8.2v-11.18Z"/>
      <path class="cls-1" d="M534.54,349.25h-3.58v-2.11h9.75v2.11h-3.58v9.07h-2.59v-9.07Z"/>
      <path class="cls-1" d="M543.73,353.4v-6.26h2.59v6.17c0,2.12.93,3,2.49,3s2.49-.88,2.49-3v-6.17h2.56v6.26c0,3.29-1.89,5.11-5.06,5.11s-5.06-1.82-5.06-5.11Z"/>
      <path class="cls-1" d="M565.46,358.32l-2.16-3.12h-2.38v3.12h-2.59v-11.18h4.84c2.99,0,4.86,1.55,4.86,4.06,0,1.68-.85,2.91-2.3,3.53l2.51,3.59h-2.78ZM563.04,349.25h-2.11v3.9h2.11c1.58,0,2.38-.74,2.38-1.95s-.8-1.95-2.38-1.95Z"/>
      <path class="cls-1" d="M579.37,355.93h-5.19l-.99,2.4h-2.65l4.98-11.18h2.56l5,11.18h-2.72l-.99-2.4ZM578.55,353.96l-1.77-4.28-1.77,4.28h3.55Z"/>
      <path class="cls-1" d="M586.17,347.14h2.59v9.08h5.61v2.11h-8.2v-11.18Z"/>
    </g>
    <g>
      <path class="cls-1" d="M480.39,366.28h3.16v11.18h-3.16v-11.18Z"/>
      <path class="cls-1" d="M497.83,377.46l-.03-5.93-2.88,4.82h-1.41l-2.86-4.67v5.77h-2.92v-11.18h2.6l3.93,6.46,3.83-6.46h2.6l.03,11.18h-2.91Z"/>
      <path class="cls-1" d="M514.99,377.46l-.03-5.93-2.88,4.82h-1.41l-2.86-4.67v5.77h-2.92v-11.18h2.6l3.93,6.46,3.83-6.46h2.6l.03,11.18h-2.91Z"/>
      <path class="cls-1" d="M531.04,375.02v2.44h-8.98v-11.18h8.77v2.44h-5.64v1.89h4.97v2.36h-4.97v2.04h5.85Z"/>
      <path class="cls-1" d="M539.61,374.49h-1.72v2.97h-3.16v-11.18h5.11c3.05,0,4.97,1.58,4.97,4.14,0,1.65-.8,2.86-2.19,3.53l2.41,3.51h-3.39l-2.03-2.97ZM539.64,368.77h-1.76v3.28h1.76c1.31,0,1.96-.61,1.96-1.63s-.66-1.65-1.96-1.65Z"/>
      <path class="cls-1" d="M547.69,376.45l1.04-2.33c.99.66,2.4,1.1,3.69,1.1s1.82-.37,1.82-.91c0-1.77-6.36-.48-6.36-4.63,0-2,1.63-3.63,4.95-3.63,1.45,0,2.96.34,4.06.97l-.97,2.35c-1.07-.58-2.12-.86-3.1-.86-1.33,0-1.81.45-1.81,1.01,0,1.71,6.34.43,6.34,4.55,0,1.95-1.63,3.61-4.95,3.61-1.84,0-3.66-.5-4.71-1.23Z"/>
      <path class="cls-1" d="M560.73,366.28h3.16v11.18h-3.16v-11.18Z"/>
      <path class="cls-1" d="M567.49,371.87c0-3.35,2.64-5.82,6.21-5.82s6.21,2.46,6.21,5.82-2.64,5.82-6.21,5.82-6.21-2.46-6.21-5.82ZM576.72,371.87c0-1.93-1.33-3.2-3.02-3.2s-3.02,1.26-3.02,3.2,1.33,3.2,3.02,3.2,3.02-1.26,3.02-3.2Z"/>
      <path class="cls-1" d="M594.14,366.28v11.18h-2.6l-4.94-5.96v5.96h-3.1v-11.18h2.6l4.94,5.96v-5.96h3.1Z"/>
      <path class="cls-1" d="M597.52,376.45l1.04-2.33c.99.66,2.4,1.1,3.69,1.1s1.82-.37,1.82-.91c0-1.77-6.36-.48-6.36-4.63,0-2,1.63-3.63,4.95-3.63,1.45,0,2.96.34,4.06.97l-.97,2.35c-1.07-.58-2.12-.86-3.1-.86-1.33,0-1.8.45-1.8,1.01,0,1.71,6.34.43,6.34,4.55,0,1.95-1.63,3.61-4.95,3.61-1.84,0-3.66-.5-4.71-1.23Z"/>
    </g>
  </g>
  <g>
    <path class="cls-1" d="M431.63,223.49c-.25.52.48.47,1.26.21-.07-.39-.19-.77-.34-1.15-.25.36-.61.62-.92.93Z"/>
    <path class="cls-1" d="M433.79,221.42c-.09-.62-.19-1.19-.37-1.76.05.38.05.74.06,1.13-1,.72-.93-.68-.98-1.07-.23.8-.04,1.08.29,1.24.33.17.81.17.99.45Z"/>
    <path class="cls-1" d="M434.11,218.48c.36-.83-.41-.8-.73-.52.27.14.4.8.73.52Z"/>
    <path class="cls-1" d="M472.66,210.34c.25-.05.39-.19.57-.09-.16-.25-.25-.3-.57.09Z"/>
    <path class="cls-1" d="M473.23,210.25s.05.1.08.16c0-.04,0-.07-.02-.12-.02-.02-.04-.02-.06-.03Z"/>
    <path class="cls-1" d="M463.3,196.6c-.84.67-1.42.42-2.3.77l-.63-.8c-.96.42-.34.79-1.01,1.34-.99-.44-2.91.32-3.38.33-.36-.36.32-.6.44-.87-1.19.44-.99,1.26-2.53,1.47l-.06-.23c-3.5,1.74-8.4,2.01-12.64,4.5.32-.07.31.13.49.25-.56.23-1.14.55-1.72.87-.58.28-1.17.72-1.75,1.15-.59.39-1.1.98-1.61,1.49-.44.58-.91,1.14-1.21,1.76-1.35,2.47-1.43,4.85-.94,6.74.22-1.14.96-2.61,1.81-3.99.85-1.4,1.77-2.64,2.35-4.04,1.11-.1,1.92-1.59,2.68-.93,1.64-.58,2.69-1.16,3.75-1.83,1.06-.64,2.15-1.3,3.77-1.62.5.07.34.53.55.91-.82.31-1.64.58-2.45.92.53-.01,1.07,0,1.6.02-.59.49-2.24.6-2.23,1.4,1.91-1.48,5.58-1.3,7.35-2.65-.94-.07-2.04.31-3.13.43-.52-.2-1.29-.28-1.32-.7,2.92-1.76,5.62-1.46,8.72-2.23.78-.19,1.85-.26,2.03.14-.5.21-.06.5-.46.75,1.07-.49-.08-1.51,1.54-1.55v1.47c.42-1.6,1.99,0,2.97-1.07.5.5-.19.97-1.06,1.13,1.04.1.99-.75,1.77-.86l-.53,1.35c.64-1.32,1.55-.03,2.11.25,0-.31-.63-1.13.43-1.29.48.06.32.41.46.56,0-.31.22-.93,1.04-1.18.18.37-.43.75-.39,1.18.5-.16.94-.39,1.31-.11.95-.23-.05-.62.59-.98.79.29.72.69.57,1.08-.17.41-.4.88-.27,1.38-.46.2-.92.26-1.26.59-.39.27-.54.46-.89.7.42-.14.48-.24.72-.36.21-.09.41-.3.65-.29-.04.49.68.99.08,1.37.44.31.85.46,1.34.65.14.05.22.09.36.15.16.06.3.17.45.25.29.17.59.38.82.59.07-.23,0-.5.27-.64.64.46.04.65-.21.92.48.22,1.25-.12,1.96.03-.15.68-.18.99-.27,1.3-.08.29-.24.6-.82.9l.86.1c-.4.27-.29.46-.2.71.05.12.1.26.1.4-.04.12-.15.25-.38.35-.19-.05-.2-.39-.27-.64-.13.67-.93.07-1.03.78-.11-.39-.33-.61-.52-.88-.05.08-.08.17-.13.26-.09.16-.2.35-.3.48-.2.26-.41.34-.63-.05.02,1.65-1.48,3.39-1.8,5.05l-.57-.46c.34,1.15-1.53,2.6-.95,3.72l-.32-.04.07,1.87c-.43.59-1.26-.16-1.02.04-.61,1.47-1.17,2.56-2,3.22.71.71.09,2.26-.53,3.4-1.97,2.42-3.81,4.97-6,6.84-1.09.94-2.24,1.59-3.65,1.92-1.4.33-3.03.34-4.56.63-.94.03-2.07,1.24-2.85,1.95,1.22-.03,1.23-.54,2.48-.62.96.25,1.22,1.27,2.02,1.95l-.37-.85c1.38-.58.9.51,2.1-.27l-.09,1.32c.43-.65,1.6-.12,2.19.14.12-.32.23-.63.34-.97,1.18.32,1.99.24,2.63.89l-.4-.74c.29.16,1.36-.28,2.13-.66.81-.35,1.4-.59,1.26.4.17-.35.17-.87.79-1.21l.6.59c.66-.81,1.34-1.65,1.85-1.52-.24.51-.11.91,0,1.3,1.6-1.44,1.21-2.08.78-2.66-.44-.6-.88-1.15.11-2.42l.4.37.06-1,1.06-.27c-.8-1.99,2.64-3.55,2.73-5.66.24-.69,1.66-.96,2.23-2.2l-.77-.34c1.28-.53,3.7-3.77,5.86-3.62-.08-1.16-.2,0-.77-.35.2-2.09,1.4-1.51,2.31-2.09.23-1.16-.72.56-.94-.27.72-.57.69-.98.67-1.47,0-.25,0-.48.1-.76.05-.14.13-.28.24-.44.06-.08.12-.16.2-.24.11-.11.22-.23.35-.37.31-.03.21.25.1.51-.05.19-.15.41-.08.58.02-.22.03-.4.13-.66.2-.38.39-.75.6-1.14.21-.4.47-.79.66-1.24.16-.49.36-.98.49-1.5.55-2.09.45-4.53-.34-6.47-.1-.59-.34-1.19-.57-1.83-.3-.65-.58-1.26-.94-1.8-.72-1.16-1.54-2.17-2.9-3.27-1.26-1.04-2.76-1.86-4.34-2.36-.78-.26-1.6-.45-2.39-.6-.8.08-1.59.15-2.36.23l-.06.32c-.17-.01-.33-.02-.47-.03-.08-.02-.16-.03-.25-.05-.16-.02-.32-.02-.48-.01-.31.02-.63.11-.94.19-.63.15-1.24.37-1.99.3l.76.33Z"/>
    <path class="cls-1" d="M445.85,207.31l.41.62,1.24-.79c-.68-.42-.87.11-1.65.17Z"/>
    <path class="cls-1" d="M445.59,205.12l-.66.54c.39-.13.79-.27,1.19-.38l-.53-.16Z"/>
    <polygon class="cls-1" points="464.24 203.4 464.03 203.32 461.32 204.32 464.24 203.4"/>
    <path class="cls-1" d="M472.02,209.99c-.25-.28-.09-.4-.28-.59.04.18.17.39.12.62l.16-.03Z"/>
    <path class="cls-1" d="M463.12,219.1c.88,1.06-.49.84.85.85.19-.78-.58-.44-.85-.85Z"/>
    <path class="cls-1" d="M463.33,222.52c.25-.36.21-.67.16-.97-.78.21-.22.56-.16.97Z"/>
  </g>
  <g>
    <path class="cls-1" d="M386.64,375.88c-.02-.06-.04-.11-.07-.15-.03.08-.02.13.07.15Z"/>
    <path class="cls-1" d="M488.53,338.2c-.61-.03-.28,0-2.61-.19-1.72-.08-1.66-.25-3.61-.31-1.11.09-2.78-.22-4.56-.12.95-.11-2.12-.05-.57-.18-.73-.08-3.79.06-5.19.02.23-.04.17-.08.5-.11-1.95.16-1.35-.06-2.8-.02l.07.18c-.56.08-.73-.04-1.23.01.4,0,1.24.06.8.15-.67.08-1.25.14-1.94.22-.01-.07.48-.16.82-.19,0,0-.39.02-.8.03-.41.02-.83.03-.89-.02.55-.11,1.27-.19,1.76-.3-2.07.06-.17-.06-1.19-.15.2.14-.62.2-1.52.26.11-.66.22-1.32.31-1.98.49.89,2.13-8.48,1.73-1.66,2.4-12.76,1.32-28.22-.85-40.19.06,1.74.21,3.95-.18,3.63-1.1-6.18-.44-5.58-.24-6.93-.28-1.14-.58-1.96-.85-2.57-.27-.61-.58-1.15-.84-1.53-.26-.36-.54-.72-.84-1.16-.03-.14-.06-.28-.09-.42l-.4-1.35c-.13-.45-.35-.74-.52-1.11-.35-.7-.67-1.38-.95-2.01-.25-.68-.56-1.13-.77-1.56-.25-.41-.44-.77-.51-1.06.64.53,1.06.84,1.43,1.01.36.2.63.34.93.42-.41-.96-.87-1.49-1.35-2-.47-.5-.96-.89-1.41-1.2-.9-.64-1.72-.88-2.31-1.02-1.22-.21-1.67.14-2.03.47-.36.33-.68.68-1.63.92-.48.13-1.12.25-1.96.53-.84.26-1.88.7-2.97,1.5v-.77c-.39.36-.7.81-1.04,1.22-.3.53-.57,1.11-.84,1.65l-2.37,1.98c-.41,1.49-1.22,2.87-2.22,4.88-.59,1.08-.93,1.66-1.38,2.39-.45.71-.92,1.45-1.44,2.19-2.04,2.96-4.38,6.04-5.47,8.71-1.1,1.95-3.79,3.65-6.15,7.1l.96.36c-1.4,1.08-4.13,4.04-7.06,6.67-2.93,2.64-6.08,4.87-7.92,5.01-1.58,2.55.37-.04.86.54-1.72,2.37-2.99,3.24-4.07,3.65-.66.33-.74,0-.98-.03-.21-.18-.35-.28-.44-.44-.09.27-.08.35.08.47.12.12.43.12.36.58-.66-.22-.78.03-1.3.19-.24.09-.54.11-.87-.03-.31-.15-.68-.51-.74-1.08.43-.38.55.3.99.18-.4-.05-.75-.32-.9-.77,0-.13-.07-.24-.07-.39,0-.08.01-.15,0-.23,0-.09-.03-.12.02-.34.1-.71.25-1.47.48-2.26.87-3.19,2.69-6.78,4.35-9.96,2.3-3.43,5.38-7.71,8.8-11.85,3.42-4.15,7.28-8.16,11.01-11.35l-.13-.38c3.47-2.26,6.09-5.89,10.01-8.62l-2.11,1.1c1.96-2.5,3.58-3.31,5.75-5.31l1.93-.17c2.36-2.16.62-1.53,2.19-3.33,2.75-1.17,7.61-4.98,8.87-5.61,1.07-.08-.69,1.18-.94,1.67,3-2.21,2.36-2.95,6.57-5.41l.21.2c.59-.44,1.19-.89,1.8-1.34l.46-.33.12-.08.42-.28c.55-.37,1.12-.89,1.6-1.51.99-1.26,1.47-2.96,1.38-4.43-.08-1.48-.6-2.82-1.54-3.98-.92-1.15-2.42-2.08-3.99-2.33-.77-.13-1.52-.12-2.17-.01l-.25.04h-.04s-.07.03-.07.03l-.14.04-1.15.3c-.77.19-1.55.39-2.34.58-3.15.77-6.44,1.49-9.76,2.2-1.66.35-3.34.71-5.01,1.07l-2.51.54c-.53.11-.59.14-.75.18l-.48.13c-1.29.36-2.7.77-4.43,1.32.32,0-.06.29-.15.51-.6.14-1.21.28-1.83.42-1.88.43-3.81.87-5.74,1.31-1.1.26-2.2.51-3.3.77-1.18.27-2.47-.22-3.18-1.01-1.09-.95-.64-2.83-.11-4.15.3.04.63-.04.66-.22.01-.34-.23-.29-.38-.42.03-.06.05-.11.08-.16.14.02.29.07.41-.1.18.28-.12.87.43.75l-.03-.19s-.06.15-.15.15c-.23-.09-.04-.24-.05-.33l.54-.21c.22.28-.11.39-.1.48.34-.3.53-1.02,1.01-1.04l-.1-.09c.61-.02-.07-.72.58-.45.14-.2-.26-.28,0-.48.08-.05.1.09.11.14.42-.11-.02-.38.48-.3l-.27-.28c.52-.02,1.27.3,1.52-.04-.03-.05-.07-.07-.1-.09v.04s-.25,0-.25,0v-.05s.25,0,.25,0c-.14-.08-.3-.02-.45-.13.73.17,1.13-.61,1.69-.62,0,.29.5.37.33.71-.26-.28-.26,0-.43.06.66.56.77-.93,1.21-.37l-.09-.29c.09,0,.36.09.3.23l.37-.44c-.28-.09-.88-.31-.83.02-.29-.18.08-.29-.22-.52.56.22.09-.29.46-.4.07.45.62.29.71.47.06-.13.4-.11.56-.04.21-.08.46-.63.83-.69-.18-.04-.45-.08-.58-.32.23.04.38-.06.25-.34-.81-.17.2.71-.46.68-.3-.23-.47-.23-.77-.17,0-.24-.09-.29-.17-.52.69.46.81-.41,1.39-.33.28.09.4.56.81.41l-.2.39c.24-.39.2.14.53.03l-.24-.14c.15-.15.24-.15.43-.06l-.34-.23c.07-.1.22-.25.34-.06-.02-.09-.05-.16-.09-.22.05.04.12.05.22-.03-.09,0-.12.05-.18-.04.47-.18-.11-.41.17-.54-.09-.05-.07-.19,0-.28.3.51.86.26,1.17.45h0s.48-.02.48-.02c-.1,0-.1-.18-.03-.3h-.02c.07-.13-.47-.45-.04-.51l.27.04s-.06-.09-.07-.14l.27.03c0-.64.69-.06.88-.49-.07.1-.24.15-.27-.04.03-.1.16-.1.25-.06l-.05-.05.82-.07c-.15-.14-.51.06-.47-.23-.05-.29.28-.15.41-.2.07.14-.07.39.18.33-.01-.08.1-.34-.05-.38.3,0,.66-.1,1,.02.03-.1-.1-.09-.15-.09v.05c-.17,0-.22-.33-.39-.04-.29-.42.29-.34.48-.54l-.54-.08c.24-.96,1.44-.81,2.04-1.16-.09.24-.32.2-.09.53.47-.06.38-.11.79-.26h-.04c.08-.29.55-.11.49-.49-.2-.14-.16.34-.4-.04l.48-.25c-.28-.14-.48.25-.69.31-.12.1.29-.1.38.18-.44.25-.69.07-1.12-.16-.29-.18.03-.38.11-.44.52.23,1.03.16,1.35-.28l.06-.43c.37.13.59.7.94.4l-.24-.14c.04-.13.07-.19.12-.22-.26-.06-.55-.12-.8-.19-.05-.57.76-.17,1.14-.27-.05-.05-.17,0-.28-.09.42-.4,1.24-.18,1.65-.34.04-.29-.39.06-.48-.27.26,0,.33-.39.54-.16-.31-.33.43-.3-.16-.43.6-.59,1.59-.72,2.43-.93-.1-.09-.16-.19-.18-.28-.24.15-.66.26-.95.08.04-.29.53.03.51-.11-.14-.04-.3.06-.41-.13.08-.34.38-.11.54-.16l-.02.14c.61-.02.65.51,1.07.11.03-.34-.12-.19-.29-.47.18.04.36-.49.66-.26l-.28.2c.25-.04.44-.16.65-.15-.05-.05-.1-.11-.16-.11.22,0,.41-.16.61-.02l-.14-.33c-.01.19-.29.39-.44.25-.13-.28.26-.3.37-.39-.61.26-.91-.21-1.27.28l.14.04c-.16.41-.69.22-.95.38.04-.11-.02-.23-.08-.26-.43.59-1.1.75-1.67,1.29l-.38-.18.13.24c-.21.24-.26-.07-.37-.13.01.01.03.03.05.05-.53-.03-.08.34-.33.39.25.18.46-.16.56.22-.53-.03-1.02.46-1.41-.06-.55.64-1.62.82-2.23,1.12-.02.14.1.05.11.14-.42-.18-.63.69-.81.41-.06.15.02.38.03.48-.23-.05-.45,0-.66.07h.18s0,.04,0,.04h-.26s0-.02,0-.02c-.51.2-1.01.6-1.62.55.36.04.15.38.33.42-.49-.32-1.01-.02-1.4.28.06.09.07.19.17.24l-.35-.04.1.09c-.38.35-1.16.13-1.32.52.21-.05.27.04.38.18-.32.18-.61.35-1.06.43.04.02.07.04.09.07-.07.1-.25.05-.38.06l.13.24c-.25,0-.42.27-.75.22.07.3-.67.09-.86.35-.13,0,.37.13.09.28-.34-.47-.36.2-.71-.32l-.12.34-.21-.23c.1.62-.44-.03-.65.31.05.05.09.05.1.09-.13,0-.38.11-.29-.14-.16.1-.78.31-.37.44-.11-.14.19-.15.32-.15.13.24-.17.29-.08.58-.02-.02-.08-.04-.12-.06l.05.16c-.45-.07-.65.3-1.07.11.03.08.01.16-.1.21l-.18-.28-.32.2.4.32c-.3.3-.84-.02-1.17.08.21.52-.67.16-.67.74h.3c-.54.2-.44.53-.99.64.29-.39.35-.3.67-1.03-.44.54-1.13.32-1.47.91.1.09.28.09.22.28-.25-.18-.48.3-.58-.03-.1.19.03.48-.04.58l-.75-.03.05.05c-.5,1.21-1.96.58-2.7,1.42l.11.14-.36-.09c.27.04.04.24.11.38l-.78.02c.07.14.29.42.39.28-.13.29-.55.11-.75.21l.15.09h-.26s.12.2.12.2c-.38.11-.65.55-.96.32l.22.28-.49-.03.32.09c-.34.3-1.07.41-1.15.47l.1.09c-.03.1-.12.05-.21.05l.15.14c-.61.3-.53.78-1.28,1-.15.15.13,0,.19.09-.01.19-.32.2-.41.16.21.23.43-.01.36.33-.23-.04.25.18-.04.29l-.31-.28c-.11.15.13.28-.11.39-.35,0,.08-.58-.36-.37-.14.11-.07.6-.2.89-.72.32-1.42.68-1.95,1.25-.41.49-.71,1.05-.84,1.64-.1.59-.05,1.19.15,1.73.41,1.09,1.45,1.88,2.73,2,1.29.1,2.62-.42,3.99-.76,1.37-.39,2.78-.82,4.2-1.31.09.36,1.89-.06,3.28-.36,1.42-.31,2.51-.51,2.09.1.36-.05.72-.1,1.02-.14,4.33-.66,8.08-1.72,11.04-2.66.74-.24,1.49-.47,2.25-.71.89-.25,1.81-.51,2.76-.78,1.91-.51,4-1.01,6.45-1.47,1.5-.08.88.55,1.39.95l-8.01,1.97,5.01-.5c-2.06.85-7.29,1.47-7.77,2.5,3.49-1.21,8.04-2.1,12.52-3.01,2.23-.45,4.44-.91,6.46-1.4,1.02-.24,1.95-.51,2.89-.76.55-.08,1.1.4,1.17.97.04.29-.03.61-.22.86-.08.13-.21.23-.31.32l-.23.2c.15-.08.33-.13.6-.36.23-.21.4-.53.43-.86.07-.65-.32-1.36-1.04-1.56-.35-.11-.74-.02-.89,0l-.62.12c-.41.08-.83.16-1.26.25-1.69.34-3.45.71-5.17.99-1.57-.05-3.95.14-3.89-.38,2.39-.81,4.7-1.46,6.98-2.03,1.14-.28,2.27-.54,3.4-.79l.42-.09c.47-.08,1.07-.1,1.65.08,1.19.36,2.02,1.34,2.29,2.37.32,1.02.04,2.41-.8,3.26-.2.22-.41.38-.64.53l-.29.18-.37.22c-3.95,2.38-8.05,4.57-12.13,7.46-2.07,1.44-4.92,3.32-5.53,3.18,1.25-1.1,0-.72.98-1.69-2.69,2.42.7,1.64-3.56,4.52l-.5-1.77c-.55,2.67-5.26,3.6-7.37,6.86-1.46.35.13-1.56,2.31-3.42-2.69,1.85-2.28,2.78-4.21,4.48.28-.91.57-1.82.88-2.72-1.17,2.86-3.89,3.08-5.36,3.85.11.39,1.93.19-.63,2.52-1.18.92-.9.12-1.29.22.13.4-.31,1.72-1.85,3.41-.64-.03.5-1.62.27-2.06-1.19,1.26-2.07,2.37-3.23,3.02-1.74,2.57.65.32-.19,2.08-3.36,3.29-1.59-.76-3.52-.14,1.82-3.18,4.86-6.73,5.98-8.36-1.56,1.73-3.04,3.52-4.5,5.32-.14-.71-3.87,2.89-1.83-.25-5.1,4.87-9.67,12.13-12.81,18.05.68-.7,1.43-1.66,1.63-1.3-1.57,3.09-1.94,2.41-2.68,2.8-.97,2.43.04,2.68-.08,4.4-1.62,2.11-2.35,3.45-3.04,4.7-.69,1.27-1.38,2.39-2.69,4.46l1.03.03c-.88,1.45-.96,2.45-.97,3.47,0,.13,0,.28,0,.41-.03.11-.07.22-.11.38-.05.2-.11.42-.17.74-.05.35-.09.77-.13,1.25.11-.62.25-1.18.39-1.56,0,.14,0,.26-.02.41,0,.69-.16,1.47-.17,2.53-.1.13-.24-.2-.4-.75-.12-.53-.18-1.32-.22-1.97-.07,1.91-.14,2.84-.2,3.79,0,.92-.02,2,1.16,3.69-.45-.36-.85-.77-1.22-1.24-.4-.45-.76-.94-1.06-1.48.4,1.75,1.53,3.68,2.5,4.8.91,1.17,1.54,1.78.51,1.51,1.32.94,2.98,1.8,4.88,2.38,1.9.57,4.1.79,6.28.35.53-.13,1.07-.28,1.59-.44.52-.17,1.01-.43,1.5-.65.51-.21.92-.54,1.37-.83l.65-.45.45-.38c1.2-1.01,2.28-2.04,3.14-3.07l.31.87c.7-1.31,2.52-3.05,4.18-4.85,1.66-1.79,3.18-3.63,3.44-4.92l.52-.08c.82-1.62,1.64-3.22,2.39-4.84,1.53-1.82,2.07-.4,1.9-.77,2.97-4.32,5.18-7.73,7.42-10.26-.48-1.33,2.23-6.06,4.37-9.81.63-.97,1.25-1.94,1.88-2.92.5-.78.92-1.42,1.36-2.14l1.28-2.11c.4-.71.86-1.42,1.51-1.94.64-.52,1.47-.85,2.31-.81.83.06,1.63.46,2.18,1.08.56.62.86,1.42,1,2.23l.48,2.46.54,3.11c.25,1.99.48,4.07.65,6.24.38,4.6.57,9.52.52,14.48-.1,8.37-.96,17-2.92,24.24-.2,0-.49.01-1,.08.63.27-2.25.24-2.22.64h-1.5c-1.23.46.48.62-1.99,1.14-2.3.28.06-.73-1.32-.71l-.5.34c-.39,0-.77.02-1.15.05l.16-.06c-.64.22-1.87.41-1.91.28.08-.13.8-.28.88-.4-1.03.47-4.56.24-5.51,1.27-.69.03-2.02.36-1.92.08-.5.46-2.97.61-3.77,1.09.08-.15-.81-.12-1.44.16.92-.11.41.17-.12.53-.86-.06-2.96.82-3.43.49-1.11.6-.56.79-.71,1.18-.86-.03-3.27.8-3.03.15.67-.16,2.18-.5,1.78-.76-.16.02-.28.05-.39.07.02-.02.06-.03.08-.05-.07.03-.12.05-.18.07-.26.07-.34.13-.4.21-.04.03-.07.06-.09.08.01,0,.02-.01.03-.02-.07.08-.2.18-.56.32.04-.12-.81-.08-.67-.3-.58.26-1.43.54-2.33.74,1.44-.22-.72.66.18.6l1.14-.82c1.56-.56.44.18,1.08.1-2.7,1.05-1.96,1.39-4.4,2.58-.51.09-1.42.27-1.69.35.83-.35.46-.79-.06-.71-1.24.97-2.67.68-3.88,1.05,1.06-.28.68.27.37.54-2.27,1.31-1.03.2-2.2.39-1.86.78-3.45,1.3-4.93,1.81-1.49.5-2.86,1.02-4.23,1.92l1.65-.16.22-.69c1.27-.14.33,1.15-.12,1.76-.24-.09-1.98.88-1.4.26l-1.63,1.06c.37.08,1.44-.56.75.06-.65.12-2.47.93-1.52.07-.92.46-1.98,1.23-1.62,1.41-1.44.8-.2-.7.35-1.23-1.18.58-1.26.08-.98-.24l-1.59.9c.28-.32.17-.51.45-.83-1.18.36-1.63,1.31-2.77,1.41l-.16.64c-3.12,1.27-2.86,1.06-5.58,2.6l.64.04c-1.67,1.76-1.81.39-4.35,2.33-1.4,1.14-2.24,1.96-1.7,2.31-.72.77-1.13.61-1.65.7-.48.72-1.5,2.25-2.75,2.72.58-.67,1.05-1.21,1.65-1.77-.56-.34-2.33,1.56-3.59,2.14-.55.83-2.48,3.27-3.35,4.85.92-.13,1.18.62.42,2-.05-.22-.49.04-1.05.42-.54.4-1.18.94-1.65,1.2.11-.63-2.36,1-.86-.68.61-.32,1.2-.14,1.69-.9-.65.09-2,.75-3.33,1.56-.07-.23.31-.95.87-1.5-.18.42.08.33.24.4.76-1.03.6-1.16.2-1.07.03-.08.04-.14,0-.17-.04.08-.07.14-.09.19-.48.14-1.21.51-1.24.19-.46.59-1.64,1.7-.84,1.4-.87.21-1.55,1.14-2.2,2.09-.64,1-1.23,2.05-2.07,2.46.04.11.9-.44.37.6-.93,1.5-1.24,1.14-1.83,1.63-.11.52-1.31,3.17-1.3,2.85-.38,1.19,1.5-.68,1.06.99.02.63-.2,1.32-.52,1.96-.16.33-.32.66-.48.99-.13.37-.23.75-.28,1.13-.93,1.67.11-1.91.29-2.53l-.39,1.15c-.12.4-.19.85-.29,1.27-.18.86-.35,1.75-.36,2.41-.27.6-.41.44-.45-.03-.02-.24-.02-.55.01-.89.07-.41.17-.84.29-1.22-.22.46-.47,1.13-.53,1.53-.08.46-.13.91-.13,1.34-.01.85.19,1.58.44,1.86-.24,1.08-.08,1.7-.35,2.76-.28-1.05-1.3-1.03-1.34-2.75.32-2.74.65,1.05,1.01-1.25l-.56-.26c.23-.46.27-.9.27-1.35,0-.23-.01-.46-.02-.7,0-.25.06-.6.12-.91.32-.69.16.2.13.7.26-1.14.57-2.24.9-3.09.33-.84.58-1.65.62-2.54-.42.62-.8,1.38-1.15,2.17-.37.75-.56,1.82-.78,2.68-.25.98-.26,1.52-.4,2.1-.12.55-.26.99-.45,1.27.08,1.78.25,3.59.65,5.45.27-.03.63-1.93,1.09-.42-.66.65-.91,2.34-.47,4.69.26-.52.64.36,1.08,1.18.39.82.94,1.57.96.9-.79-.89-.29-1.61-.29-1.76.71,2.05.72.06,1.17,1.15.69,1.84.68,1.85.51,1.88-.11.01-.38.06.71,1.88-.83-.47-2.74-2.16-3.7-4.34-.13.13.03.69.3,1.35.3.67.6,1.42.71,1.98-.35-1.49,1.12.57.69-.57.96,1.5,2.37,2.93,4.04,4.05,1.68,1.13,3.56,1.83,5.36,2.38-.23.22-.74.27-1.4.13-.65-.11-1.43-.35-2.15-.68-1.44-.57-2.66-1.36-2.53-.36.95.66,1.52.82,2.02.94.5.11.92.29,1.66.66.25.3.66.58,1.18.85.51.23,1.13.41,1.79.58.66.15,1.34.22,2.02.32.66.06,1.33.11,1.95.16l-1.05-.47c.98-.12,2.61.18,3.65.25-.09.05-.18.1-.27.15.34-.06.67-.15,1-.23.16.02.19.06.19.1,1.11-.32,3.8-.29,5.71-.83-.1-.55-1.91.31-2.9.33-.28-.1-2.14-.16-1.28-.62,2.49-.2,3.99-1.17,6.57-1.71-.28.02-.57.02-.85.02.74-.53,1.86-.65,3.05-.98,2.26-.26-1.39,1.18,0,1.12-.75.69-2.4.56-2.49,1.27.54.15,1.06.26,1.6.39,1.09-.74,2.54-.45,3.34-.8l-.97-.06c0-.62.94-.43,1.37-.48l-.84-.65c-1.29.24-1.96,1.22-3.03.96,2.22-.85,1.48-1.4,4.12-2.23.22.28-.46.3-.66.61.97-.07,1.69-1.04,3.21-1.29-.74.5-1.99,1.26-.77,1.34l.56-.88c.69-.15.51.19.78.11.98-.23-.45-.55,1.08-.95.26.04.81-.01.64.21,1.69-.64.73-.52,2.16-1.44-1.39.57-1.8-.33-.41-1.01,2.05-.74,3.17-1.84,4.85-1.74l.7-.79c-.31.81,1.33-.39,1.98-.61.5.52-2.94,1.38-2.48,2.37,1.34-.52.92.05.62.51,1.36-.76.2-.94.63-1.63.13.26,2.4-1.08,1.84-.15,1.19-.56,1.09-1.27,2.01-1.6-.01.3,0,.68.23.94,0-.25,1.23-.57,1.45-.67-.26,0,.14-.71-.78,0,.02-.59,2.36-1.28,2.1-1.63.39.48,2.21-1.06,3.36-1.43-.77-1.16-1.67,1.55-2.57.73.58-.59,1.74-1.25,2.99-1.98,1.25-.75,2.61-1.66,3.56-2.59,2.06-.95.28.44.94.63-1.67,1.29-2.33,1.22-3.76,2.37,1.81-.84,4.58-2.63,5.5-3.85,1.72-1.29,2.79-.2,4.66-2.11-.53-.13-.55-.25-1.29.12.46-.55,1.2-.92,1.8-1.39.2-.5-1.12.45-.44-.38.37-.18,1.09-.67,1.14-.33l-.11.14c1.72-1.83,2.05-.34,3.17-2.36-.27-.05-.45.46-.93.7-.51,0,.19-1.21.85-1.95.05.33.7-.51,1.27-.9.67.07-1.21,1.24-1.27,1.71l1.5-1.19-.35.21c.42-.57.81-1.17,1.21-1.75-.95,1.1-.9.03-.48-.44,1.11-.9,2.21-1.81,2.46-1.31-.22-.49,1.01-1.75,1.82-2.73-1.09.85-.44-.2-.28-.59.6-.37,1.22-.72,1.79-1.11-1.37,1.68.65,0,.56.6-.03.85-1.17,1.59-2.02,2.37,2.27-.93,1.83-2.63,3.45-3.78.18.16.26.48-.35,1.09.35-.15.85-1.64,1.93-2.44-.36.15-1.2.39-.48-.72l1.53-.94c1.37-1.46-.03-.93.82-2.36l-.99.57c-.27-.44,1.4-1.69,1-2.1.3-.37.59-.75.88-1.13.24-.18.52-.37,1.06-.79.68.45-.87,2.78.18,3.19,1.24-1.81,2.87-4.51,3.93-5.5.92-1.74.29-1.96-.23-1.99.38-.71.65-.99,1.03-1.35l-.3.9c1.14-2.11,1.65-3.4,2.99-5.5.63-1.26-.05-1.02-.52-.93l.72-1.34-.2.15c-.23-.54.61-1.6,1.14-2.45.18.1-.1.65.03.67.61-.68,1.23-1.88,1.42-2.61.17.1.25.85-.4,1.71-.1.07-.13-.01-.23.06l-.69,1.69c.86-1.91,1.88-2.74,2.27-2.46.81-1.94-1.25,1.23-.19-1.02,2.38-2.42,2.7-5.55,4.59-6.64.46-1.56.82-3.49,1.49-5.81-.31-.1.32-1.59-.15-1.48-1.04,2.03-.65,4.35-2.04,5.8-.29,1.01.14.83.12,1.35-.37.84-.79,1.56-1.05,1.56.73-1.97-.52-.88.61-3.3-.41.19-1.25,2.16-1.78,2.94-.02-.33-.33-.17-.75.3.03-.6.36-1.65.54-2.45.39-.5.39.1.68-.27-.06-.14-.07-.46-.04-.93.16-.6.32-1.2.44-1.79.5-.68.82-.81.84-.32.67-1.36.93-3.93,1.42-3.8.37-1.63-.22-.08-.52.46.17-.68.33-1.34.49-1.96.51-.07,1.01-.14,1.52-.21h0s0,0,0,0c.32-.04.63-.08.95-.12-.05.32-.09.65-.15.97-.57,3.4-1.39,6.39-1.84,8.17,1-3.03,1.73-6.1,2.28-9.18,1.37-.16,2.73-.3,4.08-.4l-1.48.24c1.15-.19,3.2-.31,3.86-.36l-.17.03c2.16-.06,2.43-.33,4.09-.25l-.33.03c2.6-.16,4.15-.07,6.7-.16,2.01-.02,1.78.06,3.17.09,1.04,0,1.65,0,1.78,0h-.56c-.61-.05,1.22,0,2.06.03ZM442.19,236.72l-.2.1-.05-.29.25.18ZM440.13,238.07l-.1.19-.02-.14.12-.05ZM438.12,238.61c.14.04.54.08.52.27-.25.09-.61.42-.69.67-.02-.06-.06-.11-.11-.16.11,0,.22-.1.24-.21-.1-.09-.22,0-.31-.04.03-.38.95.16.35-.54ZM435.48,241.75c-.13.29-.53.21-.7.02h.35s-.23-.1-.23-.1l.58.08ZM434.83,241.24c.22,0,.17.15.25.19-.1-.02-.21-.07-.25-.19ZM435.06,240.04l.15.04c-.16.26-.11.07-.15-.04l-.17-.05c.11-.05.15-.01.17.05ZM435.17,240.37c-.12.1-.43.35-.39.3-.07-.19.25-.34.39-.3ZM434.78,241.98l-.17-.15.2.14h-.03s.04.05.04.05l-.5.16.46-.19ZM433.42,242.05c.27.04.11-.15.18-.24l.09.29c-.35,0-.46-.13-.84-.31.17-.29.5.08.57.27ZM432.79,241.46c-.04.21.15.59-.24.33l.24-.33ZM427.3,246.69l.15-.15.04.24-.19-.09ZM427.62,245.67c.09.05.12-.1.21-.05-.1.28-.26-.02-.42-.03.1-.06.11-.11.21.08ZM427.51,246.06c-.14.19-.53.54-.64.07.27.33.51-.11.64-.07ZM426.48,244.64c-.05.08-.03.23-.15.06l.15-.06ZM425.73,245.1c.15.09.39-.01.51.18-.32-.09-.13.53-.41.16.09,0,.13,0,.17-.05-.1-.09-.34-.18-.26-.28ZM424.55,246.72l.15.14-.03.05h.26c-.11.38-.56.06-.73.06.12-.05.68.17.35-.25ZM421.18,250.47c.05-.13.11-.26.16-.37.03.13-.03.32-.16.37ZM422.39,247.53c-.23-.05-.09.33-.41.08-.02-.38.25-.14.41-.08ZM422.04,247.94c-.18.25.3.23.2.43l.11-.1c-.08.34-.28-.14-.39.01l.07-.1c-.04-.24-.23-.04-.34-.18.06-.15.41-.16.34-.06ZM420.17,250.22h0s0,0,0-.01c0,0,0,0,0,.01ZM416.89,251.02c-.05.24-.1.2-.23.2-.02-.1.1-.19.23-.2ZM416.58,251.03c-.12.34-.32-.09-.49-.03.08-.29.28.09.49.03ZM372.53,406.51c-.28-.11-.5-.21-.66-.3-.15-.14-.3-.29-.45-.44-.16-.43.38-.8-.3-1.3.19-.36.37-.38.56-.35.28.36.59.71.93,1.04-.03.04-.04.1-.04.17.4.29.17.88-.04,1.19ZM429.41,384.1h-.13c.21-.16.43-.33.64-.5-.14.16-.3.33-.51.5ZM443.27,376.57c-.14,0-.18-.08-.17-.18.55-.66,1.1-1.32,1.64-1.99-.6.78-.67,1.46-1.46,2.17ZM443.09,376.36c.08-.37.87-1.17,1-1.66.75-.77,1.07-1.08,1.36-1.31-.77,1-1.55,2-2.36,2.98ZM452.59,346.92c-.41.77-.7,1.45-1.18,2.33-.46.87-.93,1.75-1.41,2.64-1.91,3.53-3.99,7.15-6.66,10.5l1.42-1.56,1.35-1.63c-2.19,4.19-4.1,6.51-6.59,9.57-.35.32-.64.74-.95,1.18-.2.25-.39.49-.6.75-.9.52-1.78,1.06-2.69,1.55-1.88,2.14-2.18,2.74-2.33,3.21-.14.48-.12.84-1.51,2.43-2.13,1.58-5.24,4.22-8.24,6.49-2.96,2.32-5.81,4.23-6.87,4.89-1.7.56,1.49-1.7,2.05-2.38-2.74,1.98-3.91,3.1-5.35,4.2-1.42,1.12-3.02,2.39-6.88,4.27l-.24-.17c-2.17,1.36-4.59,2.46-7.02,3.71-2.45,1.2-5.07,2.23-7.7,3.36-1.35.49-2.71.99-4.08,1.49l-2.07.74-.4.14c-.68.17-1.36.32-2.06.45.03-.11.3-.24.43-.3-1.29.19-2.48.41-3.64.6-.75-.09-1.48-.24-2.14-.52-6.52-1.85-5.45-12.39-1.09-20.07.52-.55,1.05-1.05,1.6-1.47.66-.82,1.29-1.58,1.82-2.3.57-.7,1.05-1.36,1.37-2.02-.38.44-1.74,1.46-1.26.42.03-.08.08-.15.12-.22.5-.54,1.01-1.07,1.55-1.59.43-.04,1.69-1.1.65.1.89.35,2.85-2.68,3.38-1.99.19-.45,2.25-1.99,2.79-2.9.38.16-.98,1.04-.81,1.25.28-.28.57-.54.86-.81l.15.2c1.93-1.18,1.67-2.27,2.7-3.17v.11s.69-.63.69-.63l-.51,1.15c1.14-.91,1.43-1.83,2.7-2.86l.25.08.7-.72c-.12.12-.12.23,0,.22.25-.56.94-1.11,1.59-1.64.76-.48,1.52-.95,2.29-1.41.29-.05.57-.18.8-.49.04-.02.08-.05.12-.07l.21.64c-1.8,1.23-.96-.03-2.76,1.43,1.91-.11,5.85-2.68,8.57-4.31,2.01-1.66,6.03-3.01,6.58-4.37l-.07.49c1.32-.57,2.65-1.12,3.99-1.64,1.61-.89,3.29-1.66,4.89-2.38,1.58-.75,3.06-1.46,4.26-2.22l.81-.03c2.25-2.06,8.76-3.92,10.43-5.5.1-.04.19-.08.29-.12,1.21-.2-.54.57-.64.8,1.16-.36,2.92-1.56,4.15-1.5.04.14-1.58.66-.83.51.91,0,1.12-.65,2.15-.66-.5-.15,1.36-1.07,2.78-1.5q-.27.06-.39.06c-.26-.14.82-.4,1.4-.59,0,0-.04.07-.19.13,2.67-.87,5.53-1.66,8.47-2.34-.33.23.09.37.82.4-.05.15-.09.3-.14.45l.24.39c-.7,1.56-1.4,3.13-2.12,4.73ZM463.11,337.38s.02-.06.03-.09l.02.09s-.03,0-.05,0ZM463.42,337.36c.02-.19.04-.37.06-.56.03.22.08.39.14.55-.07,0-.13,0-.2.01ZM464.96,330.12l-.02.24c-.1-.04-.14-.19-.15-.42.06.07.11.13.18.18ZM465.25,337.51c-.28.02-.55.04-.8.07,0-.02,0-.04.01-.06.26-.03.62-.05.78-.1-.26-.04-.5-.06-.74-.07.38-1.64.72-3.4.72-4.36.19-.31.35-.49.5-.51-.1,1.66-.25,3.37-.48,5.04Z"/>
    <path class="cls-1" d="M380.82,416.45c-.16.06-.31.13-.38.22.13-.03.37-.14.38-.22Z"/>
    <path class="cls-1" d="M411.32,406.33c-.06-.04-.09-.09-.13-.13,0,.05.02.09.13.13Z"/>
    <path class="cls-1" d="M443.27,258.71l.57-.18,2.28-.71c-1.01-.16-1.73-.05-2.53.14-.47.11-.96.23-1.52.36-.62.13-1.33.27-2.15.38.3.23.64.45,1,.67l1.6-.44.76-.21Z"/>
    <polygon class="cls-1" points="441.22 255.84 438.78 256.69 442.7 255.91 441.22 255.84"/>
    <path class="cls-1" d="M436.61,271.76c2.14-2.16,4.39-4.21,6.69-6.24-2.48,2.11-4.92,4.26-7.24,6.54l.56-.3Z"/>
    <path class="cls-1" d="M398.35,319.19c.12-.74.25-1.48.27-2.12-.15.8-.26,1.63-.35,2.46-.03.45-.09.78-.1,1.32-.01.54-.01,1.07,0,1.6l.19-.92c-.18-.88-.1-1.6-.01-2.35Z"/>
    <path class="cls-1" d="M436.56,315.93c-1.4,2.24.47.8.41,1.7-.18-2.24,2-2.64-.41-1.7Z"/>
    <path class="cls-1" d="M440.94,308.39c-.89,1.19-1.19,2-1.47,2.8,1.69-1.22,1.09-1.73,1.47-2.8Z"/>
    <path class="cls-1" d="M445.87,234.88s-.06.01-.08,0c0,.06.03.04.08,0Z"/>
    <path class="cls-1" d="M445.87,234.88c.3,0,.65-.22.86-.36-.29-.32-.69.2-.86.36Z"/>
    <path class="cls-1" d="M445.73,234.26l-.34.06c.16-.05.24.14.34-.06Z"/>
    <polygon class="cls-1" points="445.54 234.7 445.77 234.74 445.7 234.6 445.54 234.7"/>
    <path class="cls-1" d="M440.2,239.31c-.11-.01-.26-.04-.43-.07.14.09.29.3.43.07Z"/>
    <path class="cls-1" d="M427.44,244.17l-.04-.12c-.06.06-.02.09.04.12Z"/>
    <path class="cls-1" d="M430.29,242.67s.03,0,.05,0c0-.04-.03-.09-.07-.15l.02.14Z"/>
    <path class="cls-1" d="M433.49,243.54h-.13s0,0,0,0c.05.05.09.05.13,0Z"/>
    <path class="cls-1" d="M426.17,244.28c.09.08.18.13.25.17-.03-.09-.14-.17-.25-.17Z"/>
    <path class="cls-1" d="M431.35,244.26s-.01,0-.02,0c0,0,0,0,0,0,0,0,.01,0,.02-.01Z"/>
    <path class="cls-1" d="M431.07,242.12c.07,0,.12-.02.18-.03-.06-.03-.13-.03-.18.03Z"/>
    <path class="cls-1" d="M445.2,235.57c-.08-.05-.15-.07-.22-.07.06.07.13.13.22.07Z"/>
    <polygon class="cls-1" points="425.77 247.74 425.76 247.74 425.77 247.75 425.77 247.74"/>
    <path class="cls-1" d="M440.68,236.57s.07-.02.09,0c-.02-.02-.04-.03-.09,0Z"/>
    <path class="cls-1" d="M429.4,246.44s-.02,0-.03,0c0,0-.01,0-.02,0h.04Z"/>
    <path class="cls-1" d="M445.06,236.06c.08-.05.4.04.15-.15-.15-.09-.07.1-.15.15Z"/>
    <path class="cls-1" d="M444.62,235.91c-.1.03-.19.02-.28-.02.16.07.24.06.28.02Z"/>
    <path class="cls-1" d="M444.91,235.68c-.21.03-.22.17-.29.23.1-.03.2-.1.29-.23Z"/>
    <path class="cls-1" d="M442.67,236.99c.29.14.4.32.69.22-.1-.09-.69.07-.36-.32,0,0-.14.2-.33.11Z"/>
    <path class="cls-1" d="M442.07,237.25c-.16.04-.43-.17-.53.06.15.09.3.23.47.18-.15-.13-.03-.17.07-.24Z"/>
    <path class="cls-1" d="M438.07,241.01s-.19.2-.06.19l.24-.15c-.06-.09-.14-.04-.18-.04Z"/>
    <path class="cls-1" d="M436.63,241.05l.19.33c.13,0-.12-.19.08-.29l-.27-.04Z"/>
    <path class="cls-1" d="M436.01,239.39v.03s.05-.02.08-.03h-.08Z"/>
    <path class="cls-1" d="M436.52,242.25l-.35-.28s.13.28.35.28Z"/>
    <polygon class="cls-1" points="435.76 242.7 435.58 242.66 435.34 242.81 435.76 242.7"/>
    <polygon class="cls-1" points="434.6 243.12 434.59 243.03 434.3 243.18 434.6 243.12"/>
    <path class="cls-1" d="M424.76,248.58c-.08-.48.46-.11.31-.54-.06.15-.53.26-.31.54Z"/>
  </g>
</svg>