<?xml version="1.0" encoding="UTF-8"?>
<svg id="Layer_1" xmlns="http://www.w3.org/2000/svg" version="1.1" viewBox="0 0 792 612">
  <!-- Generator: Adobe Illustrator 30.3.0, SVG Export Plug-In . SVG Version: 2.1.3 Build 182)  -->
  <defs>
    <style>
      .st0 {
        fill: #fff;
      }
    </style>
  </defs>
  <path class="st0" d="M529.3,310c.6,0,1,.4,1,.6-1.2,1.7-2.9,3.2-4.6,4.4h-.6c-1.2,0-5.7,3.1-7.5,4.8v.8c0,1.1-1.5,2.9-2.9,2.9s-1-.8-1.5-.8c-3.1,0-.6,4-4.6,4h-.8c-1,.2-2.9,2.7-3.2,3.6h-1.3c-2.9,0-3.2,2.5-5.7,2.9h-2.1c-.6.6-1.3.8-2.3.8-4,0-9.2-2.9-10.3-4.8,0,.6-.2.6-.8.6,0-.2-8-5.5-8-10.9s0-1,.2-1.3h1l.2-1.9h-.8c-3.4,0-2.1-2.1-4.6-2.1,0-1.7,1.3-2.3,1.7-3.4.8.4,1.1.6,1.1,1,0,.6-.4.8-.6,1.1,1.9-.6,3.1-2.3,3.1-5.2h1v-.6c-.6-.2-.6-.6-.6-1.1,0-1.1,1.7-2.5,1.7-4.2s0-1-.4-1c-1.7,0-.8,3.2-2.9,3.2,0,0-.2-.4-.6-.4.4.4.6,1.1.6,2.3,0,1.7-1.3,1.7-1.3,2.3s.2.6.6.6c-.6.8-1,1.1-1.1,1.1-.6,0-1-1.1-1-2.9,0-4,2.7-4.6,2.7-6.3-.4-.8-.4-1.3-.4-1.9,0-2.3,1.1-3.1,2.7-5.7.6.4.8.6.8,1,0,1.1-1.7,3.1-1.9,4.8.8-.4,1.1-1.3,1.9-1.7l.4-1.3c.2-1,1.1-1,1.3-2.1,0-.6-1.1-1.1-1.1-1.9,0,.2,5.7-5.9,6.3-7.6-.2,0-.2-.4-.2-.4,0-.2.8-1.1,1.3-1.1h1.1l.4-1.9c.8-2.1,3.1-3.4,4.6-3.4h.6c2.3-.8,4.2-1.7,5.7-3.1v-.6c2.3-1.1,5.2-2.1,8-2.1s10.1,3.2,10.1,6.3-1.7,1.3-1.7,2.5,2.9,1.1,2.9,3.2-.2.8-1.2,1.1c.4.6.6,1.1,1.2,1.3,0,.4-.2.4-.2.4-.4,0-.6-.4-1-.4,0,1.7-.8,1.9-1.2,2.9,0,.6.4,1.3.4,1.7,0,.8-.6,1.1-2.1,1.1h-.6c0,.6.4.8.4,1.3,0,0-8.6,8.6-11.1,8.6h-1.1c-1.1,0-1.5-.6-2.3-1-2.1,0-.4,2.3-3.8,2.3s-1.9-.2-1.9-.8,0-.4.2-.6c-2.9-.4-6.3-2.1-8.6-2.1s-.6,0-.6.6.4,1,.4,1.1c0,1.5-1.7.6-1.7,1.7s.2,2.3.2,3.4c0,4.2-1.9,8.6-1.9,13.4s.8,5.7,3.6,6.3h13c1.3-1.1,3.4-1.5,5.7-1.5,5.4-1.1,10.5-5.4,15.1-6.5,5.5-.8,2.1-2.9,10.9-7.5h.6,0ZM486.5,292.7c-.4.6,4.2,1,5.5.6,14.5-3.4,14.5-8.8,15.5-11.1l.6-2.7c-1.1-1.1-2.3-2.5-4-2.5s-1.7.2-2.3.6h-1.9c0-.4-.4-.6-.6-.6-.6,0-1.7.6-1.7,1.3,0,1.1,1.3,1,1.3,2.1-.6.6-1.9.2-2.3,1.3h-1.1c-1.3,0-1.9,1-3.1,1.5-1.5,1.1-3.1,2.1-4.4,3.8.2-.2.4-.2.6-.2.4,0,.6.2.4.6l-2.5,5.2h0ZM490.1,287c0-1.1,1.9-3.4,3.1-3.4s.6,0,.6.4c-.6,1.3-1.9,1.3-2.5,3.1-.6.2-1,.2-1,.2-.1,0-.2,0-.2-.2h0Z"/>
  <path class="st0" d="M578.8,289.1c0,.4.2.8.4,1.2-.2.6-1.2,2.2-1.8,2.6,0-.2-.2-.8-.4-1.2-.6,1.6-2.6,3.6-4,4.4-.8.2-1-.4-1.4-.8.6-4.2,1-6.2,1.4-10.4.2-.6.2-1.8.6-3-3.2,1.8-7.2,4.6-9.6,6l-4.6,3.2c-4.2,3-6,4.8-10.2,7.8-2.8,4-1.4,1.4-6.2,6.8-2.4,6.4-7.6,7.2-9.2,14.6-.6,2.2-2.2,3.2-5.2,10.6-.2-2.8-.4-3.6-1-3.4-1.4.6-3.8,6.4-6.8,6.4s-.7-1.7-.8-5c0-2.8,1.2-6,1.2-7.8s2-2.2,3.4-5l.2-.4c2.6-3.4,1.6-5.2,2.2-7.6,0-.6,0-1.2-.4-1.4,1.4-6.6,4.6-11,5.6-14.2l1.6-5c1.4-4.6,1.6-6.8,1.6-9.6-.2-2.4.4-4.6-1-6.2,0-1,.2-1.2.8-1.2s1.6-.2,2.6.4h.6c2.2,0,1.6,1,3.2,1.6h1.2c.8,0,1.2,3,1.4,6,.4-.8,1-1.2,1-1.2.2,0,.2.4.2.6,0,1.8-.6,3.4-.6,4v2.4c0,1.4-.6,1.8-.6,3.2-.6,4-1.8,3-2.6,5.4-.6,1.6-1.6,3.6-2.4,4.8-1,1.8-4,7.6-4,9.4s.6,1,.8,1c0-2.4,8-9.8,9.8-12.2,1-1.2,1.6,0,2.2-1.6-.2,0,.6,0,.6-.6s.6-1,1.6-1.8c2.4-1.8,3.8-2.6,6.8-3.6h1.4c.4-1.4,2-3,4.2-3.8.6-.2,1.4-2,2-1.8.8,0,1.2-.2,1.4-.8l-.2-.2c.4.2,2,.2,3.4-.6l1.4-.6c1.4-.8,2.4-1,3.6-1.2.2-1.2.8-2.2,1.4-3.2,1,.8,2.8.4,5.2.4,3.4,6.2.6,7.2-2,12.6h0ZM521.5,317.6l-.6,1.4h-1.2l.8-2.2,1,.8h0ZM523.5,315.2l-.8,2.2-.2-2.4.2-2.4.8-1.4,1.6-1.8.2,2.4-.6,1.4-1.2,2h0ZM565.7,281.7v-.2.2ZM576.1,294.1c.2,0,1-.4,1.2-.4-.4,1.4-1.6,2.6-2.6,3,0-.8,1.4-2,1.4-2.6h0Z"/>
  <path class="st0" d="M579.7,334.1c-1.3-.2-2.5-.4-3.8-.8-2.1-.4-4.2-1.1-6.2-1.9-1.3-2.1-.9-6.6,2.3-10.6,1.7-.4.2-.6,1.9-1.1.6,2.1-.2-1.5,1.5-.6.9-.8,1.3-.8,2.6-1.3,0,2.1.8,1.5-.2,1.7-.8.2-5.1,4,.4,5.1,1.5,1.1,5.5.8,8.1.8,4,.6,10.2.6,12.8-3.2.8-.9.8-2.1.8-3.8-1.3-.6-3-1.3-4.5-2.1-3-4.7-1.5-.8-3-1.5-1.5-.9-2.1-4.1-5.7-3.4l-2.1-1.5c-.8-.8-1.7-1.5-2.3-2.3-1.7-1.9-2.6-4-2.8-6-4.3-5.9,2.3-11.1,5.5-14.9-.6-.6-.9-1-1.3-1.5h2.6v-2.3c2.8-1.1,7.7-6.4,12.5-9.6,1.1-1,2.5-1.7,3.4-2.1,1.5-.6,2.8-.8,3.8-.2,3.2.6,12.7,8.1,13,11.1-.6.8-.4.6-.8,1.9-3.8-2.1-7.4-2.5-12.3-1.1-.9.4-.8-1.5-2.1-.9-.9.6-1.9,2.5-3,3-1.1.9-2.1,0-3.2-.2-.9.9.8,1.3-.2,2.3-.4.4-1.3,1.1-2.3,2.3l-1.5-.8-1.1,3.2c-1.5,1.5-3,2.8-3.4,3.4-.8,1.1-1.5,2.3-2.1,3.4-.8,1.7-1.3,3.6-1.3,5.5.6.6.2.2.6,1.3,8.1,3.6,20.2,10.8,21,21.1-1.3,1.5-3,2.8-4.9,3.8-.9.6-1.9.9-2.8,1.3-1,.4-1.7.8-2.6.9-.6.2-1.1-.9-1.7.6-1.5-1.1-3,.6-4.5.8-1,.2-2.1.2-3,.4-1.1,0-2.3.2-3.4,0-3.6-1.5-5.1-1.5-4.5-.2h0ZM580.6,317c1-.2,1.5-.4,1.9-.2-.9,1.1-3.2,2.5-4,1.3.8-.4,1.5-.8,2.1-1.1h0ZM582.7,324.7c0-.4-1.3-1.1-1.3-1.5.4.6,2.6.6,3,1.5h-1.7ZM595.2,308.3c.4-.6.4-.2.6-1.3,1.5-1.1,3.6-1.3,4.9-.4-2.3.8-4.2,1.5-5.5,2.3v-.6h0ZM596.5,309.6c1.5-.8,2.8-1.5,3.8-2.3-1.3,1.3-3.4,3.6-3.4,2.3h-.4,0ZM600.8,305.1c-.2.2-.8-.4-.6-.4.6,0,1.5-.6,1.3-.4l-.8.8h0ZM621.2,298.6c3-1.1,4.3-2.1,8.7-2.6-7,3.6-19.5,7.2-27.9,10.2,4.7-4.1,16.6-8.1,19.3-7.5h0ZM634.6,292.6c-.2.4-.6.8-.9,1.1.6-.8.9-1.3.9-1.1Z"/>
  <path class="st0" d="M284.1,224.7c.2-.6-.6,9.3-7.9,12.1h-.6c-2,0-2.4,6.3-4.8,7.3h-1c-3.4,1.2-4.6,6.9-9.3,6.9h-.6c-.8,1.6-1.4,3.4-3,4-5.6,2-3,2-6.3,3.2v1h-1c-.8-.4-1.2-1.8-1.4-1.8-.6,0,.8,2.4-3.6,2.4s-3.4-.6-3.4-2.8c-1.2-.2-1.6-.2-1.8-.8-.2-.6,1.6-1.6,2-1.8h-1c-2.4,0-1.8,3.6-4.6,3.6-.2.2-.6.2-.6.6l1.6.2c.2-.6,1.4-1.2,2.4-1.2s1.8.6,1.8,1.8c-.6-.2-1.6-.2-2.2-.2s-1.4.2-2,.6c0,1.4,2,.8,2.2,2-1.4-.6-2-.8-2.6-.8s-.8.2-1.4.6c.6,0,1.4.2,1.4.8l-2-.8c-.8.6-2.2.8-4,.8s-1.2-.2-1.8-.2l-.6.6v.8l.6.4c0-.6.6-1,1.2-1s2,1,2,1.6-1.4.8-2.4.8-1.2-.2-1.8-.8l-.4.2-1.2,2.4c-1,0-1.8-.4-2.4-.4s-1,.4-1.2.6c.2,0,.8.4.8.6,0,.4-.4.4-.6.4l-1.2-1.2c-1,1.8-2.2,2.8-4,2.8h-.6s-7.3-1-7.7.8c0,.8-2.2.2-2.8.2-1.2,0-2.6-.6-3.8-.6s-.7.1-.8.4l-1.6-.4c0,1-.6.8-.6,1.2s-.4.2-.6.2c-2.6,0-4,.6-4.2.2-.4-.8-.8-.8-1.8-1.2-1.8.6-1.2,4.8-2.8,5.9,0,2-1.8,1.2-1.8,2.4s.2.8.2,1.2c0,1.8-1.6,3.2-1.2,4.4l.2.6c-.8,0-3.6,2.2-5.2,7.1-.2.8,1,1.8,1,2.4s-2,.6-2,2.6v.4c0,1.2-2.4,5.6-2.4,6.3s.2,1,.8,1.2c-2.2,5.2-6.1,11.1-5.9,14.7.6,0,.6.2.6.6,0,.8-3.4,3.2-3.6,3.2l-1.2,5.5c-1.6.8-4.4,3.6-6.7,4.6-3,0-4.8-1.6-5-2.8-.2-1.4,1.8-3.2,2.4-3.8l1.6.2c3.2-.8.8-9.1,3.4-9.3.6-.4,1.2-1.2,1.8-2.2-.2-.2-.2-.8-.2-1.2,0,1.2,2.8-11.9,4.2-11.9s4.4-5,4.4-6.3c-.6-.6-.8-1-.8-1.6,0-2.6.6-5,2.2-5s.8.2,1.6.8c-.2-.2.2-.6.2-.6,0-1.2-1.8-2.4-1.8-3s.2-.6,1.2-.8h.8v-.6c0-1,2-11.5,2.6-11.5s4.6-15.1,5.4-15.1h1c1.4,0,3.4-7.1,4.6-10.7l-.8-.2c-.6-.4-.6-1-1.6-1.2-1.4,0-.8,3-1.8,3.2-.6-.2-.6-.6-.6-1.2,0-2.6,3.8-11.5,5-11.5,0,0,.4.4.6.4v1.8c.6.2.8.6.8,1.2s-.2.8-.2,1.4c1.2,0,1.2-2,1.2-3.2-1-.4-1.4-1-1.4-1.2,0-1.2,1.8-2.4,2.6-3.4l1.2.6c1.2-1.6,2.6-7.3,2.6-10.9s-.2-1.8-.6-2.4c-.6,0-.8.2-1.4.2-2.2,0-5.4,3.4-7.3,2.2l-3.4-.6v-.6c0-1.8-4-3-5-5.6v-.6c0-1.2-3.2-2.4-3.2-3.4s1.6-1.4,2.8-1.4,2,.6,2.4,1.4v1c.8.2,1.4.6,2,.6,1.8,0,2.8-1.2,4.6-1.2h1.2c2.6-.6,4.2-1,6.3-2.4.6.2,1.2.2,1.8.2,2.2,0,5.9-3.2,5.9-3.2,0-1.2.8-2.2.2-2.6l.6-2c3.6-2,1.2-7.3,7.3-8.1,2,1.2,3.8,5.4,3.8,6.1s-2,2-2,3.2.2.8.6,1.2l-1.4,2.8,4.4-.4c1.2,0,3-.8,3.6-1.4l5.9-.6c4-.2,8.5-1,12.5-1,4.8.4,6.9.2,12.3,1.2l6.7,1.2,1.2.2c.2-.6,1.2.8,2.4.8,2,0,3.8.6,4.4,1.8h.6c.2-.4,1-1,2.4-.6s6.7,1.8,6.7,3.6v.2c3.8,0,5.2,4.6,5.9,7.3v3.4h0ZM161.6,312.5c0-.8,1.6-2,2.2-2s.6.2.6.8v1c0,1.4-.4,2-1,2s-1.8-.8-1.8-1.8ZM165.3,306.6c.4-.6,1-.6,1-1.4l.2-1c0-1.4,1-1.4,1-2.6,1,.2,1.4,1.2,1.4,2,0,1.8-1.2,4-2.4,4s-.8-.4-1.2-1h0ZM169.3,300.4c-.6-.6-.8-1.2-.8-1.6,0-1.4,1.6-3,2.2-4.4.6.6.8.8.8,1.4,0,1.2-2.2,2.4-2.2,4.2v.4ZM171.1,290.7c.2-.6.8-.6.8-1.6,1,.4,1,1,1.8,1,0,.8-1,.8-1,1.8-.6-.4-.8-1.2-1.6-1.2h0ZM182,269.1c-1,1.8-3.4,3.4-3.2,5.9l-.2,1.8c-1,3.8-2.8,7.5-4.4,10.9-.4-.6-.4-1.2-.4-2.2,0-4.8,5.4-13.9,5.4-15.9,0,.2.4.2.4.2.6-.2,1.2-.6,1.8-.6h.6,0ZM184.1,261.6c-1-.6-1.6-1.6-1.6-2.4,0-2.2,2.6-4.6,2.6-5.9.8,1,1.2,1.6,1.2,2.4,0,1.8-1,4-2.2,5.8h0ZM271.6,228.9c-1-1,1.8-2.4,1.8-3.2,0-2.2,1-4,1-5.4s-3-3.6-10.1-4.6c-5.2-.4-5.6,0-6.3,0-1.4,0-3.8-1-5.2-1s-.8,1-2.6,1c-.8-.8-1.8.2-3.2,0l-.2-1h-.6c-.4,1-1.4,1.6-2.6,1.6-1.8,0-1.6-.4-3.2-.4-.2.4-.6.4-.8.4-1,0-3.2-1-4.4-1s-1.6.4-2,1.6h-1.2c-5.6,0-11.3,2-11.3,2h-.6c-.8,0-1.4.2-2.4.2s-1.6,1-1.8,1c-3,.4-6.7.6-6.5,1.2.2.4.4.6.8.6-.6,5.4-7.1,13.9-7.1,18s.2.8.8,1.2c-.2.8-5.2,6.3-5.2,9.9s-1.4,2.4-.8,3l-.4,1.8c-.6.4-.6,1.6-1.8,1.6s-.6-1-1-1-.6.4-.8.4h-.4c-.2.2-.2.6-.2.8,0,.6.6,1.2.6,1.8s-.4.6-.4,1c0,1.2-.6,2.4.4,2.4,1.8,0,3.8-1.6,5.1-2.2l3,1.2c1.2,0,4-.8,4.6-.8s1.2.2,2.6.2.6-.8,1.8-.8,2.4,1.2,3.6,1.2.6,0,1-.4l.2-.8,4.2-1.2c.6-.4,3,.2,3.4-.6l3.8-.8,5-1.6c.2.2.4.2.4.4,3.2-2.2,10.1-5.6,10.1-6.1s.4-.2.6-.2h.6c5.9-1.8,7.7-3.2,13.1-6.9h.4c2.6,0,3-3,4.4-4.2.6,0,3.2-3.4,3.8-3.4,2.4,0,2.4-6.9,5.9-6.9h0ZM215.3,216.4c.8,0,.8.8,1.8,1.2,0-1,.6-1.2.8-1.8-.8,0-1-1-1.6-1.2,0,.8-.8,1.2-1,1.8h0ZM221.8,217c.8,0,1.8,0,2.4.4,1.2-.4,1-1,1.2-1.6-.8,0-1-.8-2-1.2.2,1-1.4,1.6-1.6,2.4h0ZM231.3,261.6c.1-.3.2-.5.2-.6-.6,0-1-.2-1.4-.4l-1,1h2.2ZM234.9,260.6c0,.4-.6-1.2-1.2-1.2v1c0,.1,0,.3.2.6.4,0,1,0,1-.4h0ZM247,260.4l.8,1.8-8.9,1.4c0-.4,2-2.4,2-3s.2-.6.8-.8c2.4,0,.8,2,3,2h.8l-.2-.8c0-.4,0-.6.6-.6h1,0ZM277.9,235c0-.6.4-1.2.2-1.8-.2-.8-.4-1.4-.8-2-2,0-4.8.6-4.8,2s0,.5.2.6c-.6,1.2-1.8,1.6-1.8,2.2s0,.8.4,1.2c2.6-1.8,2.4-2.2,4.2-2.2h2.4Z"/>
  <path class="st0" d="M266.1,327.7c-.8,0-1.6.2-2.1.2-1,.8-.2,1.8-.6,3.9.6.8,0,0,.4,2.1-1.2,0-2.3.2-3.5.4-1.8-2.3-3.9-2.1-5.6-4.5-1.4-2.7-.8-4.7,0-8.2,1.2-4.9,2.3-8.2,4.3-13.4l.6-2.7c0-.2,0-.6.2-.6,1,0,5.1-12.5,5.6-11.7.2,0,.2-.6.2-.8v-1c0-.8,2.7-2.3,2.7-5.8v-.2c0-.6,1.2-1.6,1.4-2.7v-.2c0-.6,1.6-3.5,1.6-5.1v-.6c0-.8,2.3-2.3,2.3-3.7s-.1-.5-.4-.6l1-1.6c0-1.6,1.6-1.2,1.6-3.5,1.6-4.3,3.3-8.8,5.1-13.2,1.4-3.9,3.7-11.1,5.1-15.2,2.1-7,7-14.8,8.2-22.2.2-.8-1.6-1.2-1.2-2.7l2.5-3.1c2-5.1,3.7-10.9,5.5-15.2.6,0,1.4-.2,2.1-.2,1.9-.6,3.9.2,6.8,3.3,1.6,1.4-.4,2.5,0,5.4-1.4,5.1-4.7,11.7-8.2,16.5-7,15.2-16.7,40.9-22.4,58.4-.8,2.3-3.3,4.9-4.1,7-1,2.9-.4,5.5-1.6,8.2-2.7,6.8-8.2,14.6-8.4,23.1.8-.2,1.8,1.2,2.3,1,3.9-4.3,5.2-5.2,6.8-8,11.3-12.3,22.4-20.8,33.9-30.4,3.1-2.5,10.9-9.1,13.8-9.7,1-.6,1.2-.4,3.1-.2,0,1-1,.6-1,1.6-1.6,1.2-2.1,1.8-3.1.6-1.2,2.1-1.4,2.3-2.5,3.1-2.9,1.9-6.2,2.1-9.1,4.1.4,1.6.6.4.2,2-1-.4-.6-2-1.2-.6h-.6c1,1.2-.2.4-2.5,3.3-6.4,6.8-17.5,16.1-27.2,26.3-4.3,5.5-7.2,10.3-12.3,14.8l.4,2.1h0ZM255.2,325l1.6.4v-2.7l1.6-3.3-1.8,1.8-1.4,3.7v.2h0ZM271.2,272l1.8-3.5-.6,2.5-.6.6-.6.4h0ZM273.3,267l-.2-2,1.2-1.8,1.8-1.8.2-3.5,1.2-1.2.2-1,.6.6-1,2.5-.8,2.7-1.4,2.1-1.6,1.2-.2,2h0ZM278.2,255.9l-.8-2.1,1.2-1.6.2.8-.6,2.9h0ZM280.7,247.4l.6-2.5,1-2.5.4,1.6-1,2.5-1,1ZM283.2,242.3l-.2-1.9v-1.8l.8-2.1.8-2.3,1.4-2.3,2.7-6,.8-1.9.4-1.6,1.8-4.5,1-.6-.4,2.5-1.2,2.1-.8,3.3-3.9,7.4-.2,1.9-1.2,2.9-.8,1.6-1,3.3h0ZM302.1,218c1-.2,0-2.5,0-3.9-.8,1.8-1.2,3.1-1.2,3.9v.6c0,1.4-1.8,1.2-1.8,1.8s.8,1.9,1.4,1.9.6-3.7,1.6-4.3h0ZM303.3,212.7h.6c1.4-3.9,6-12.1,4.5-12.1-.4,1.6-3.7,7.6-5.6,12.2.2-.2.4-.2.6-.2h0Z"/>
  <path class="st0" d="M336.1,334.3c2,2,1.8,2.6,4.6,4,1,.2,2.4.8,3.6,1-1.8.6-3.6,1-4.6.6-1.6-.6-5-2.6-5-2.8l-2.2-2c-1.4-1.6-3.2-4.4-3.8-8.4l.6.2c-.6-4.8-2.2-2.4-2.2-10.2s.4-5.2.4-6.4v-1c0-1.2,1-2,1-3.2v-2.4c0-1,0-4.8,1.4-5.8v-1.4c-3.2,1.2-3.2,4.4-5,6v.6l-.6.8c0,.6.6.6.6,2.2h-.6c-.4.2-.6.6-1.6.6h-.8v2c0,1-.4,1.8-.6,2.2-.6-.4-1-.6-1.2-.6-.6,0-1.2.2-1.6.2s-.6,0-.8-.2c0,.8.2,1.4.8,1.4h3.4c-1,1.2-1.8,2.4-3.6,2.8.2.8.6,1.2.8,1.2.6,0,1.2-1,2.2-1.2h.6c-1.6,2.6-2.2,6.6-5.8,7.2h-1.4c0,2-2.8,1.2-2.8,3v1.2c0,3.2-9,7-12.6,8.2l-2.6-.2c-.4,0-.6.4-1,.4-.8,0-6.8-4.6-6.8-6.4s.6-.8.6-1.4c0-1-1.2-2.2-1.2-3.4.2-.8.8-1.8,2-2-.2-.6-.8-1.2-.8-2.4s1.4-.4,1.4-1.2v-.6c1-1,1.2-1.8,1.2-3s0-1.6-.2-2.2c.6-3.8,3.8-7.4,4.2-9.2-1.2,2.4,1.4-5.2,2.6-5.4v-1c0-2.4,1-3.8,2.2-5,1.2,0,.8-7.6,3.6-8.4v-1c-.3,0-.4,0-.4-.2,0-2.2,1.8-3.8,2.4-5.4l.2-.6c.4-1.4-1.4-3.6-1.4-4.8l3.6-.4c2.8,0,6.8.6,7.8,1.6v.6h.8c.4,1.4.2.6.2,2.2s-.8.4-1,2c.6-.4-.6,2.2-3.6,8.4l-1.4,3.2s-3.4,4.8-3.6,5.8v.6c0,3.2-1.6,5-4.2,6.6,0,.2.4.8.6,1.4-.2.2-.6.2-1.2.4v.6c0,1.2-.6,1.4-.6,2.4h-1c-.2.6-.6.8-.6,1.4s.4,1.2.4,1.6c0,2-2.4,2-2.4,4.2v.6h-1c-.2.6-.8,3-.8,5s.2,4.8,1.2,5.2c0-.4,1,1.2,1.8,1.2s2-1.2,2.4-1.2l2.6-2.6,4-3.8c3.8-2,4.8-6.6,8.4-10.8v-2h.6c3.8-4,6.6-10,13.9-16.3h.6c-.4,0,3-4.8,3-8.2s-.6-1.8-.6-2c0-.4.2-.4.6-.4.8,0,3,1.6,3,3v.4h.6c3.2.8,5.4,4.8,5.4,6.2s-4.2,5.8-4.2,6.6.2.6.6,1c-.4.8-1.6,6.6-2.4,7.2h-1v1.2c0-.6-1.4,4.2-2.6,6.6v.6c.4.1.6.3.6.6,0,.6-1,1.2-1,1.8s0,.6.4.6c0,1.4-.6,1.4-.6,2s.2.4.6,1v.8c0,2.4-.2,4.2-.2,6.6v7l1.2,3h0ZM304.6,303.2c0-.2,0-.4-.2-.6.8-.2.2-.2.2.6Z"/>
  <path class="st0" d="M399.8,294h-.6c.4,1.8.6,2.2.6,2.8l-.2,1.4c.2.6.2,1.2.2,1.6,0,2.4-2.2,6-2.2,6.6v1.6c-.6,2.2-1.2,5.6-2.8,5.6v.8c-.4.4-.4.6-.4.8,0,.6,1.2,1.4,1.2,1.4,0,.4-1.6,1.6-1.8,1.8-.4,0-2.6,10.2-2.6,10.4-.6,0-.6.4-.6.8v.6c0,1.2,0,4,.6,6.8h-.6c-1-.4-5.2-9.8-5.4-12.9,0-.2-1.4-7.8-.2-9-.6-.6-1-1.8-1-3,0-1.8,2.2-3,2.2-5v-3.2c2.2-2.8.6-8.6,2.6-9.8l-.4-4.2c-.4,0-.6.2-.6.6h-.6c-1,.4-8,5.2-8.4,6.4-3.4,3.6-7.6,9-11,11.6l-.8.6c-1,2.6-3.8,4-5.6,6.2h-.8l.2,1.6h-1.2c-1.2.2-1.6,1-2,2.2h-.8c-3,4-7.4,9.6-9.4,13.6-.2.2-.4-.2-.4-.6v-.8c0-.4,1.4-.6,1-.6h-2.2c-1.6,1-1,3.4-3.8,3.4v-.8c-1-.4-2.8-2-2.8-3.2s.2-.6.6-.8v-.2c0-7.4,5.2-11.2,5.2-15.7v-.4c.6-1,1.8-1.2,1.8-2.6v-1c.6-1.2,1.4-2.2,2.6-2.8v-.6c0-2,1-3.2,1.6-5.2,0-1,.4-1.2.4-2v-.6s2.8-6.6,4-8.6c-1-.4-1.2-1-1.2-1.4,0-.6,0-1.2.2-1.8.8-.4,1.6-6.4,2-6.4,0-4.2,0-8.4-2.8-8.4h-1c0-.2.2-.4.2-.6,5.2,0,9.4,1.4,10,3.4,4.4,2.4,3.6,4.4,3.6,7.2s0,1.4.4,1.6c0,1-.2,1.6-.4,2.2-.4,2-1.8,7-3.4,8.2v.4c0-.4-1.6,1-2,1.6,0,0,.4,0,.4.4,0,3.2-4.6,8.6-4.6,10.8l-5.8,11.8c2.2-.2,7.6-7.6,8.4-9.4l3.2-4h.6c.8,0,.8-2.2,2.6-2.2-.1-.4-.2-.7-.2-1,0-.8.4-1.2,1.6-1.2h1.8c.6,0,.8-.4.8-1v-1c0-.8,0-1.2.8-1.2h.2c0-2.6,6.4-7,7.2-8v-.6c0-1.4,3-.4,3.2-1.4h.4c0-1.2,1.6-1.6,2.8-1.6h1.6c.8,0,.8-.6,2-.6l-.4-.6c.4-.6,1.4-1.2,2-1.4.6,0,6,.8,6,1.6s-.2.3-.6.4c.4.6,1,.6,1.6.6h1.4l1.6,3.6s.6,2,.6,3.2-.4,1-.4,1h0Z"/>
  <g>
    <g>
      <path class="st0" d="M492.9,352.7c0-3.4,2.6-5.8,6.1-5.8s3.5.7,4.6,2l-1.7,1.5c-.8-.9-1.7-1.3-2.8-1.3-2.1,0-3.6,1.5-3.6,3.6s1.5,3.6,3.6,3.6,2.1-.5,2.8-1.3l1.7,1.5c-1,1.3-2.7,2-4.6,2-3.5,0-6-2.4-6-5.8h0Z"/>
      <path class="st0" d="M507.1,353.4v-6.3h2.6v6.2c0,2.1.9,3,2.5,3s2.5-.9,2.5-3v-6.2h2.6v6.3c0,3.3-1.9,5.1-5.1,5.1s-5.1-1.8-5.1-5.1h0Z"/>
      <path class="st0" d="M521.7,347.1h2.6v9.1h5.6v2.1h-8.2v-11.2h0Z"/>
      <path class="st0" d="M534.5,349.2h-3.6v-2.1h9.8v2.1h-3.6v9.1h-2.6v-9.1h0Z"/>
      <path class="st0" d="M543.7,353.4v-6.3h2.6v6.2c0,2.1.9,3,2.5,3s2.5-.9,2.5-3v-6.2h2.6v6.3c0,3.3-1.9,5.1-5.1,5.1s-5.1-1.8-5.1-5.1h0Z"/>
      <path class="st0" d="M565.5,358.3l-2.2-3.1h-2.4v3.1h-2.6v-11.2h4.8c3,0,4.9,1.5,4.9,4.1s-.8,2.9-2.3,3.5l2.5,3.6h-2.8ZM563,349.2h-2.1v3.9h2.1c1.6,0,2.4-.7,2.4-2s-.8-2-2.4-2h0Z"/>
      <path class="st0" d="M579.4,355.9h-5.2l-1,2.4h-2.7l5-11.2h2.6l5,11.2h-2.7l-1-2.4ZM578.5,354l-1.8-4.3-1.8,4.3h3.5,0Z"/>
      <path class="st0" d="M586.2,347.1h2.6v9.1h5.6v2.1h-8.2v-11.2h0Z"/>
    </g>
    <g>
      <path class="st0" d="M480.4,366.3h3.2v11.2h-3.2v-11.2Z"/>
      <path class="st0" d="M497.8,377.5v-5.9s-2.9,4.8-2.9,4.8h-1.4l-2.9-4.7v5.8h-2.9v-11.2h2.6l3.9,6.5,3.8-6.5h2.6v11.2s-2.9,0-2.9,0h0Z"/>
      <path class="st0" d="M515,377.5v-5.9s-2.9,4.8-2.9,4.8h-1.4l-2.9-4.7v5.8h-2.9v-11.2h2.6l3.9,6.5,3.8-6.5h2.6v11.2s-2.9,0-2.9,0h0Z"/>
      <path class="st0" d="M531,375v2.4h-9v-11.2h8.8v2.4h-5.6v1.9h5v2.4h-5v2h5.8Z"/>
      <path class="st0" d="M539.6,374.5h-1.7v3h-3.2v-11.2h5.1c3,0,5,1.6,5,4.1s-.8,2.9-2.2,3.5l2.4,3.5h-3.4l-2-3h0ZM539.6,368.8h-1.8v3.3h1.8c1.3,0,2-.6,2-1.6s-.7-1.6-2-1.6Z"/>
      <path class="st0" d="M547.7,376.5l1-2.3c1,.7,2.4,1.1,3.7,1.1s1.8-.4,1.8-.9c0-1.8-6.4-.5-6.4-4.6s1.6-3.6,5-3.6,3,.3,4.1,1l-1,2.4c-1.1-.6-2.1-.9-3.1-.9s-1.8.5-1.8,1c0,1.7,6.3.4,6.3,4.5s-1.6,3.6-5,3.6-3.7-.5-4.7-1.2h0Z"/>
      <path class="st0" d="M560.7,366.3h3.2v11.2h-3.2v-11.2Z"/>
      <path class="st0" d="M567.5,371.9c0-3.4,2.6-5.8,6.2-5.8s6.2,2.5,6.2,5.8-2.6,5.8-6.2,5.8-6.2-2.5-6.2-5.8ZM576.7,371.9c0-1.9-1.3-3.2-3-3.2s-3,1.3-3,3.2,1.3,3.2,3,3.2,3-1.3,3-3.2Z"/>
      <path class="st0" d="M594.1,366.3v11.2h-2.6l-4.9-6v6h-3.1v-11.2h2.6l4.9,6v-6h3.1Z"/>
      <path class="st0" d="M597.5,376.5l1-2.3c1,.7,2.4,1.1,3.7,1.1s1.8-.4,1.8-.9c0-1.8-6.4-.5-6.4-4.6s1.6-3.6,5-3.6,3,.3,4.1,1l-1,2.4c-1.1-.6-2.1-.9-3.1-.9s-1.8.5-1.8,1c0,1.7,6.3.4,6.3,4.5s-1.6,3.6-5,3.6-3.7-.5-4.7-1.2h0Z"/>
    </g>
  </g>
  <g>
    <path class="st0" d="M431.6,223.5c-.2.5.5.5,1.3.2,0-.4-.2-.8-.3-1.1-.2.4-.6.6-.9.9h0Z"/>
    <path class="st0" d="M433.8,221.4c0-.6-.2-1.2-.4-1.8,0,.4,0,.7,0,1.1-1,.7-.9-.7-1-1.1-.2.8,0,1.1.3,1.2.3.2.8.2,1,.4h0Z"/>
    <path class="st0" d="M434.1,218.5c.4-.8-.4-.8-.7-.5.3.1.4.8.7.5Z"/>
    <path class="st0" d="M472.7,210.3c.2,0,.4-.2.6,0-.2-.2-.2-.3-.6,0Z"/>
    <path class="st0" d="M473.2,210.2s0,.1,0,.2c0,0,0,0,0-.1,0,0,0,0,0,0h0Z"/>
    <path class="st0" d="M463.3,196.6c-.8.7-1.4.4-2.3.8l-.6-.8c-1,.4-.3.8-1,1.3-1-.4-2.9.3-3.4.3-.4-.4.3-.6.4-.9-1.2.4-1,1.3-2.5,1.5v-.2c-3.6,1.7-8.5,2-12.7,4.5.3,0,.3.1.5.2-.6.2-1.1.6-1.7.9-.6.3-1.2.7-1.8,1.1-.6.4-1.1,1-1.6,1.5-.4.6-.9,1.1-1.2,1.8-1.4,2.5-1.4,4.9-.9,6.7.2-1.1,1-2.6,1.8-4,.9-1.4,1.8-2.6,2.4-4,1.1-.1,1.9-1.6,2.7-.9,1.6-.6,2.7-1.2,3.8-1.8,1.1-.6,2.1-1.3,3.8-1.6.5,0,.3.5.5.9-.8.3-1.6.6-2.5.9.5,0,1.1,0,1.6,0-.6.5-2.2.6-2.2,1.4,1.9-1.5,5.6-1.3,7.4-2.6-.9,0-2,.3-3.1.4-.5-.2-1.3-.3-1.3-.7,2.9-1.8,5.6-1.5,8.7-2.2.8-.2,1.9-.3,2,.1-.5.2,0,.5-.5.8,1.1-.5,0-1.5,1.5-1.6v1.5c.4-1.6,2,0,3-1.1.5.5-.2,1-1.1,1.1,1,.1,1-.8,1.8-.9l-.5,1.4c.6-1.3,1.5,0,2.1.2,0-.3-.6-1.1.4-1.3.5,0,.3.4.5.6,0-.3.2-.9,1-1.2.2.4-.4.8-.4,1.2.5-.2.9-.4,1.3-.1,1-.2,0-.6.6-1,.8.3.7.7.6,1.1-.2.4-.4.9-.3,1.4-.5.2-.9.3-1.3.6-.4.3-.5.5-.9.7.4-.1.5-.2.7-.4.2,0,.4-.3.6-.3,0,.5.7,1,0,1.4.4.3.9.5,1.3.6.1,0,.2,0,.4.1.2,0,.3.2.5.2.3.2.6.4.8.6,0-.2,0-.5.3-.6.6.5,0,.6-.2.9.5.2,1.2-.1,2,0-.1.7-.2,1-.3,1.3,0,.3-.2.6-.8.9h.9c-.4.4-.3.6-.2.8,0,.1.1.3.1.4,0,.1-.1.2-.4.4-.2,0-.2-.4-.3-.6-.1.7-.9,0-1,.8-.1-.4-.3-.6-.5-.9,0,0,0,.2-.1.3,0,.2-.2.4-.3.5-.2.3-.4.3-.6,0,0,1.6-1.5,3.4-1.8,5.1l-.6-.5c.3,1.1-1.5,2.6-1,3.7h-.3s0,1.8,0,1.8c-.4.6-1.3-.2-1,0-.6,1.5-1.2,2.6-2,3.2.7.7,0,2.3-.5,3.4-2,2.4-3.8,5-6,6.8-1.1.9-2.2,1.6-3.6,1.9-1.4.3-3,.3-4.6.6-.9,0-2.1,1.2-2.9,1.9,1.2,0,1.2-.5,2.5-.6,1,.2,1.2,1.3,2,1.9l-.4-.9c1.4-.6.9.5,2.1-.3v1.3c.3-.6,1.5-.1,2.1.1.1-.3.2-.6.3-1,1.2.3,2,.2,2.6.9l-.4-.7c.3.2,1.4-.3,2.1-.7.8-.4,1.4-.6,1.3.4.2-.4.2-.9.8-1.2l.6.6c.7-.8,1.3-1.6,1.9-1.5-.2.5-.1.9,0,1.3,1.6-1.4,1.2-2.1.8-2.7-.4-.6-.9-1.1.1-2.4l.4.4v-1c0,0,1.1-.3,1.1-.3-.8-2,2.6-3.6,2.7-5.7.2-.7,1.7-1,2.2-2.2l-.8-.3c1.3-.5,3.7-3.8,5.9-3.6,0-1.2-.2,0-.8-.4.2-2.1,1.4-1.5,2.3-2.1.2-1.2-.7.6-.9-.3.7-.6.7-1,.7-1.5,0-.2,0-.5.1-.8,0-.1.1-.3.2-.4,0,0,.1-.2.2-.2.1-.1.2-.2.4-.4.3,0,.2.2.1.5,0,.2-.1.4,0,.6,0-.2,0-.4.1-.7.2-.4.4-.8.6-1.1.2-.4.5-.8.7-1.2.2-.5.4-1,.5-1.5.5-2.1.5-4.5-.3-6.5-.1-.6-.3-1.2-.6-1.8-.3-.6-.6-1.3-.9-1.8-.7-1.2-1.5-2.2-2.9-3.3-1.3-1-2.8-1.9-4.3-2.4-.8-.3-1.6-.4-2.4-.6-.8,0-1.6.1-2.4.2v.3c-.2,0-.4,0-.5,0,0,0-.2,0-.2,0-.2,0-.3,0-.5,0-.3,0-.6.1-.9.2-.6.1-1.2.4-2,.3l.8.3h0Z"/>
    <path class="st0" d="M445.9,207.3l.4.6,1.2-.8c-.7-.4-.9.1-1.6.2Z"/>
    <path class="st0" d="M445.6,205.1l-.7.5c.4-.1.8-.3,1.2-.4l-.5-.2h0Z"/>
    <polygon class="st0" points="464.2 203.4 464 203.3 461.3 204.3 464.2 203.4"/>
    <path class="st0" d="M472,210c-.2-.3,0-.4-.3-.6,0,.2.2.4.1.6h.2Z"/>
    <path class="st0" d="M463.1,219.1c.9,1.1-.5.8.9.9.2-.8-.6-.4-.9-.9Z"/>
    <path class="st0" d="M463.3,222.5c.2-.4.2-.7.2-1-.8.2-.2.6-.2,1Z"/>
  </g>
  <g>
    <path class="st0" d="M386.6,375.9c0,0,0-.1,0-.1,0,0,0,.1,0,.1Z"/>
    <path class="st0" d="M488.5,338.2c-.6,0-.3,0-2.6-.2-1.7,0-1.7-.2-3.6-.3-1.1,0-2.8-.2-4.6-.1,1-.1-2.1,0-.6-.2-.7,0-3.8,0-5.2,0,.2,0,.2,0,.5-.1-2,.2-1.4,0-2.8,0v.2c-.5,0-.7,0-1.2,0,.4,0,1.2,0,.8.1-.7,0-1.2.1-1.9.2,0,0,.5-.2.8-.2,0,0-.4,0-.8,0-.4,0-.8,0-.9,0,.5-.1,1.3-.2,1.8-.3-2.1,0-.2,0-1.2-.1.2.1-.6.2-1.5.3.1-.7.2-1.3.3-2,.5.9,2.1-8.5,1.7-1.7,2.4-12.8,1.3-28.2-.9-40.2,0,1.7.2,4-.2,3.6-1.1-6.2-.4-5.6-.2-6.9-.3-1.1-.6-2-.9-2.6-.3-.6-.6-1.1-.8-1.5-.3-.4-.5-.7-.8-1.2,0-.1,0-.3,0-.4l-.4-1.4c-.1-.5-.4-.7-.5-1.1-.4-.7-.7-1.4-1-2-.2-.7-.6-1.1-.8-1.6-.2-.4-.4-.8-.5-1.1.6.5,1.1.8,1.4,1,.4.2.6.3.9.4-.4-1-.9-1.5-1.4-2-.5-.5-1-.9-1.4-1.2-.9-.6-1.7-.9-2.3-1-1.2-.2-1.7.1-2,.5s-.7.7-1.6.9c-.5.1-1.1.2-2,.5-.8.3-1.9.7-3,1.5v-.8c-.4.4-.7.8-1,1.2-.3.5-.6,1.1-.8,1.6l-2.4,2c-.4,1.5-1.2,2.9-2.2,4.9-.6,1.1-.9,1.7-1.4,2.4-.5.7-.9,1.5-1.4,2.2-2,3-4.4,6-5.5,8.7-1.1,2-3.8,3.6-6.1,7.1l1,.4c-1.4,1.1-4.1,4-7.1,6.7-2.9,2.6-6.1,4.9-7.9,5-1.6,2.5.4,0,.9.5-1.7,2.4-3,3.2-4.1,3.6-.7.3-.7,0-1,0-.2-.2-.4-.3-.4-.4,0,.3,0,.4,0,.5.1.1.4.1.4.6-.7-.2-.8,0-1.3.2-.2,0-.5.1-.9,0-.3-.1-.7-.5-.7-1.1.4-.4.5.3,1,.2-.4,0-.8-.3-.9-.8,0-.1,0-.2,0-.4s0-.1,0-.2c0,0,0-.1,0-.3.1-.7.2-1.5.5-2.3.9-3.2,2.7-6.8,4.4-10,2.3-3.4,5.4-7.7,8.8-11.9,3.4-4.1,7.3-8.2,11-11.4v-.4c3.3-2.3,6-5.9,9.9-8.6l-2.1,1.1c2-2.5,3.6-3.3,5.8-5.3l1.9-.2c2.4-2.2.6-1.5,2.2-3.3,2.8-1.2,7.6-5,8.9-5.6,1.1,0-.7,1.2-.9,1.7,3-2.2,2.4-3,6.6-5.4l.2.2c.6-.4,1.2-.9,1.8-1.3l.5-.3h.1c0,0,.4-.4.4-.4.5-.4,1.1-.9,1.6-1.5,1-1.3,1.5-3,1.4-4.4,0-1.5-.6-2.8-1.5-4-.9-1.1-2.4-2.1-4-2.3-.8-.1-1.5-.1-2.2,0h-.2s0,0,0,0h0s-.1,0-.1,0l-1.1.3c-.8.2-1.5.4-2.3.6-3.1.8-6.4,1.5-9.8,2.2-1.7.4-3.3.7-5,1.1l-2.5.5c-.5.1-.6.1-.8.2h-.5c-1.3.5-2.7.9-4.4,1.5.3,0,0,.3-.1.5-.6.1-1.2.3-1.8.4-1.9.4-3.8.9-5.7,1.3-1.1.3-2.2.5-3.3.8-1.2.3-2.5-.2-3.2-1-1.1-.9-.6-2.8-.1-4.1.3,0,.6,0,.7-.2,0-.3-.2-.3-.4-.4,0,0,0-.1,0-.2.1,0,.3,0,.4-.1.2.3-.1.9.4.8v-.2s0,.1-.2.1c-.2,0,0-.2,0-.3l.5-.2c.2.3-.1.4-.1.5.3-.3.5-1,1-1h-.1c.6-.1,0-.8.6-.5.1-.2-.3-.3,0-.5,0,0,.1,0,.1.1.4-.1,0-.4.5-.3l-.3-.3c.5,0,1.3.3,1.5,0,0,0,0,0-.1,0h0s-.2,0-.2,0h0c0,0,.2,0,.2,0-.1,0-.3,0-.5-.1.7.2,1.1-.6,1.7-.6,0,.3.5.4.3.7-.3-.3-.3,0-.4,0,.7.6.8-.9,1.2-.4v-.3s.3,0,.2.2l.4-.4c-.3,0-.9-.3-.8,0-.3-.2,0-.3-.2-.5.6.2,0-.3.5-.4,0,.4.6.3.7.5,0-.1.4-.1.6,0,.2,0,.5-.6.8-.7-.2,0-.5,0-.6-.3.2,0,.4,0,.2-.3-.8-.2.2.7-.5.7-.3-.2-.5-.2-.8-.2,0-.2,0-.3-.2-.5.7.5.8-.4,1.4-.3.3,0,.4.6.8.4l-.2.4c.2-.4.2.1.5,0h-.2c.1-.3.2-.3.4-.2l-.3-.2c0-.1.2-.2.3,0,0,0,0-.2,0-.2,0,0,.1,0,.2,0,0,0-.1,0-.2,0,.5-.2-.1-.4.2-.5,0,0,0-.2,0-.3.3.5.9.3,1.2.4h.5c-.1,0-.1-.2,0-.3h0c0-.1-.5-.4,0-.5h.3s0,0,0-.1h.3c0-.6.7,0,.9-.5,0,.1-.2.1-.3,0,0-.1.2-.1.2,0h0c0,0,.8-.1.8-.1-.1-.1-.5,0-.5-.2,0-.3.3-.1.4-.2,0,.1,0,.4.2.3,0,0,.1-.3,0-.4.3,0,.7-.1,1,0,0-.1-.1,0-.1,0h0c-.2,0-.2-.3-.4,0-.3-.4.3-.3.5-.5h-.5c.2-1,1.4-.9,2-1.2,0,.2-.3.2,0,.5.5,0,.4-.1.8-.3h0c0-.3.5-.1.5-.5-.2-.1-.2.3-.4,0l.5-.2c-.3-.1-.5.2-.7.3-.1.1.3-.1.4.2-.4.2-.7,0-1.1-.2-.3-.2,0-.4.1-.4.5.2,1,.2,1.4-.3v-.4c.4.1.6.7,1,.4h-.2c0-.3,0-.3.1-.4-.3,0-.5-.1-.8-.2,0-.6.8-.2,1.1-.3,0,0-.2,0-.3,0,.4-.4,1.2-.2,1.6-.3,0-.3-.4,0-.5-.3.3,0,.3-.4.5-.2-.3-.3.4-.3-.2-.4.6-.6,1.6-.7,2.4-.9-.1,0-.2-.2-.2-.3-.2.1-.7.3-1,0,0-.3.5,0,.5-.1-.1,0-.3,0-.4-.1,0-.3.4-.1.5-.2h0c.6.1.6.6,1.1.2,0-.3-.1-.2-.3-.5.2,0,.4-.5.7-.3l-.3.2c.2,0,.4-.2.6-.1,0,0-.1-.1-.2-.1.2,0,.4-.2.6,0v-.3c-.2.2-.4.4-.6.2-.1-.3.3-.3.4-.4-.6.3-.9-.2-1.3.3h.1c-.2.4-.7.3-1,.4,0-.1,0-.2,0-.3-.4.6-1.1.8-1.7,1.3l-.4-.2v.2c0,.2-.1,0-.2-.1,0,0,0,0,0,0-.5,0,0,.3-.3.4.2.2.5-.2.6.2-.5,0-1,.5-1.4,0-.5.6-1.6.8-2.2,1.1,0,.1.1,0,.1.1-.4-.2-.6.7-.8.4,0,.1,0,.4,0,.5-.2,0-.5,0-.7,0h.2s-.3,0-.3,0h0c-.5.2-1,.6-1.6.5.4,0,.1.4.3.4-.5-.3-1,0-1.4.3,0,0,0,.2.2.2h-.4s.1,0,.1,0c-.4.4-1.2.1-1.3.5.2,0,.3,0,.4.2-.3.2-.6.4-1.1.4,0,0,0,0,0,0,0,.1-.2,0-.4,0v.2c-.1,0-.3.3-.6.2,0,.3-.7,0-.9.4-.1,0,.4.1,0,.3-.3-.5-.4.2-.7-.3v.3c-.1,0-.3-.2-.3-.2.1.6-.4,0-.6.3,0,0,0,0,.1,0-.1,0-.4.1-.3-.1-.2.1-.8.3-.4.4-.1-.1.2-.1.3-.1.1.2-.2.3,0,.6,0,0,0,0-.1,0v.2c-.4,0-.6.3-1,.1,0,0,0,.2-.1.2l-.2-.3-.3.2.4.3c-.3.3-.8,0-1.2,0,.2.5-.7.2-.7.7h.3c-.5.2-.4.5-1,.6.3-.4.4-.3.7-1-.4.5-1.1.3-1.5.9.1,0,.3,0,.2.3-.2-.2-.5.3-.6,0-.1.2,0,.5,0,.6h-.8s0,0,0,0c-.5,1.2-2,.6-2.7,1.4h.1c0,.1-.4,0-.4,0,.3,0,0,.2.1.4h-.8c0,.2.3.4.4.3-.1.3-.5.1-.8.2h.1c0,0-.3,0-.3,0v.2c-.3.1-.5.6-.8.3l.2.3h-.5s.3,0,.3,0c-.3.3-1.1.4-1.1.5h.1c0,.2-.1.1-.2.1h.1c-.6.4-.5.9-1.3,1.1-.1.1.1,0,.2,0,0,.2-.3.2-.4.2.2.2.4,0,.4.3-.2,0,.2.2,0,.3l-.3-.3c-.1.1.1.3-.1.4-.4,0,0-.6-.4-.4-.1.1,0,.6-.2.9-.7.3-1.4.7-2,1.2-.4.5-.7,1.1-.8,1.6-.1.6,0,1.2.1,1.7.4,1.1,1.5,1.9,2.7,2,1.3.1,2.6-.4,4-.8,1.4-.4,2.8-.8,4.2-1.3,0,.4,1.9,0,3.3-.4,1.4-.3,2.5-.5,2.1.1.4,0,.7-.1,1-.1,4.3-.7,8.1-1.7,11-2.7.7-.2,1.5-.5,2.2-.7.9-.2,1.8-.5,2.8-.8,1.9-.5,4-1,6.5-1.5,1.5,0,.9.6,1.4.9l-8,2,5-.5c-2.1.9-7.3,1.5-7.8,2.5,3.5-1.2,8-2.1,12.5-3,2.2-.4,4.4-.9,6.5-1.4,1-.2,2-.5,2.9-.8.5,0,1.1.4,1.2,1,0,.3,0,.6-.2.9,0,.1-.2.2-.3.3l-.2.2c.1,0,.3-.1.6-.4.2-.2.4-.5.4-.9,0-.6-.3-1.4-1-1.6-.4-.1-.7,0-.9,0h-.6c-.4.2-.8.3-1.3.4-1.7.3-3.5.7-5.2,1-1.6,0-4,.1-3.9-.4,2.4-.8,4.7-1.5,7-2,1.1-.3,2.3-.5,3.4-.8h.4c.5-.2,1.1-.2,1.6,0,1.2.4,2,1.3,2.3,2.4.3,1,0,2.4-.8,3.3-.2.2-.4.4-.6.5l-.3.2-.4.2c-4,2.4-8,4.6-12.1,7.5-2.1,1.4-4.9,3.3-5.5,3.2,1.2-1.1,0-.7,1-1.7-2.7,2.4.7,1.6-3.6,4.5l-.5-1.8c-.5,2.7-5.3,3.6-7.4,6.9-1.5.4.1-1.6,2.3-3.4-2.7,1.9-2.3,2.8-4.2,4.5.3-.9.6-1.8.9-2.7-1.2,2.9-3.9,3.1-5.4,3.9.1.4,1.9.2-.6,2.5-1.2.9-.9.1-1.3.2.1.4-.3,1.7-1.9,3.4-.6,0,.5-1.6.3-2.1-1.2,1.3-2.1,2.4-3.2,3-1.7,2.6.6.3-.2,2.1-3.4,3.3-1.6-.8-3.5-.1,1.8-3.2,4.9-6.7,6-8.4-1.6,1.7-3,3.5-4.5,5.3-.1-.7-3.9,2.9-1.8-.2-5.1,4.9-9.7,12.1-12.8,18,.7-.7,1.4-1.7,1.6-1.3-1.6,3.1-1.9,2.4-2.7,2.8-1,2.4,0,2.7,0,4.4-1.6,2.1-2.4,3.5-3,4.7-.7,1.3-1.4,2.4-2.7,4.5h1c-.9,1.5-1,2.5-1,3.5v.4c0,.1,0,.2-.1.4,0,.2-.1.4-.2.7,0,.4,0,.8-.1,1.2.1-.6.2-1.2.4-1.6,0,.1,0,.3,0,.4,0,.7-.2,1.5-.2,2.5-.1.1-.2-.2-.4-.8-.1-.5-.2-1.3-.2-2,0,1.9-.1,2.8-.2,3.8,0,.9,0,2,1.2,3.7-.5-.4-.9-.8-1.2-1.2-.4-.5-.8-.9-1.1-1.5.4,1.8,1.5,3.7,2.5,4.8.9,1.2,1.5,1.8.5,1.5,1.3.9,3,1.8,4.9,2.4,1.9.6,4.1.8,6.3.4.5-.1,1.1-.3,1.6-.4.5-.2,1-.4,1.5-.6.5-.2.9-.5,1.4-.8l.6-.5.5-.4c1.2-1,2.3-2,3.1-3.1l.3.9c.7-1.3,2.5-3,4.2-4.9,1.7-1.8,3.2-3.6,3.4-4.9h.5c.8-1.7,1.6-3.3,2.4-4.9,1.5-1.8,2.1-.4,1.9-.8,3-4.3,5.2-7.7,7.4-10.3-.5-1.3,2.2-6.1,4.4-9.8.6-1,1.2-1.9,1.9-2.9.5-.8.9-1.4,1.4-2.1l1.3-2.1c.4-.7.9-1.4,1.5-1.9.6-.5,1.5-.9,2.3-.8.8,0,1.6.5,2.2,1.1.6.6.9,1.4,1,2.2l.5,2.5.5,3.1c.2,2,.5,4.1.6,6.2.4,4.6.6,9.5.5,14.5-.1,8.4-1,17-2.9,24.2-.2,0-.5,0-1,0,.6.3-2.2.2-2.2.6h-1.5c-1.2.5.5.6-2,1.1-2.3.3,0-.7-1.3-.7l-.5.3c-.4,0-.8,0-1.1,0h.2c-.6.2-1.9.4-1.9.2,0-.1.8-.3.9-.4-1,.5-4.6.2-5.5,1.3-.7,0-2,.4-1.9,0-.5.5-3,.6-3.8,1.1,0-.1-.8-.1-1.4.2.9-.1.4.2-.1.5-.9,0-3,.8-3.4.5-1.1.6-.6.8-.7,1.2-.9,0-3.3.8-3,.1.7-.2,2.2-.5,1.8-.8-.2,0-.3,0-.4,0,0,0,0,0,0,0,0,0-.1,0-.2,0-.3,0-.3.1-.4.2,0,0,0,0,0,0,0,0,0,0,0,0,0,0-.2.2-.6.3,0-.1-.8,0-.7-.3-.6.3-1.4.5-2.3.7,1.4-.2-.7.7.2.6l1.1-.8c1.6-.6.4.2,1.1.1-2.7,1-2,1.4-4.4,2.6-.5,0-1.4.3-1.7.4.8-.4.5-.8,0-.7-1.2,1-2.7.7-3.9,1,1.1-.3.7.3.4.5-2.3,1.3-1,.2-2.2.4-1.9.8-3.5,1.3-4.9,1.8-1.5.5-2.9,1-4.2,1.9l1.6-.2.2-.7c1.3-.1.3,1.1-.1,1.8-.2,0-2,.9-1.4.3l-1.6,1.1c.4,0,1.4-.6.8,0-.6.1-2.5.9-1.5,0-.9.5-2,1.2-1.6,1.4-1.4.8-.2-.7.4-1.2-1.2.6-1.3,0-1-.2l-1.6.9c.3-.3.2-.5.5-.8-1.2.4-1.6,1.3-2.8,1.4l-.2.6c-3.1,1.3-2.9,1.1-5.6,2.6h.6c-1.7,1.8-1.8.4-4.4,2.4-1.4,1.1-2.2,2-1.7,2.3-.7.8-1.1.6-1.6.7-.5.7-1.5,2.2-2.8,2.7.6-.7,1-1.2,1.6-1.8-.6-.3-2.3,1.6-3.6,2.1-.5.8-2.5,3.3-3.4,4.9.9-.1,1.2.6.4,2,0-.2-.5,0-1,.4-.5.4-1.2.9-1.6,1.2.1-.6-2.4,1-.9-.7.6-.3,1.2-.1,1.7-.9-.6,0-2,.8-3.3,1.6,0-.2.3-1,.9-1.5-.2.4,0,.3.2.4.8-1,.6-1.2.2-1.1,0,0,0-.1,0-.2,0,0,0,.1,0,.2-.5.1-1.2.5-1.2.2-.5.6-1.6,1.7-.8,1.4-.9.2-1.5,1.1-2.2,2.1-.6,1-1.2,2-2.1,2.5,0,.1.9-.4.4.6-.9,1.5-1.2,1.1-1.8,1.6-.1.5-1.3,3.2-1.3,2.9-.4,1.2,1.5-.7,1.1,1,0,.6-.2,1.3-.5,2-.2.3-.3.7-.5,1-.1.4-.2.8-.3,1.1-.9,1.7.1-1.9.3-2.5l-.4,1.1c-.1.4-.2.9-.3,1.3-.2.9-.4,1.8-.4,2.4-.3.6-.4.4-.5,0,0-.2,0-.5,0-.9,0-.4.2-.8.3-1.2-.2.5-.5,1.1-.5,1.5,0,.5-.1.9-.1,1.3,0,.9.2,1.6.4,1.9-.2,1.1,0,1.7-.4,2.8-.3-1-1.3-1-1.3-2.8.3-2.7.6,1,1-1.2l-.6-.3c.2-.5.3-.9.3-1.4s0-.5,0-.7c0-.2,0-.6.1-.9.3-.7.2.2.1.7.3-1.1.6-2.2.9-3.1.3-.8.6-1.6.6-2.5-.4.6-.8,1.4-1.1,2.2-.4.8-.6,1.8-.8,2.7-.2,1-.3,1.5-.4,2.1-.1.5-.3,1-.5,1.3,0,1.8.2,3.6.6,5.5.3,0,.6-1.9,1.1-.4-.7.6-.9,2.3-.5,4.7.3-.5.6.4,1.1,1.2.4.8.9,1.6,1,.9-.8-.9-.3-1.6-.3-1.8.7,2,.7,0,1.2,1.1.7,1.8.7,1.9.5,1.9-.1,0-.4,0,.7,1.9-.8-.5-2.7-2.2-3.7-4.3-.1.1,0,.7.3,1.4.3.7.6,1.4.7,2-.4-1.5,1.1.6.7-.6,1,1.5,2.4,2.9,4,4,1.7,1.1,3.6,1.8,5.4,2.4-.2.2-.7.3-1.4.1-.6-.1-1.4-.4-2.1-.7-1.4-.6-2.7-1.4-2.5-.4,1,.7,1.5.8,2,.9.5.1.9.3,1.7.7.2.3.7.6,1.2.9.5.2,1.1.4,1.8.6.7.1,1.3.2,2,.3.7,0,1.3.1,2,.2l-1-.5c1-.1,2.6.2,3.6.2,0,0-.2.1-.3.1.3,0,.7-.1,1-.2.2,0,.2,0,.2.1,1.1-.3,3.8-.3,5.7-.8-.1-.5-1.9.3-2.9.3-.3-.1-2.1-.2-1.3-.6,2.5-.2,4-1.2,6.6-1.7-.3,0-.6,0-.9,0,.7-.5,1.9-.6,3-1,2.3-.3-1.4,1.2,0,1.1-.8.7-2.4.6-2.5,1.3.5.1,1.1.3,1.6.4,1.1-.7,2.5-.5,3.3-.8h-1c0-.7.9-.5,1.4-.5l-.8-.6c-1.3.2-2,1.2-3,1,2.2-.9,1.5-1.4,4.1-2.2.2.3-.5.3-.7.6,1,0,1.7-1,3.2-1.3-.7.5-2,1.3-.8,1.3l.6-.9c.7-.1.5.2.8.1,1-.2-.5-.5,1.1-1,.3,0,.8,0,.6.2,1.7-.6.7-.5,2.2-1.4-1.4.6-1.8-.3-.4-1,2-.7,3.2-1.8,4.9-1.7l.7-.8c-.3.8,1.3-.4,2-.6.5.5-2.9,1.4-2.5,2.4,1.3-.5.9,0,.6.5,1.4-.8.2-.9.6-1.6.1.3,2.4-1.1,1.8-.1,1.2-.6,1.1-1.3,2-1.6,0,.3,0,.7.2.9,0-.2,1.2-.6,1.5-.7-.3,0,.1-.7-.8,0,0-.6,2.4-1.3,2.1-1.6.4.5,2.2-1.1,3.4-1.4-.8-1.2-1.7,1.5-2.6.7.6-.6,1.7-1.2,3-2,1.2-.8,2.6-1.7,3.6-2.6,2.1-1,.3.4.9.6-1.7,1.3-2.3,1.2-3.8,2.4,1.8-.8,4.6-2.6,5.5-3.9,1.7-1.3,2.8-.2,4.7-2.1-.5-.1-.5-.2-1.3.1.5-.5,1.2-.9,1.8-1.4.2-.5-1.1.5-.4-.4.4-.2,1.1-.7,1.1-.3h-.1c1.7-1.7,2-.2,3.2-2.2-.3,0-.5.5-.9.7-.5,0,.2-1.2.9-2,0,.3.7-.5,1.3-.9.7,0-1.2,1.2-1.3,1.7l1.5-1.2-.4.2c.4-.6.8-1.2,1.2-1.8-1,1.1-.9,0-.5-.4,1.1-.9,2.2-1.8,2.5-1.3-.2-.5,1-1.8,1.8-2.7-1.1.9-.4-.2-.3-.6.6-.4,1.2-.7,1.8-1.1-1.4,1.7.6,0,.6.6,0,.9-1.2,1.6-2,2.4,2.3-.9,1.8-2.6,3.5-3.8.2.2.3.5-.4,1.1.4-.1.9-1.6,1.9-2.4-.4.1-1.2.4-.5-.7l1.5-.9c1.4-1.5,0-.9.8-2.4l-1,.6c-.3-.4,1.4-1.7,1-2.1.3-.4.6-.8.9-1.1.2-.2.5-.4,1.1-.8.7.5-.9,2.8.2,3.2,1.2-1.8,2.9-4.5,3.9-5.5.9-1.7.3-2-.2-2,.4-.7.6-1,1-1.4l-.3.9c1.1-2.1,1.6-3.4,3-5.5.6-1.3,0-1-.5-.9l.7-1.3h-.2c-.2-.4.6-1.5,1.1-2.3.2.1-.1.6,0,.7.6-.7,1.2-1.9,1.4-2.6.2.1.2.9-.4,1.7-.1,0-.1,0-.2,0l-.7,1.7c.9-1.9,1.9-2.7,2.3-2.5.8-1.9-1.2,1.2-.2-1,2.4-2.4,2.7-5.5,4.6-6.6.5-1.6.8-3.5,1.5-5.8-.3-.1.3-1.6-.1-1.5-1,2-.6,4.4-2,5.8-.3,1,.1.8.1,1.4-.4.8-.8,1.6-1,1.6.7-2-.5-.9.6-3.3-.4.2-1.2,2.2-1.8,2.9,0-.3-.3-.2-.8.3,0-.6.4-1.6.5-2.5.4-.5.4.1.7-.3,0-.1,0-.5,0-.9.2-.6.3-1.2.4-1.8.5-.7.8-.8.8-.3.7-1.4.9-3.9,1.4-3.8.4-1.6-.2,0-.5.5.2-.7.3-1.3.5-2,.5,0,1-.1,1.5-.2h0c.3,0,.6,0,1-.1,0,.3,0,.6-.1,1-.6,3.4-1.4,6.4-1.8,8.2,1-3,1.7-6.1,2.3-9.2,1.4-.2,2.7-.3,4.1-.4l-1.5.2c1.1-.2,3.2-.3,3.9-.4h-.2c2.2,0,2.4-.3,4.1-.2h-.3c2.6-.1,4.1,0,6.7-.1,2,0,1.8,0,3.2,0h1.8-.6c-.6,0,1.2,0,2.1,0h0ZM442.2,236.7h-.2c0,.1,0-.2,0-.2l.2.2h0ZM440.1,238.1v.2c-.1,0-.1-.1-.1-.1h.1ZM438.1,238.6c.1,0,.5,0,.5.3-.2,0-.6.4-.7.7,0,0,0-.1-.1-.2.1,0,.2-.1.2-.2-.1,0-.2,0-.3,0,0-.4,1,.2.4-.5h0ZM435.5,241.8c-.1.3-.5.2-.7,0h.4-.2c0-.1.6,0,.6,0h0ZM434.8,241.2c.2,0,.2.1.2.2-.1,0-.2,0-.2-.2ZM435.1,240h.1c-.2.3-.1.1-.1,0h-.2c.1-.1.1,0,.2,0ZM435.2,240.4c-.1.1-.4.4-.4.3,0-.2.2-.3.4-.3ZM434.8,242h-.2c0-.1.2,0,.2,0h0,0c0,0-.5.2-.5.2l.5-.2h0ZM433.4,242.1c.3,0,.1-.1.2-.2v.3c-.3,0-.4-.1-.8-.3.2-.3.5,0,.6.3h0ZM432.8,241.5c0,.2.1.6-.2.3l.2-.3ZM427.3,246.7h.1c0-.1,0,0,0,0h-.2ZM427.6,245.7c0,0,.1-.1.2,0-.1.3-.3,0-.4,0,.1,0,.1-.1.2,0h0ZM427.5,246.1c-.1.2-.5.5-.6,0,.3.3.5-.1.6,0ZM426.5,244.6c0,0,0,.2-.1,0h.1ZM425.7,245.1c.1,0,.4,0,.5.2-.3,0-.1.5-.4.2,0,0,.1,0,.2,0-.1,0-.3-.2-.3-.3h0ZM424.5,246.7h.1c0,.1,0,.2,0,.2h.3c-.1.4-.6,0-.7,0,.1,0,.7.2.4-.2ZM421.2,250.5c0-.1.1-.3.2-.4,0,.1,0,.3-.2.4ZM422.4,247.5c-.2,0,0,.3-.4,0,0-.4.2-.1.4,0ZM422,247.9c-.2.2.3.2.2.4h.1c0,.2-.3-.2-.4,0h0c0-.3-.2-.1-.3-.3,0-.1.4-.2.3,0h0ZM420.2,250.2h0s0,0,0,0ZM416.9,251c0,.2-.1.2-.2.2,0-.1.1-.2.2-.2ZM416.6,251c-.1.3-.3,0-.5,0,0-.3.3,0,.5,0ZM372.5,406.5c-.3-.1-.5-.2-.7-.3-.1-.1-.3-.3-.5-.4-.2-.4.4-.8-.3-1.3.2-.4.4-.4.6-.4.3.4.6.7.9,1,0,0,0,.1,0,.2.4.3.2.9,0,1.2h0ZM429.4,384.1h-.1c.2-.2.4-.3.6-.5-.1.2-.3.3-.5.5ZM443.3,376.6c-.1,0-.2,0-.2-.2.5-.7,1.1-1.3,1.6-2-.6.8-.7,1.5-1.5,2.2h0ZM443.1,376.4c0-.4.9-1.2,1-1.7.8-.8,1.1-1.1,1.4-1.3-.8,1-1.5,2-2.4,3h0ZM452.6,346.9c-.4.8-.7,1.5-1.2,2.3-.5.9-.9,1.8-1.4,2.6-1.9,3.5-4,7.1-6.7,10.5l1.4-1.6,1.4-1.6c-2.2,4.2-4.1,6.5-6.6,9.6-.4.3-.6.7-1,1.2-.2.2-.4.5-.6.8-.9.5-1.8,1.1-2.7,1.5-1.9,2.1-2.2,2.7-2.3,3.2-.1.5-.1.8-1.5,2.4-2.1,1.6-5.2,4.2-8.2,6.5-3,2.3-5.8,4.2-6.9,4.9-1.7.6,1.5-1.7,2-2.4-2.7,2-3.9,3.1-5.4,4.2-1.4,1.1-3,2.4-6.9,4.3l-.2-.2c-2.2,1.4-4.6,2.5-7,3.7-2.5,1.2-5.1,2.2-7.7,3.4-1.4.5-2.7,1-4.1,1.5l-2.1.7h-.4c-.7.3-1.4.5-2.1.6,0-.1.3-.2.4-.3-1.3.2-2.5.4-3.6.6-.8,0-1.5-.2-2.1-.5-6.5-1.9-5.5-12.4-1.1-20.1.5-.5,1-1,1.6-1.5.7-.8,1.3-1.6,1.8-2.3.6-.7,1-1.4,1.4-2-.4.4-1.7,1.5-1.3.4,0,0,0-.1.1-.2.5-.5,1-1.1,1.5-1.6.4,0,1.7-1.1.6.1.9.4,2.9-2.7,3.4-2,.2-.5,2.2-2,2.8-2.9.4.2-1,1-.8,1.2.3-.3.6-.5.9-.8v.2c2.1-1.2,1.8-2.3,2.9-3.2h0c0,.1.7-.5.7-.5l-.5,1.1c1.1-.9,1.4-1.8,2.7-2.9h.2c0,0,.7-.6.7-.6-.1.1-.1.2,0,.2.2-.6.9-1.1,1.6-1.6.8-.5,1.5-1,2.3-1.4.3,0,.6-.2.8-.5,0,0,0,0,.1,0l.2.6c-1.8,1.2-1,0-2.8,1.4,1.9-.1,5.9-2.7,8.6-4.3,2-1.7,6-3,6.6-4.4v.5c1.2-.6,2.6-1.1,3.9-1.6,1.6-.9,3.3-1.7,4.9-2.4,1.6-.8,3.1-1.5,4.3-2.2h.8c2.2-2.1,8.8-4,10.4-5.5.1,0,.2,0,.3-.1,1.2-.2-.5.6-.6.8,1.2-.4,2.9-1.6,4.1-1.5,0,.1-1.6.7-.8.5.9,0,1.1-.6,2.1-.7-.5-.1,1.4-1.1,2.8-1.5-.2,0-.3,0-.4,0-.3-.1.8-.4,1.4-.6,0,0,0,0-.2.1,2.7-.9,5.5-1.7,8.5-2.3-.3.2,0,.4.8.4,0,.1,0,.3-.1.5l.2.4c-.7,1.6-1.4,3.1-2.1,4.7h0ZM463.1,337.4s0,0,0,0h0c0,0,0,0,0,0ZM463.4,337.4c0-.2,0-.4,0-.6,0,.2,0,.4.1.5,0,0-.1,0-.2,0ZM465,330.1v.2c-.1,0-.2-.2-.2-.4,0,0,.1.1.2.2h0ZM465.2,337.5c-.3,0-.5,0-.8,0,0,0,0,0,0,0,.3,0,.6,0,.8-.1-.3,0-.5,0-.7,0,.4-1.6.7-3.4.7-4.4.2-.3.4-.5.5-.5-.1,1.7-.2,3.4-.5,5h0Z"/>
    <path class="st0" d="M380.8,416.5c-.2,0-.3.1-.4.2.1,0,.4-.1.4-.2Z"/>
    <path class="st0" d="M411.3,406.3c0,0,0,0-.1-.1,0,0,0,0,.1.1Z"/>
    <path class="st0" d="M443.3,258.7l.6-.2,2.3-.7c-1-.2-1.7,0-2.5.1-.5.1-1,.2-1.5.4-.6.1-1.3.3-2.1.4.3.2.6.5,1,.7l1.6-.4.8-.2h0Z"/>
    <polygon class="st0" points="441.2 255.8 438.8 256.7 442.7 255.9 441.2 255.8"/>
    <path class="st0" d="M436.6,271.8c2.1-2.2,4.4-4.2,6.7-6.2-2.5,2.1-4.9,4.3-7.2,6.5l.6-.3h0Z"/>
    <path class="st0" d="M398.4,319.2c.1-.7.2-1.5.3-2.1-.1.8-.3,1.6-.4,2.5,0,.5,0,.8-.1,1.3s0,1.1,0,1.6l.2-.9c-.2-.9-.1-1.6,0-2.4h0Z"/>
    <path class="st0" d="M436.6,315.9c-1.4,2.2.5.8.4,1.7-.2-2.2,2-2.6-.4-1.7Z"/>
    <path class="st0" d="M440.9,308.4c-.9,1.2-1.2,2-1.5,2.8,1.7-1.2,1.1-1.7,1.5-2.8Z"/>
    <path class="st0" d="M445.9,234.9s0,0,0,0c0,0,0,0,0,0Z"/>
    <path class="st0" d="M445.9,234.9c.3,0,.6-.2.9-.4-.3-.3-.7.2-.9.4Z"/>
    <path class="st0" d="M445.7,234.3h-.3c.2,0,.2.2.3,0Z"/>
    <polygon class="st0" points="445.5 234.7 445.8 234.7 445.7 234.6 445.5 234.7"/>
    <path class="st0" d="M440.2,239.3c-.1,0-.3,0-.4,0,.1,0,.3.3.4,0Z"/>
    <path class="st0" d="M427.4,244.2h0c0,0,0,0,0,0Z"/>
    <path class="st0" d="M430.3,242.7h0s0,0,0-.1h0c0,.1,0,.1,0,.1Z"/>
    <path class="st0" d="M433.5,243.5h-.1c0,0,0,0,.1,0Z"/>
    <path class="st0" d="M426.2,244.3c0,0,.2.1.2.2,0,0-.1-.2-.2-.2Z"/>
    <path class="st0" d="M431.4,244.3h0s0,0,0,0h0Z"/>
    <path class="st0" d="M431.1,242.1c0,0,.1,0,.2,0,0,0-.1,0-.2,0Z"/>
    <path class="st0" d="M445.2,235.6c0,0-.1,0-.2,0,0,0,.1.1.2,0Z"/>
    <polygon class="st0" points="425.8 247.7 425.8 247.7 425.8 247.8 425.8 247.7"/>
    <path class="st0" d="M440.7,236.6s0,0,0,0c0,0,0,0,0,0Z"/>
    <path class="st0" d="M429.4,246.4h0,0Z"/>
    <path class="st0" d="M445.1,236.1c0,0,.4,0,.1-.1-.1,0,0,.1-.1.1Z"/>
    <path class="st0" d="M444.6,235.9c-.1,0-.2,0-.3,0,.2,0,.2,0,.3,0Z"/>
    <path class="st0" d="M444.9,235.7c-.2,0-.2.2-.3.2.1,0,.2-.1.3-.2Z"/>
    <path class="st0" d="M442.7,237c.3.1.4.3.7.2-.1,0-.7,0-.4-.3,0,0-.1.2-.3.1h0Z"/>
    <path class="st0" d="M442.1,237.2c-.2,0-.4-.2-.5,0,.1,0,.3.2.5.2-.1-.1,0-.2,0-.2h0Z"/>
    <path class="st0" d="M438.1,241s-.2.2,0,.2h.2c0-.2-.1-.2-.2-.2h0Z"/>
    <path class="st0" d="M436.6,241.1l.2.3c.1,0-.1-.2,0-.3h-.3Z"/>
    <path class="st0" d="M436,239.4h0s0,0,0,0h0Z"/>
    <path class="st0" d="M436.5,242.2l-.4-.3s.1.3.4.3Z"/>
    <polygon class="st0" points="435.8 242.7 435.6 242.7 435.3 242.8 435.8 242.7"/>
    <polygon class="st0" points="434.6 243.1 434.6 243 434.3 243.2 434.6 243.1"/>
    <path class="st0" d="M424.8,248.6c0-.5.5-.1.3-.5,0,.1-.5.3-.3.5Z"/>
  </g>
</svg>