<?xml version="1.0" encoding="UTF-8"?>
<svg id="Layer_1" data-name="Layer 1" xmlns="http://www.w3.org/2000/svg" viewBox="0 0 792 612">
  <defs>
    <style>
      .cls-1 {
        fill: #006f6b;
      }
    </style>
  </defs>
  <g>
    <path class="cls-1" d="M232.72,472.39c0-4.57,3.48-7.93,8.18-7.93,2.27,0,4.32.76,5.7,2.27l-1.05,1.05c-1.27-1.29-2.83-1.85-4.61-1.85-3.76,0-6.59,2.76-6.59,6.46s2.83,6.46,6.59,6.46c1.78,0,3.34-.56,4.61-1.87l1.05,1.05c-1.38,1.52-3.43,2.29-5.72,2.29-4.68,0-8.15-3.36-8.15-7.93Z"/>
    <path class="cls-1" d="M252.62,473.53v-8.93h1.65v8.87c0,3.7,1.74,5.39,4.77,5.39s4.79-1.69,4.79-5.39v-8.87h1.6v8.93c0,4.48-2.41,6.79-6.39,6.79s-6.42-2.32-6.42-6.79Z"/>
    <path class="cls-1" d="M273.07,464.59h1.65v14.17h8.73v1.43h-10.38v-15.6Z"/>
    <path class="cls-1" d="M290.45,466.02h-5.48v-1.43h12.61v1.43h-5.48v14.17h-1.65v-14.17Z"/>
    <path class="cls-1" d="M302.44,473.53v-8.93h1.65v8.87c0,3.7,1.74,5.39,4.77,5.39s4.79-1.69,4.79-5.39v-8.87h1.6v8.93c0,4.48-2.41,6.79-6.39,6.79s-6.42-2.32-6.42-6.79Z"/>
    <path class="cls-1" d="M333.54,480.19l-3.56-5.01c-.4.04-.8.07-1.25.07h-4.19v4.95h-1.65v-15.6h5.84c3.97,0,6.37,2.01,6.37,5.35,0,2.45-1.29,4.17-3.56,4.9l3.81,5.35h-1.8ZM333.45,469.94c0-2.5-1.65-3.92-4.77-3.92h-4.14v7.82h4.14c3.12,0,4.77-1.45,4.77-3.9Z"/>
    <path class="cls-1" d="M351.46,476.02h-8.69l-1.87,4.17h-1.71l7.13-15.6h1.63l7.13,15.6h-1.74l-1.87-4.17ZM350.86,474.69l-3.74-8.38-3.74,8.38h7.49Z"/>
    <path class="cls-1" d="M360.33,464.59h1.65v14.17h8.73v1.43h-10.38v-15.6Z"/>
    <path class="cls-1" d="M383.95,464.59h3.61v15.6h-3.61v-15.6Z"/>
    <path class="cls-1" d="M408.12,480.19l-.02-9.36-4.59,7.71h-1.63l-4.57-7.51v9.16h-3.39v-15.6h2.99l5.84,9.69,5.75-9.69h2.96l.04,15.6h-3.39Z"/>
    <path class="cls-1" d="M432.07,480.19l-.02-9.36-4.59,7.71h-1.63l-4.57-7.51v9.16h-3.39v-15.6h2.99l5.84,9.69,5.75-9.69h2.96l.04,15.6h-3.39Z"/>
    <path class="cls-1" d="M453.91,477.29v2.9h-12.08v-15.6h11.79v2.9h-8.2v3.39h7.24v2.81h-7.24v3.61h8.49Z"/>
    <path class="cls-1" d="M469.4,480.19l-3.01-4.34h-3.32v4.34h-3.61v-15.6h6.75c4.17,0,6.77,2.16,6.77,5.66,0,2.34-1.18,4.05-3.21,4.92l3.5,5.01h-3.88ZM466.01,467.54h-2.94v5.44h2.94c2.21,0,3.32-1.02,3.32-2.72s-1.11-2.72-3.32-2.72Z"/>
    <path class="cls-1" d="M477.29,478.65l1.22-2.72c1.31.96,3.28,1.63,5.15,1.63,2.14,0,3.01-.71,3.01-1.67,0-2.92-9.07-.91-9.07-6.71,0-2.65,2.14-4.86,6.57-4.86,1.96,0,3.96.47,5.41,1.38l-1.11,2.74c-1.45-.82-2.94-1.23-4.32-1.23-2.14,0-2.96.8-2.96,1.78,0,2.87,9.07.89,9.07,6.62,0,2.61-2.16,4.83-6.62,4.83-2.47,0-4.97-.74-6.35-1.8Z"/>
    <path class="cls-1" d="M495.4,464.59h3.61v15.6h-3.61v-15.6Z"/>
    <path class="cls-1" d="M504.4,472.39c0-4.63,3.61-8.06,8.53-8.06s8.53,3.41,8.53,8.06-3.63,8.07-8.53,8.07-8.53-3.43-8.53-8.07ZM517.81,472.39c0-2.96-2.09-4.99-4.88-4.99s-4.88,2.03-4.88,4.99,2.09,4.99,4.88,4.99,4.88-2.03,4.88-4.99Z"/>
    <path class="cls-1" d="M541.17,464.59v15.6h-2.96l-7.78-9.47v9.47h-3.56v-15.6h2.99l7.75,9.47v-9.47h3.56Z"/>
    <path class="cls-1" d="M546.32,478.65l1.22-2.72c1.31.96,3.28,1.63,5.15,1.63,2.14,0,3.01-.71,3.01-1.67,0-2.92-9.07-.91-9.07-6.71,0-2.65,2.14-4.86,6.57-4.86,1.96,0,3.96.47,5.41,1.38l-1.11,2.74c-1.45-.82-2.94-1.23-4.32-1.23-2.14,0-2.96.8-2.96,1.78,0,2.87,9.07.89,9.07,6.62,0,2.61-2.16,4.83-6.62,4.83-2.47,0-4.97-.74-6.35-1.8Z"/>
  </g>
  <g>
    <g>
      <path class="cls-1" d="M406.46,169.4c-.34.69.65.63,1.7.29-.1-.52-.26-1.04-.46-1.54-.33.49-.82.83-1.24,1.26Z"/>
      <path class="cls-1" d="M409.37,166.61c-.12-.84-.26-1.6-.49-2.36.07.51.07,1,.08,1.52-1.34.96-1.24-.91-1.31-1.44-.31,1.07-.05,1.46.38,1.67.44.23,1.09.23,1.34.61Z"/>
      <path class="cls-1" d="M409.79,162.66c.48-1.12-.55-1.07-.98-.69.36.19.53,1.08.98.69Z"/>
      <path class="cls-1" d="M461.61,151.72c.33-.07.53-.25.77-.12-.22-.33-.33-.4-.77.12Z"/>
      <path class="cls-1" d="M462.37,151.6c.03.06.07.13.11.21,0-.06,0-.1-.02-.17-.03-.03-.06-.03-.09-.04Z"/>
      <path class="cls-1" d="M449.03,133.26c-1.13.9-1.91.56-3.09,1.03l-.85-1.07c-1.28.56-.46,1.07-1.36,1.8-1.34-.59-3.91.43-4.54.45-.49-.49.43-.81.6-1.16-1.59.6-1.33,1.69-3.41,1.98l-.08-.31c-4.71,2.34-11.29,2.7-16.98,6.05.43-.09.41.17.65.34-.75.3-1.53.74-2.31,1.17-.78.38-1.58.97-2.35,1.54-.79.52-1.48,1.32-2.17,2-.59.78-1.22,1.54-1.63,2.37-1.81,3.32-1.92,6.51-1.26,9.06.3-1.54,1.29-3.5,2.43-5.36,1.14-1.88,2.38-3.55,3.15-5.43,1.49-.13,2.58-2.13,3.6-1.25,2.21-.77,3.61-1.56,5.05-2.46,1.43-.86,2.88-1.75,5.07-2.17.67.09.46.72.74,1.23-1.1.42-2.21.77-3.29,1.24.72-.02,1.44,0,2.15.03-.79.66-3.01.8-3,1.88,2.57-1.98,7.5-1.75,9.88-3.56-1.26-.09-2.74.42-4.2.58-.7-.27-1.73-.38-1.77-.94,3.93-2.36,7.56-1.96,11.72-3,1.04-.26,2.49-.34,2.73.18-.67.28-.09.67-.62,1.01,1.44-.66-.1-2.03,2.07-2.09l-.02,1.97c.58-2.15,2.68,0,4.01-1.44.67.68-.25,1.3-1.43,1.52,1.39.14,1.33-1,2.37-1.16l-.72,1.82c.86-1.77,2.08-.04,2.84.33,0-.41-.84-1.52.58-1.74.65.07.43.55.62.75,0-.41.3-1.25,1.4-1.59.24.5-.58,1.01-.52,1.58.68-.22,1.27-.52,1.75-.15,1.28-.3-.07-.83.79-1.31,1.06.39.97.93.76,1.46-.23.55-.53,1.19-.37,1.86-.61.26-1.24.35-1.7.8-.52.37-.72.62-1.19.94.56-.19.64-.32.97-.48.28-.12.56-.4.87-.39-.06.66.91,1.33.1,1.84.59.41,1.14.62,1.8.88.18.06.29.12.49.2.22.09.4.22.61.34.39.23.8.51,1.1.79.09-.31,0-.67.36-.86.86.62.06.87-.29,1.23.64.29,1.68-.16,2.64.05-.2.91-.25,1.33-.36,1.75-.11.39-.32.8-1.1,1.21l1.15.14c-.54.36-.38.62-.27.96.07.17.14.35.13.53-.05.17-.2.34-.51.47-.25-.07-.27-.52-.36-.86-.18.9-1.25.1-1.39,1.04-.15-.53-.44-.81-.7-1.18-.06.1-.11.23-.17.35-.12.22-.27.47-.4.64-.27.35-.55.46-.85-.06.02,2.22-1.98,4.56-2.42,6.79l-.77-.61c.46,1.55-2.06,3.49-1.28,5l-.42-.06.09,2.52c-.58.79-1.69-.22-1.38.05-.82,1.97-1.57,3.44-2.69,4.33.96.96.12,3.03-.71,4.57-2.64,3.25-5.13,6.68-8.06,9.2-1.46,1.27-3.02,2.14-4.9,2.57-1.88.44-4.08.46-6.12.84-1.27.04-2.78,1.66-3.83,2.63,1.64-.05,1.66-.73,3.33-.83,1.3.34,1.64,1.71,2.72,2.62l-.5-1.14c1.86-.78,1.21.69,2.82-.37l-.12,1.78c.58-.87,2.15-.17,2.95.19.16-.43.31-.85.45-1.3,1.59.43,2.67.32,3.54,1.2l-.54-1c.38.22,1.83-.38,2.87-.89,1.09-.47,1.88-.79,1.7.54.23-.47.23-1.17,1.06-1.63l.8.79c.89-1.09,1.8-2.22,2.48-2.05-.32.69-.15,1.22,0,1.75,2.15-1.94,1.62-2.79,1.04-3.58-.59-.8-1.19-1.54.15-3.25l.54.5.07-1.35,1.43-.36c-1.07-2.67,3.55-4.77,3.67-7.61.32-.93,2.23-1.28,3-2.95l-1.03-.45c1.72-.71,4.98-5.07,7.87-4.87-.1-1.56-.27,0-1.03-.47.26-2.81,1.89-2.03,3.11-2.8.31-1.56-.96.75-1.27-.37.97-.77.92-1.32.91-1.98-.01-.33,0-.65.13-1.02.07-.19.17-.38.33-.59.08-.1.17-.21.27-.32.14-.15.3-.31.47-.5.42-.05.29.33.14.69-.07.25-.2.55-.1.78.03-.29.05-.54.18-.89.26-.51.53-1.01.8-1.54.28-.54.63-1.06.89-1.67.22-.65.48-1.32.65-2.02.74-2.8.61-6.09-.46-8.7-.14-.8-.46-1.6-.77-2.46-.4-.87-.78-1.69-1.26-2.41-.97-1.56-2.07-2.91-3.89-4.4-1.7-1.39-3.71-2.5-5.83-3.17-1.05-.35-2.15-.6-3.22-.8-1.07.1-2.13.2-3.18.3l-.08.43c-.23-.02-.44-.03-.64-.04-.11-.03-.22-.05-.33-.06-.22-.03-.43-.03-.64-.01-.42.03-.84.14-1.26.25-.85.2-1.66.5-2.68.4l1.02.44Z"/>
      <path class="cls-1" d="M425.58,147.64l.55.83,1.67-1.07c-.91-.57-1.17.14-2.22.23Z"/>
      <path class="cls-1" d="M425.23,144.7l-.88.73c.53-.18,1.06-.37,1.6-.51l-.72-.22Z"/>
      <polygon class="cls-1" points="450.29 142.39 450.01 142.28 446.36 143.63 450.29 142.39"/>
      <path class="cls-1" d="M460.75,151.24c-.34-.38-.12-.54-.38-.79.05.24.23.53.16.83l.22-.04Z"/>
      <path class="cls-1" d="M448.79,163.5c1.18,1.42-.66,1.13,1.14,1.14.26-1.04-.78-.6-1.14-1.14Z"/>
      <path class="cls-1" d="M449.07,168.09c.34-.48.28-.9.22-1.3-1.05.29-.29.75-.22,1.3Z"/>
    </g>
    <g>
      <path class="cls-1" d="M345.99,374.21c-.03-.08-.06-.14-.1-.2-.04.1-.02.18.1.2Z"/>
      <path class="cls-1" d="M482.93,323.57c-.82-.04-.38,0-3.51-.26-2.31-.11-2.23-.34-4.85-.41-1.49.11-3.74-.3-6.13-.17,1.27-.15-2.85-.07-.76-.24-.98-.11-5.09.08-6.98.03.3-.06.23-.1.67-.15-2.62.22-1.81-.08-3.77-.02l.09.24c-.75.11-.99-.05-1.66.01.54.01,1.66.08,1.08.21-.9.1-1.68.19-2.61.3-.02-.1.65-.22,1.11-.26,0,0-.52.02-1.07.05-.55.03-1.11.04-1.19-.02.74-.14,1.71-.25,2.37-.4-2.78.08-.23-.08-1.6-.21.27.19-.84.26-2.05.34.14-.89.29-1.78.42-2.67.65,1.19,2.87-11.4,2.33-2.23,3.23-17.15,1.77-37.92-1.14-54.01.08,2.34.28,5.31-.24,4.88-1.48-8.3-.59-7.5-.32-9.31-.38-1.53-.79-2.63-1.14-3.46-.36-.82-.78-1.55-1.13-2.06-.35-.49-.72-.97-1.13-1.56-.04-.19-.08-.38-.13-.57l-.54-1.82c-.17-.61-.48-.99-.69-1.49-.47-.94-.91-1.85-1.28-2.7-.34-.91-.75-1.52-1.04-2.09-.33-.56-.59-1.03-.68-1.42.86.72,1.42,1.13,1.92,1.36.48.26.85.45,1.25.57-.55-1.29-1.16-2.01-1.81-2.69-.63-.68-1.29-1.19-1.89-1.62-1.21-.86-2.31-1.19-3.1-1.37-1.64-.29-2.24.19-2.73.63-.48.44-.91.92-2.2,1.23-.64.18-1.51.33-2.64.71-1.13.35-2.52.93-4,2.02v-1.03c-.53.48-.94,1.09-1.4,1.64-.4.72-.77,1.49-1.13,2.22l-3.19,2.65c-.55,2-1.64,3.85-2.98,6.56-.79,1.45-1.25,2.23-1.86,3.21-.6.96-1.24,1.95-1.94,2.94-2.74,3.98-5.88,8.12-7.35,11.71-1.47,2.63-5.1,4.91-8.27,9.55l1.29.49c-1.88,1.45-5.54,5.44-9.49,8.97-3.94,3.55-8.18,6.54-10.65,6.73-2.12,3.43.49-.06,1.16.72-2.31,3.19-4.02,4.36-5.47,4.9-.89.44-.99,0-1.31-.04-.28-.24-.47-.38-.59-.6-.12.36-.11.47.11.63.16.16.57.16.49.78-.89-.3-1.05.04-1.75.26-.32.12-.72.15-1.17-.03-.41-.21-.92-.69-.99-1.46.58-.52.74.41,1.33.24-.53-.06-1.01-.43-1.21-1.04,0-.17-.09-.32-.1-.52.01-.1.01-.2,0-.31,0-.11-.04-.17.02-.46.13-.95.34-1.97.65-3.04,1.17-4.29,3.62-9.11,5.85-13.39,3.09-4.61,7.23-10.36,11.83-15.92,4.6-5.58,9.79-10.97,14.79-15.25l-.17-.51c4.66-3.04,8.18-7.91,13.46-11.59l-2.84,1.48c2.64-3.36,4.81-4.44,7.73-7.14l2.6-.22c3.17-2.9.83-2.06,2.95-4.48,3.69-1.57,10.23-6.69,11.92-7.54,1.44-.11-.93,1.59-1.26,2.24,4.04-2.97,3.17-3.97,8.83-7.28l.28.27c.8-.59,1.6-1.19,2.42-1.8l.62-.45.16-.11.56-.37c.74-.5,1.51-1.2,2.15-2.03,1.33-1.7,1.98-3.98,1.85-5.95-.11-1.99-.81-3.8-2.07-5.35-1.24-1.54-3.25-2.79-5.37-3.13-1.03-.17-2.04-.16-2.92-.02l-.34.06h-.05s-.1.04-.1.04l-.19.05-1.54.4c-1.04.26-2.09.52-3.14.79-4.24,1.03-8.65,2-13.12,2.96-2.24.48-4.48.96-6.73,1.44l-3.37.72c-.71.15-.8.18-1.01.24l-.64.18c-1.73.48-3.62,1.03-5.96,1.78.42,0-.08.38-.2.69-.81.19-1.62.38-2.46.57-2.53.58-5.12,1.17-7.71,1.76-1.48.35-2.96.69-4.43,1.04-1.59.37-3.32-.29-4.27-1.36-1.47-1.28-.86-3.81-.15-5.58.41.05.84-.06.89-.29.02-.46-.31-.4-.52-.56.04-.08.07-.14.11-.22.18.03.39.09.55-.13.24.38-.16,1.16.57,1.01l-.04-.26c-.05.07-.09.2-.2.2-.31-.12-.05-.32-.07-.45l.72-.28c.29.38-.15.52-.13.65.46-.4.72-1.37,1.36-1.39l-.14-.13c.82-.02-.1-.96.79-.6.19-.26-.36-.38.01-.64.11-.07.14.12.15.19.56-.14-.03-.51.64-.41l-.36-.37c.7-.02,1.71.4,2.05-.06-.04-.06-.09-.09-.14-.12v.06s-.34,0-.34,0v-.06s.33-.01.33-.01c-.19-.11-.4-.03-.61-.17.98.23,1.51-.82,2.28-.84,0,.39.67.5.45.95-.36-.37-.35.01-.58.08.88.75,1.03-1.25,1.62-.5l-.12-.38c.12,0,.49.11.4.31l.49-.59c-.37-.12-1.19-.42-1.11.03-.39-.25.11-.39-.29-.7.75.3.11-.39.62-.53.1.6.83.39.95.64.09-.18.54-.14.76-.05.28-.11.62-.84,1.12-.92-.24-.06-.61-.11-.77-.43.3.05.52-.08.34-.46-1.1-.23.27.96-.62.92-.4-.31-.64-.3-1.04-.23,0-.32-.12-.38-.23-.7.92.62,1.09-.55,1.87-.44.37.12.53.76,1.09.55l-.27.52c.33-.52.26.19.71.04l-.32-.18c.2-.2.32-.2.58-.08l-.46-.31c.1-.13.3-.33.46-.08-.03-.13-.07-.22-.11-.29.07.06.16.07.3-.04-.12,0-.16.07-.24-.06.63-.25-.15-.55.23-.72-.12-.07-.09-.25,0-.38.4.68,1.16.35,1.57.61h0s.64-.03.64-.03c-.13,0-.14-.24-.04-.4l-.02.02c.09-.2-.63-.63-.05-.71l.36.05c-.06,0-.08-.13-.09-.19l.36.03c0-.86.93-.08,1.19-.66-.1.13-.32.2-.36-.05.04-.13.21-.13.34-.07l-.07-.06,1.1-.1c-.21-.19-.69.08-.64-.3-.06-.39.38-.21.55-.27.09.19-.09.52.25.44-.02-.11.14-.46-.07-.51.4,0,.89-.14,1.34.02.03-.13-.14-.12-.2-.12v.06c-.22,0-.3-.44-.53-.05-.39-.57.4-.46.65-.73l-.72-.11c.32-1.3,1.94-1.09,2.75-1.56-.12.33-.43.27-.12.71.63-.08.5-.14,1.06-.35h-.06c.11-.39.74-.15.66-.66-.26-.19-.22.46-.54-.05l.65-.34c-.38-.18-.65.34-.93.41-.15.13.39-.14.51.24-.59.34-.93.09-1.51-.21-.39-.25.04-.52.14-.59.69.3,1.39.22,1.82-.37l.08-.58c.5.18.8.94,1.26.54l-.32-.18c.05-.18.1-.26.16-.29-.35-.07-.73-.17-1.07-.26-.06-.77,1.02-.22,1.53-.37-.07-.06-.23,0-.37-.12.56-.53,1.67-.24,2.22-.45.05-.39-.52.08-.65-.37.35-.01.44-.53.73-.22-.42-.44.58-.4-.21-.57.81-.8,2.14-.96,3.27-1.26-.14-.12-.22-.25-.24-.38-.32.2-.88.35-1.28.1.05-.39.71.04.68-.15-.18-.06-.4.08-.56-.18.1-.45.5-.14.73-.21l-.03.19c.82-.02.87.68,1.44.15.05-.45-.16-.25-.39-.63.24.06.48-.66.88-.35l-.37.27c.34-.06.6-.22.87-.2-.07-.07-.14-.15-.21-.14.29,0,.55-.21.82-.02l-.19-.45c-.02.26-.39.53-.59.34-.18-.38.35-.4.5-.53-.83.35-1.22-.29-1.7.37l.18.06c-.21.55-.93.29-1.27.52.05-.14-.02-.31-.11-.35-.58.79-1.49,1.01-2.25,1.74l-.51-.24.17.32c-.28.32-.35-.1-.49-.18.02.02.03.04.06.06-.71-.04-.1.45-.44.53.33.25.61-.21.75.3-.71-.04-1.37.62-1.89-.08-.75.86-2.18,1.1-2.99,1.51-.03.19.13.06.15.19-.57-.24-.85.93-1.09.55-.09.2.02.51.05.64-.31-.06-.6,0-.88.09h.25s.01.06.01.06h-.35s0-.02,0-.02c-.69.27-1.36.8-2.17.74.48.05.2.51.44.57-.66-.43-1.36-.03-1.88.38.08.13.1.25.23.32l-.48-.05.14.13c-.51.47-1.56.17-1.77.7.28-.07.36.05.51.24-.43.24-.82.47-1.42.58.05.02.09.05.12.1-.1.13-.34.07-.52.08l.17.32c-.34.01-.56.36-1.01.3.09.41-.91.12-1.16.47-.18,0,.5.18.12.38-.46-.63-.49.27-.95-.42l-.16.46-.29-.31c.13.83-.6-.05-.87.41.07.06.13.06.14.13-.18,0-.51.14-.38-.18-.21.14-1.05.42-.49.59-.15-.19.26-.2.44-.21.17.32-.23.39-.11.78-.03-.03-.11-.05-.17-.09l.07.22c-.61-.09-.88.4-1.44.15.04.11.01.22-.14.28l-.24-.38-.43.27.54.43c-.41.4-1.12-.03-1.57.11.29.7-.91.22-.9.99h.41c-.72.27-.59.72-1.33.86.38-.53.46-.4.9-1.38-.59.72-1.52.43-1.98,1.22.14.12.37.12.3.38-.33-.25-.64.41-.77-.04-.13.26.05.64-.05.77l-1-.04.07.06c-.68,1.63-2.64.79-3.63,1.91l.15.19-.49-.11c.36.05.05.32.14.51l-1.05.03c.09.19.39.57.53.37-.17.39-.74.15-1.01.29l.2.12h-.35s.16.26.16.26c-.5.14-.88.73-1.28.42l.3.38-.66-.04.43.12c-.46.4-1.44.56-1.55.63l.14.12c-.04.13-.16.07-.28.07l.21.19c-.81.41-.71,1.05-1.73,1.34-.2.2.18,0,.26.12-.02.26-.43.27-.55.21.29.31.58-.02.48.44-.3-.06.33.25-.05.39l-.41-.37c-.14.2.18.38-.15.52-.47.01.11-.78-.49-.5-.19.14-.09.8-.27,1.2-.97.43-1.91.91-2.62,1.68-.56.65-.96,1.41-1.12,2.2-.14.8-.06,1.6.2,2.33.55,1.46,1.95,2.53,3.67,2.69,1.73.14,3.52-.57,5.37-1.02,1.84-.52,3.74-1.1,5.64-1.77.12.48,2.54-.08,4.41-.48,1.91-.41,3.38-.69,2.81.13.49-.07.97-.14,1.37-.19,5.82-.89,10.87-2.31,14.84-3.58,1-.32,2-.64,3.02-.96,1.2-.34,2.43-.69,3.71-1.05,2.57-.69,5.38-1.36,8.67-1.97,2.01-.11,1.18.73,1.87,1.28l-10.76,2.65,6.73-.67c-2.78,1.14-9.79,1.97-10.44,3.36,4.7-1.62,10.8-2.83,16.82-4.05,3-.61,5.97-1.22,8.68-1.88,1.37-.32,2.62-.69,3.88-1.02.74-.11,1.48.53,1.57,1.3.06.39-.04.82-.29,1.16-.11.17-.28.31-.41.43l-.31.27c.2-.11.45-.18.81-.49.31-.28.54-.72.58-1.16.1-.87-.43-1.82-1.4-2.1-.47-.14-1-.03-1.19.01l-.83.16c-.56.11-1.12.22-1.69.33-2.27.46-4.63.96-6.95,1.33-2.11-.06-5.31.19-5.23-.51,3.21-1.08,6.32-1.96,9.38-2.72,1.53-.38,3.05-.73,4.56-1.06l.57-.12c.64-.11,1.43-.14,2.21.11,1.6.48,2.71,1.8,3.08,3.19.43,1.37.06,3.24-1.08,4.38-.28.3-.56.52-.85.71l-.39.24-.5.3c-5.31,3.2-10.82,6.14-16.3,10.03-2.78,1.94-6.61,4.46-7.43,4.27,1.69-1.48-.01-.97,1.32-2.27-3.61,3.26.94,2.2-4.78,6.07l-.67-2.38c-.74,3.59-7.07,4.84-9.91,9.22-1.96.47.17-2.1,3.11-4.59-3.61,2.48-3.06,3.74-5.66,6.02.37-1.22.76-2.45,1.18-3.65-1.57,3.84-5.23,4.14-7.2,5.17.15.52,2.59.26-.85,3.38-1.58,1.24-1.21.16-1.74.3.17.54-.42,2.32-2.48,4.58-.86-.04.68-2.17.36-2.77-1.6,1.69-2.78,3.19-4.34,4.05-2.33,3.45.87.44-.26,2.79-4.52,4.42-2.13-1.03-4.73-.18,2.44-4.28,6.53-9.05,8.04-11.24-2.09,2.32-4.09,4.73-6.05,7.15-.19-.95-5.19,3.89-2.47-.34-6.85,6.54-13,16.3-17.22,24.25.91-.94,1.93-2.23,2.19-1.74-2.11,4.15-2.61,3.24-3.6,3.76-1.31,3.26.05,3.6-.11,5.91-2.17,2.84-3.15,4.64-4.09,6.32-.92,1.7-1.86,3.21-3.62,5.99l1.38.04c-1.19,1.95-1.29,3.3-1.3,4.66,0,.18,0,.37,0,.56-.05.14-.09.3-.15.51-.07.27-.15.57-.23,1-.06.48-.13,1.03-.18,1.68.15-.83.34-1.58.53-2.09,0,.18,0,.35-.02.55.01.93-.22,1.98-.23,3.4-.13.17-.33-.28-.54-1.01-.16-.72-.24-1.77-.3-2.65-.09,2.57-.18,3.81-.27,5.09,0,1.24-.03,2.69,1.56,4.95-.6-.48-1.14-1.04-1.64-1.66-.54-.6-1.02-1.26-1.42-1.98.54,2.35,2.06,4.94,3.36,6.46,1.22,1.58,2.07,2.39.68,2.03,1.77,1.27,4,2.42,6.56,3.2,2.55.76,5.52,1.06,8.44.47.72-.17,1.43-.38,2.14-.59.7-.23,1.35-.57,2.02-.87.68-.29,1.24-.73,1.84-1.11l.87-.6.61-.51c1.62-1.36,3.06-2.75,4.22-4.12l.42,1.18c.94-1.77,3.38-4.1,5.62-6.51,2.24-2.41,4.27-4.88,4.63-6.61l.7-.1c1.1-2.17,2.21-4.32,3.21-6.51,2.05-2.44,2.78-.54,2.55-1.04,3.99-5.81,6.96-10.39,9.97-13.8-.64-1.79,3-8.14,5.88-13.19.84-1.3,1.68-2.61,2.53-3.92.67-1.04,1.24-1.9,1.82-2.87l1.72-2.84c.54-.96,1.15-1.91,2.04-2.61.86-.7,1.97-1.14,3.1-1.09,1.12.08,2.2.62,2.93,1.46.75.83,1.16,1.91,1.35,2.99l.65,3.3.73,4.18c.33,2.68.65,5.48.87,8.39.51,6.19.76,12.79.69,19.46-.14,11.25-1.29,22.85-3.93,32.58-.26,0-.66.02-1.34.11.84.37-3.02.33-2.99.86h-2.01c-1.65.62.65.83-2.68,1.53-3.09.37.08-.99-1.78-.96l-.67.45c-.52.01-1.03.03-1.55.06l.22-.08c-.87.3-2.52.55-2.57.37.11-.17,1.08-.37,1.19-.54-1.39.64-6.14.32-7.4,1.7-.92.04-2.72.48-2.59.1-.67.62-3.99.82-5.06,1.46.1-.2-1.09-.16-1.94.21,1.24-.15.56.23-.16.72-1.16-.08-3.97,1.1-4.62.66-1.49.81-.75,1.06-.96,1.59-1.15-.04-4.4,1.08-4.08.2.9-.21,2.93-.67,2.39-1.03-.21.03-.38.06-.52.09.03-.02.08-.05.1-.06-.1.04-.17.07-.25.1-.35.09-.45.17-.53.28-.05.04-.1.08-.12.11.02,0,.03-.01.04-.02-.1.11-.26.24-.75.43.06-.16-1.09-.11-.91-.4-.79.35-1.92.73-3.13,1,1.94-.29-.96.89.24.81l1.54-1.1c2.09-.75.59.24,1.45.14-3.63,1.42-2.63,1.86-5.91,3.46-.69.12-1.91.36-2.27.48,1.12-.48.62-1.07-.08-.95-1.67,1.31-3.59.91-5.22,1.41,1.43-.38.91.36.49.73-3.06,1.76-1.39.26-2.95.52-2.5,1.05-4.63,1.74-6.63,2.43-2,.67-3.85,1.37-5.69,2.58l2.22-.22.3-.93c1.71-.19.44,1.54-.16,2.37-.32-.12-2.66,1.18-1.89.35l-2.19,1.42c.5.11,1.94-.75,1.01.09-.88.16-3.32,1.25-2.04.1-1.23.62-2.66,1.66-2.18,1.9-1.93,1.07-.26-.94.48-1.66-1.58.77-1.7.1-1.32-.32l-2.14,1.21c.37-.43.22-.69.6-1.12-1.59.49-2.19,1.76-3.72,1.89l-.22.85c-4.2,1.7-3.84,1.42-7.5,3.49l.87.06c-2.25,2.36-2.43.52-5.85,3.13-1.88,1.53-3.02,2.64-2.29,3.11-.97,1.04-1.51.83-2.21.94-.64.97-2.01,3.02-3.69,3.66.78-.9,1.41-1.63,2.21-2.38-.75-.46-3.13,2.1-4.82,2.88-.74,1.12-3.34,4.4-4.51,6.52,1.23-.17,1.59.84.57,2.68-.06-.3-.66.06-1.41.57-.72.54-1.58,1.26-2.22,1.62.15-.85-3.17,1.35-1.16-.91.82-.43,1.61-.19,2.27-1.21-.88.12-2.69,1-4.47,2.1-.1-.31.42-1.27,1.17-2.01-.24.56.11.45.32.54,1.02-1.38.8-1.56.26-1.44.05-.11.06-.19,0-.23-.05.1-.09.18-.11.26-.65.19-1.62.68-1.66.25-.61.79-2.2,2.29-1.13,1.89-1.17.28-2.08,1.53-2.96,2.81-.86,1.35-1.65,2.75-2.79,3.3.05.15,1.2-.59.5.81-1.26,2.02-1.67,1.53-2.46,2.19-.14.69-1.76,4.26-1.74,3.82-.51,1.59,2.02-.92,1.43,1.34.03.85-.27,1.78-.7,2.64-.21.44-.43.89-.65,1.33-.17.49-.31,1.01-.38,1.52-1.25,2.24.15-2.56.39-3.39l-.53,1.55c-.16.53-.26,1.14-.38,1.71-.24,1.16-.46,2.36-.48,3.24-.36.8-.55.59-.61-.05-.03-.32-.02-.74.02-1.19.1-.55.23-1.12.39-1.63-.3.62-.64,1.51-.71,2.06-.11.61-.17,1.23-.17,1.8-.02,1.14.26,2.13.59,2.49-.32,1.45-.11,2.29-.46,3.71-.38-1.42-1.75-1.39-1.8-3.69.43-3.69.87,1.41,1.36-1.68l-.75-.35c.32-.62.37-1.21.36-1.82,0-.3-.02-.62-.03-.94,0-.33.08-.8.16-1.23.44-.93.21.27.18.94.36-1.54.77-3.01,1.21-4.15.45-1.13.78-2.21.83-3.42-.57.83-1.08,1.85-1.54,2.92-.5,1.01-.75,2.45-1.05,3.61-.33,1.32-.36,2.05-.54,2.83-.16.74-.35,1.33-.6,1.71.11,2.39.34,4.82.87,7.33.36-.05.85-2.59,1.46-.57-.89.87-1.22,3.14-.63,6.3.34-.69.86.48,1.45,1.58.52,1.1,1.27,2.12,1.29,1.21-1.06-1.2-.38-2.17-.39-2.37.96,2.76.96.08,1.57,1.55.92,2.48.92,2.49.69,2.53-.14.02-.51.08.95,2.53-1.11-.63-3.68-2.9-4.97-5.83-.17.17.04.92.4,1.81.4.9.8,1.91.95,2.67-.47-2,1.5.76.93-.77,1.29,2.01,3.19,3.94,5.43,5.45,2.26,1.52,4.78,2.46,7.2,3.19-.31.3-1,.36-1.88.17-.88-.14-1.92-.47-2.89-.91-1.94-.76-3.57-1.83-3.4-.49,1.28.89,2.04,1.1,2.71,1.26.67.14,1.23.39,2.23.88.33.4.89.78,1.59,1.14.69.3,1.52.55,2.41.78.88.2,1.8.29,2.72.42.89.07,1.78.15,2.62.22l-1.41-.63c1.31-.16,3.51.24,4.9.33-.12.07-.24.13-.36.2.46-.08.9-.21,1.34-.31.21.03.26.08.26.13,1.49-.43,5.11-.39,7.68-1.11-.14-.74-2.57.41-3.9.44-.38-.13-2.88-.21-1.72-.83,3.34-.27,5.36-1.57,8.82-2.29-.37.03-.77.02-1.15.03,1-.72,2.49-.87,4.1-1.31,3.04-.35-1.87,1.59,0,1.5-1.01.92-3.22.75-3.35,1.71.73.21,1.43.35,2.16.53,1.46-.99,3.42-.61,4.48-1.08l-1.31-.08c0-.83,1.26-.58,1.84-.64l-1.12-.88c-1.73.32-2.63,1.64-4.07,1.29,2.98-1.14,1.99-1.89,5.54-2.99.29.37-.62.4-.89.82,1.31-.09,2.27-1.4,4.31-1.73-.99.67-2.67,1.69-1.03,1.8l.76-1.18c.93-.2.68.26,1.05.15,1.31-.31-.6-.74,1.46-1.27.35.05,1.08-.01.87.28,2.27-.87.98-.7,2.91-1.94-1.87.77-2.42-.44-.56-1.35,2.76-1,4.26-2.48,6.52-2.33l.94-1.06c-.41,1.09,1.79-.52,2.67-.82.68.7-3.95,1.86-3.34,3.18,1.8-.7,1.23.07.83.69,1.83-1.02.26-1.27.84-2.2.17.35,3.23-1.45,2.47-.2,1.6-.75,1.46-1.71,2.7-2.14-.02.4-.01.91.3,1.27,0-.33,1.66-.77,1.95-.91-.35,0,.19-.95-1.04-.01.02-.79,3.17-1.72,2.82-2.2.52.64,2.97-1.42,4.52-1.93-1.03-1.56-2.25,2.08-3.46.99.78-.8,2.33-1.68,4.02-2.67,1.69-1.01,3.51-2.24,4.79-3.48,2.77-1.28.38.6,1.26.85-2.25,1.73-3.14,1.64-5.05,3.19,2.43-1.13,6.16-3.53,7.4-5.18,2.31-1.74,3.75-.26,6.27-2.84-.72-.18-.74-.33-1.74.16.62-.74,1.61-1.24,2.41-1.87.27-.67-1.5.6-.59-.51.5-.25,1.47-.9,1.53-.45l-.15.19c2.31-2.47,2.75-.46,4.26-3.17-.36-.07-.6.62-1.25.94-.69,0,.26-1.63,1.14-2.63.07.45.94-.68,1.71-1.21.91.09-1.63,1.66-1.7,2.3l2.01-1.6-.47.28c.57-.76,1.09-1.57,1.63-2.35-1.27,1.48-1.21.04-.64-.6,1.49-1.21,2.98-2.44,3.3-1.76-.3-.66,1.36-2.35,2.44-3.66-1.47,1.14-.59-.26-.38-.8.8-.5,1.64-.96,2.41-1.49-1.85,2.26.88,0,.75.81-.03,1.14-1.57,2.14-2.71,3.18,3.06-1.24,2.46-3.54,4.64-5.07.24.22.36.64-.47,1.46.47-.2,1.14-2.21,2.6-3.29-.48.2-1.61.52-.65-.97l2.06-1.26c1.85-1.96-.04-1.25,1.1-3.17l-1.33.77c-.36-.6,1.88-2.27,1.35-2.82.4-.5.79-1.01,1.19-1.52.33-.24.7-.5,1.43-1.06.92.61-1.17,3.74.24,4.28,1.67-2.43,3.86-6.06,5.29-7.39,1.24-2.33.39-2.64-.31-2.67.51-.95.88-1.33,1.39-1.82l-.4,1.2c1.53-2.84,2.21-4.57,4.02-7.39.85-1.7-.07-1.38-.69-1.24l.97-1.8-.27.2c-.31-.73.82-2.15,1.54-3.29.24.14-.14.88.05.9.82-.91,1.65-2.53,1.91-3.5.23.13.34,1.15-.53,2.3-.13.1-.18-.02-.31.08l-.92,2.27c1.16-2.56,2.53-3.69,3.05-3.3,1.09-2.61-1.69,1.65-.26-1.37,3.2-3.26,3.63-7.46,6.17-8.93.61-2.09,1.1-4.69,2-7.81-.42-.14.43-2.14-.2-1.99-1.39,2.73-.88,5.84-2.74,7.79-.38,1.35.18,1.12.15,1.81-.5,1.13-1.06,2.1-1.41,2.1.98-2.65-.7-1.19.82-4.44-.55.26-1.68,2.9-2.39,3.96-.03-.44-.45-.23-1,.41.04-.81.48-2.21.72-3.3.53-.67.52.13.92-.37-.08-.19-.1-.62-.06-1.25.21-.8.43-1.61.6-2.41.67-.91,1.1-1.09,1.13-.43.9-1.83,1.25-5.28,1.9-5.11.5-2.19-.3-.1-.71.62.23-.92.45-1.79.66-2.64.68-.1,1.36-.19,2.04-.28h0s0,0,0,0c.42-.06.85-.1,1.27-.16-.07.43-.12.88-.2,1.3-.77,4.56-1.87,8.58-2.48,10.99,1.35-4.08,2.33-8.2,3.07-12.33,1.84-.22,3.67-.41,5.48-.54l-1.98.32c1.54-.25,4.3-.42,5.19-.48l-.22.03c2.9-.08,3.26-.45,5.5-.34l-.44.04c3.5-.22,5.58-.1,9.01-.22,2.7-.03,2.39.08,4.26.12,1.39,0,2.22,0,2.39,0l-.75-.02c-.82-.04,1.65.03,2.77.06ZM420.66,187.17l-.27.14-.06-.38.33.25ZM417.89,188.99l-.14.26-.03-.19.16-.07ZM415.19,189.71c.18.06.72.11.7.37-.33.12-.82.57-.92.9-.03-.07-.09-.15-.15-.21.15,0,.3-.14.32-.28-.14-.12-.29,0-.42-.05.04-.52,1.27.22.47-.72ZM411.63,193.94c-.17.39-.72.28-.94.03h.47s-.31-.13-.31-.13l.78.11ZM410.76,193.26c.3,0,.23.2.34.26-.14-.02-.28-.1-.34-.26ZM411.07,191.64l.2.05c-.22.35-.15.1-.2-.05l-.23-.06c.15-.07.21-.02.23.06ZM411.22,192.08c-.16.13-.57.47-.53.4-.1-.26.34-.46.53-.4ZM410.7,194.24l-.22-.21.26.19-.04.02.05.05-.67.21.62-.26ZM408.87,194.34c.36.05.14-.2.24-.33l.12.38c-.47.01-.62-.18-1.13-.42.23-.39.67.11.77.36ZM408.03,193.54c-.06.28.21.8-.33.45l.33-.45ZM400.65,200.57l.2-.2.05.32-.26-.12ZM401.07,199.21c.13.06.15-.13.28-.07-.13.37-.35-.02-.57-.03.14-.08.15-.14.28.11ZM400.92,199.73c-.19.26-.71.73-.87.09.36.44.68-.15.87-.09ZM399.54,197.82c-.06.11-.04.31-.2.09l.2-.09ZM398.54,198.44c.2.12.53-.02.69.24-.43-.12-.18.71-.55.21.12,0,.18,0,.22-.07-.14-.12-.45-.24-.36-.38ZM396.95,200.62l.21.19-.05.07h.35c-.15.51-.75.08-.99.08.17-.07.92.23.48-.34ZM392.41,205.65c.07-.17.14-.35.21-.5.04.17-.04.44-.21.5ZM394.05,201.71c-.32-.06-.12.45-.55.1-.03-.5.34-.19.55-.1ZM393.57,202.26c-.24.33.4.31.27.57l.15-.13c-.1.45-.38-.18-.53.01l.1-.13c-.05-.32-.31-.05-.45-.24.09-.2.56-.21.46-.08ZM391.06,205.31h-.01s0,0,0-.02c0,0,0,.01,0,.02ZM386.65,206.39c-.07.33-.13.26-.31.27-.02-.13.13-.26.31-.27ZM386.24,206.4c-.16.46-.43-.12-.65-.04.11-.39.37.12.65.04ZM327.03,415.38c-.38-.14-.67-.28-.88-.41-.21-.19-.41-.39-.6-.6-.21-.57.51-1.07-.4-1.75.26-.48.5-.52.75-.47.38.49.79.96,1.25,1.4-.04.06-.06.13-.06.22.54.39.23,1.18-.06,1.6ZM403.47,385.26l-.18.02c.29-.23.57-.47.86-.7-.19.22-.4.44-.68.68ZM422.11,375.14c-.19-.01-.25-.11-.23-.24.74-.89,1.48-1.78,2.2-2.68-.81,1.04-.9,1.97-1.97,2.92ZM421.87,374.85c.11-.5,1.17-1.57,1.34-2.24,1.01-1.04,1.44-1.45,1.83-1.76-1.03,1.35-2.09,2.68-3.17,4ZM434.64,335.28c-.55,1.03-.95,1.95-1.59,3.13-.62,1.17-1.25,2.35-1.89,3.54-2.57,4.74-5.36,9.61-8.95,14.11l1.91-2.09,1.82-2.19c-2.95,5.63-5.52,8.75-8.86,12.86-.47.43-.86,1-1.28,1.59-.27.33-.53.65-.81,1-1.22.7-2.39,1.42-3.61,2.08-2.53,2.87-2.93,3.68-3.13,4.32-.19.64-.16,1.14-2.03,3.27-2.86,2.13-7.05,5.67-11.07,8.72-3.97,3.11-7.81,5.68-9.24,6.58-2.28.75,2.01-2.29,2.75-3.2-3.69,2.66-5.25,4.17-7.19,5.64-1.91,1.51-4.06,3.21-9.24,5.74l-.33-.23c-2.92,1.83-6.17,3.31-9.44,4.98-3.29,1.62-6.82,2.99-10.36,4.52-1.81.66-3.65,1.33-5.49,2l-2.78,1-.53.19c-.91.22-1.83.43-2.77.61.04-.15.4-.32.58-.4-1.73.26-3.34.56-4.89.81-1-.12-1.98-.33-2.88-.69-8.76-2.48-7.33-16.66-1.47-26.97.69-.73,1.41-1.41,2.15-1.97.89-1.1,1.73-2.12,2.45-3.09.76-.94,1.41-1.83,1.85-2.71-.51.59-2.34,1.97-1.69.57.03-.1.11-.2.16-.29.67-.72,1.36-1.43,2.08-2.13.58-.05,2.27-1.47.88.14,1.2.47,3.83-3.6,4.54-2.67.25-.61,3.02-2.67,3.75-3.9.52.21-1.31,1.39-1.09,1.67.37-.38.77-.73,1.16-1.09l.2.27c2.59-1.58,2.24-3.05,3.63-4.25v.14s.93-.85.93-.85l-.69,1.55c1.53-1.22,1.92-2.46,3.63-3.84l.33.11.94-.97c-.16.16-.16.31,0,.29.34-.75,1.27-1.49,2.14-2.2,1.02-.64,2.04-1.27,3.07-1.9.4-.07.77-.24,1.07-.66.05-.03.11-.07.16-.1l.28.87c-2.42,1.65-1.29-.03-3.71,1.92,2.57-.15,7.87-3.61,11.52-5.79,2.7-2.23,8.11-4.04,8.85-5.87l-.09.65c1.77-.77,3.56-1.5,5.36-2.2,2.16-1.19,4.43-2.23,6.57-3.2,2.12-1.01,4.11-1.96,5.73-2.98l1.09-.04c3.03-2.76,11.77-5.27,14.02-7.39.13-.06.26-.11.39-.16,1.62-.26-.73.77-.86,1.07,1.55-.48,3.92-2.1,5.57-2.01.05.19-2.13.88-1.11.69,1.23,0,1.51-.88,2.9-.89-.67-.21,1.83-1.44,3.74-2.02q-.36.08-.52.09c-.35-.19,1.1-.53,1.88-.79,0,0-.06.09-.26.18,3.59-1.17,7.43-2.23,11.39-3.14-.45.31.12.5,1.11.53-.07.2-.12.41-.19.6l.32.53c-.94,2.1-1.89,4.21-2.85,6.36ZM448.77,322.47s.03-.08.04-.13l.02.12s-.04,0-.06,0ZM449.19,322.44c.03-.25.06-.5.08-.75.04.3.11.53.19.73-.09,0-.18.01-.27.02ZM451.26,312.71l-.03.32c-.14-.05-.19-.26-.2-.56.08.09.15.18.24.24ZM451.65,322.64c-.38.03-.74.05-1.07.09,0-.03.01-.05.02-.08.35-.04.84-.06,1.04-.14-.35-.05-.68-.08-.99-.1.51-2.21.97-4.57.97-5.86.25-.42.47-.65.68-.69-.13,2.23-.34,4.53-.64,6.77Z"/>
      <path class="cls-1" d="M338.17,428.74c-.22.08-.41.17-.5.3.18-.04.5-.18.5-.3Z"/>
      <path class="cls-1" d="M379.16,415.13c-.08-.05-.12-.12-.17-.18,0,.06.03.12.17.18Z"/>
      <path class="cls-1" d="M422.1,216.73l.77-.24,3.07-.96c-1.35-.21-2.32-.07-3.4.18-.63.15-1.29.3-2.05.48-.83.18-1.79.36-2.89.51.41.31.86.61,1.35.9l2.15-.59,1.01-.28Z"/>
      <polygon class="cls-1" points="419.35 212.87 416.08 214.02 421.34 212.96 419.35 212.87"/>
      <path class="cls-1" d="M413.15,234.26c2.88-2.9,5.91-5.66,8.99-8.38-3.34,2.84-6.62,5.73-9.73,8.79l.75-.4Z"/>
      <path class="cls-1" d="M361.73,298.02c.15-.99.33-2,.36-2.85-.2,1.07-.35,2.19-.46,3.31-.05.6-.11,1.04-.13,1.78-.02.72-.02,1.44,0,2.15l.26-1.23c-.24-1.18-.13-2.15-.02-3.16Z"/>
      <path class="cls-1" d="M413.09,293.63c-1.88,3,.63,1.07.55,2.29-.24-3.01,2.69-3.55-.55-2.29Z"/>
      <path class="cls-1" d="M418.98,283.5c-1.2,1.6-1.59,2.69-1.98,3.76,2.27-1.64,1.46-2.32,1.98-3.76Z"/>
      <path class="cls-1" d="M425.61,184.7s-.08.01-.11,0c0,.08.04.06.11,0Z"/>
      <path class="cls-1" d="M425.61,184.7c.4,0,.87-.29,1.16-.48-.39-.43-.93.27-1.16.48Z"/>
      <path class="cls-1" d="M425.42,183.87l-.46.08c.22-.07.32.18.46-.08Z"/>
      <polygon class="cls-1" points="425.16 184.46 425.46 184.52 425.37 184.33 425.16 184.46"/>
      <path class="cls-1" d="M417.98,190.66c-.15-.02-.36-.06-.57-.1.18.12.38.4.57.1Z"/>
      <path class="cls-1" d="M400.83,197.19l-.05-.17c-.09.07-.03.13.05.17Z"/>
      <path class="cls-1" d="M404.66,195.17s.04,0,.06,0c-.01-.05-.04-.12-.09-.2l.03.19Z"/>
      <path class="cls-1" d="M408.96,196.34h-.18s0,0,0,0c.07.06.13.06.18,0Z"/>
      <path class="cls-1" d="M399.12,197.33c.13.11.24.18.34.22-.05-.12-.18-.23-.34-.22Z"/>
      <path class="cls-1" d="M406.08,197.31s-.02,0-.03,0c0,0,0,0,0,0,0,0,.01,0,.02-.01Z"/>
      <path class="cls-1" d="M405.71,194.43c.09-.01.16-.03.24-.05-.08-.04-.18-.04-.24.05Z"/>
      <path class="cls-1" d="M424.7,185.63c-.1-.06-.2-.09-.29-.1.09.09.18.18.29.1Z"/>
      <polygon class="cls-1" points="398.58 201.99 398.57 201.99 398.58 201.99 398.58 201.99"/>
      <path class="cls-1" d="M418.63,186.97c.05-.04.09-.02.12,0-.03-.03-.06-.04-.12,0Z"/>
      <path class="cls-1" d="M403.47,200.23s-.02,0-.03-.01c0,0-.02.01-.02.01h.06Z"/>
      <path class="cls-1" d="M424.51,186.28c.11-.07.54.05.2-.2-.2-.12-.1.13-.2.2Z"/>
      <path class="cls-1" d="M423.92,186.08c-.13.04-.26.03-.38-.03.22.09.32.08.38.03Z"/>
      <path class="cls-1" d="M424.31,185.78c-.28.05-.3.23-.4.31.14-.04.27-.14.4-.31Z"/>
      <path class="cls-1" d="M421.3,187.54c.38.18.54.44.93.29-.14-.12-.93.09-.48-.44,0,0-.19.26-.45.14Z"/>
      <path class="cls-1" d="M420.5,187.88c-.21.05-.58-.22-.71.08.2.12.4.31.63.24-.19-.18-.05-.24.09-.32Z"/>
      <path class="cls-1" d="M415.12,192.94c-.05.07-.25.26-.08.26l.32-.2c-.08-.13-.19-.06-.25-.06Z"/>
      <path class="cls-1" d="M413.18,192.99l.25.44c.18,0-.16-.25.11-.39l-.36-.05Z"/>
      <path class="cls-1" d="M412.35,190.76v.03s.07-.03.1-.04h-.1Z"/>
      <path class="cls-1" d="M413.03,194.61l-.47-.37c-.06,0,.18.38.47.37Z"/>
      <polygon class="cls-1" points="412.01 195.22 411.77 195.16 411.45 195.36 412.01 195.22"/>
      <polygon class="cls-1" points="410.46 195.78 410.44 195.65 410.06 195.85 410.46 195.78"/>
      <path class="cls-1" d="M397.23,203.12c-.11-.64.62-.15.41-.72-.09.2-.71.34-.41.72Z"/>
    </g>
  </g>
</svg>